{
.appVersion = "1342";
DisplayStrings = (
AV,
"/zero.dnom/zerosuperior/one.dnom ¹²³/foursuperior/fivesuperior/sixsuperior/sevensuperior/eightsuperior/ninesuperior A"
);
classes = (
{
automatic = 1;

glyphs = (
{
glyphname = A;
layers = (
{
anchors = (
{
name = bottom;
position = "{616, 0}";
},
{
name = ogonek;
position = "{1124, 0}";
},
{
name = top;
position = "{616, 1400}";
}
);
layerId = UUID0;
paths = (
{
closed = 1;
nodes = (
"916 550 LINE",
"316 550 LINE",
"316 378 LINE",
"916 378 LINE"
);
},
{
closed = 1;
nodes = (
"1018 0 LINE",
"1218 0 LINE",
"716 1400 LINE",
"516 1400 LINE",
"14 0 LINE",
"214 0 LINE",
"644 1214 LINE",
"588 1214 LINE"
);
}
);
width = 1232;
},
{
anchors = (
{
name = bottom;
position = "{626, 0}";
},
{
name = ogonek;
position = "{1114, 0}";
},
{
name = top;
position = "{626, 1400}";
}
);
layerId = "7C863538-AAB4-42AD-A9FE-7240E615272A";
paths = (
{
closed = 1;
nodes = (
"918 556 LINE",
"332 556 LINE",
"332 332 LINE",
"918 332 LINE"
);
},
{
closed = 1;
nodes = (
"996 0 LINE",
"1244 0 LINE",
"746 1400 LINE",
"504 1400 LINE",
"6 0 LINE",
"254 0 LINE",
"658 1150 LINE",
"592 1150 LINE"
);
}
);
width = 1250;
},
{
anchors = (
{
name = bottom;
position = "{616, 0}";
},
{
name = ogonek;
position = "{1108, 20}";
},
{
name = top;
position = "{616, 1400}";
}
);
associatedMasterId = UUID0;
layerId = "CE7DA8FC-F9D8-4CA8-895E-D8679BFEF1F0";
name = "Regular Sep 7 16, 14:04";
paths = (
{
closed = 1;
nodes = (
"214 0 LINE",
"348 378 LINE",
"884 378 LINE",
"1018 0 LINE",
"1218 0 LINE",
"716 1400 LINE",
"516 1400 LINE",
"14 0 LINE"
);
},
{
closed = 1;
nodes = (
"616 1134 LINE",
"824 550 LINE",
"408 550 LINE"
);
}
);
width = 1232;
},
{
anchors = (
{
name = bottom;
position = "{626, 0}";
},
{
name = ogonek;
position = "{1124, 20}";
},
{
name = top;
position = "{626, 1400}";
}
);
associatedMasterId = "7C863538-AAB4-42AD-A9FE-7240E615272A";
layerId = "CD5E817D-54ED-444E-B7C3-DBC41A33A319";
name = "Bold Sep 7 16, 14:04";
paths = (
{
closed = 1;
nodes = (
"272 0 LINE",
"392 338 LINE",
"858 338 LINE",
"978 0 LINE",
"1244 0 LINE",
"746 1400 LINE",
"504 1400 LINE",
"6 0 LINE"
);
},
{
closed = 1;
nodes = (
"624 996 LINE",
"770 586 LINE",
"480 586 LINE"
);
}
);
width = 1250;
},
{
anchors = (
{
name = bottom;
position = "{542, 0}";
},
{
name = ogonek;
position = "{966, 0}";
},
{
name = top;
position = "{542, 1400}";
}
);
layerId = "A616F07E-65DE-4D07-A020-83605E49AA22";
paths = (
{
closed = 1;
nodes = (
"790 550 LINE",
"290 550 LINE",
"290 378 LINE",
"790 378 LINE"
);
},
{
closed = 1;
nodes = (
"868 0 LINE",
"1064 0 LINE",
"634 1400 LINE",
"446 1400 LINE",
"16 0 LINE",
"212 0 LINE",
"570 1216 LINE",
"510 1216 LINE"
);
}
);
width = 1080;
},
{
anchors = (
{
name = bottom;
position = "{534, 0}";
},
{
name = ogonek;
position = "{952, 0}";
},
{
name = top;
position = "{534, 1400}";
}
);
layerId = "3AF73D1F-32CE-4CF3-BC01-E4A23F7DE30A";
paths = (
{
closed = 1;
nodes = (
"794 558 LINE",
"276 558 LINE",
"276 334 LINE",
"794 334 LINE"
);
},
{
closed = 1;
nodes = (
"830 0 LINE",
"1074 0 LINE",
"646 1400 LINE",
"422 1400 LINE",
"-4 0 LINE",
"240 0 LINE",
"556 1108 LINE",
"512 1108 LINE"
);
}
);
width = 1070;
},
{
anchors = (
{
name = bottom;
position = "{540, 0}";
},
{
name = ogonek;
position = "{970, 20}";
},
{
name = top;
position = "{540, 1400}";
}
);
associatedMasterId = "A616F07E-65DE-4D07-A020-83605E49AA22";
layerId = "36A3A05C-5414-4977-885C-6A74DCD49D8E";
name = "Condensed Sep 19 16, 18:47";
paths = (
{
closed = 1;
nodes = (
"210 0 LINE",
"320 378 LINE",
"756 378 LINE",
"866 0 LINE",
"1062 0 LINE",
"632 1400 LINE",
"444 1400 LINE",
"14 0 LINE"
);
},
{
closed = 1;
nodes = (
"538 1134 LINE",
"694 550 LINE",
"382 550 LINE"
);
}
);
visible = 1;
width = 1078;
},
{
anchors = (
{
name = bottom;
position = "{536, 0}";
},
{
name = ogonek;
position = "{964, 20}";
},
{
name = top;
position = "{536, 1400}";
}
);
associatedMasterId = "3AF73D1F-32CE-4CF3-BC01-E4A23F7DE30A";
layerId = "283918FD-D5E2-4BFF-8492-3976E125C962";
name = "Bold Condensed Sep 19 16, 18:47";
paths = (
{
closed = 1;
nodes = (
"252 0 LINE",
"350 338 LINE",
"724 338 LINE",
"822 0 LINE",
"1076 0 LINE",
"648 1400 LINE",
"424 1400 LINE",
"-2 0 LINE"
);
},
{
closed = 1;
nodes = (
"536 996 LINE",
"638 586 LINE",
"436 586 LINE"
);
}
);
width = 1072;
}
);
leftKerningGroup = A;
rightKerningGroup = A;
unicode = 0041;
},
{
glyphname = AE;
layers = (
{
anchors = (
{
name = bottom;
position = "{866, 0}";
},
{
name = top;
position = "{1154, 1400}";
}
);
layerId = UUID0;
paths = (
{
closed = 1;
nodes = (
"172 0 LINE",
"784 1222 LINE",
"784 0 LINE",
"1656 0 LINE",
"1656 172 LINE",
"1012 172 LINE",
"1012 646 LINE",
"1494 646 LINE",
"1494 818 LINE",
"1012 818 LINE",
"1012 1226 LINE",
"1636 1226 LINE",
"1636 1400 LINE",
"670 1400 LINE",
"-14 0 LINE"
);
},
{
closed = 1;
nodes = (
"816 360 LINE",
"816 544 LINE",
"310 544 LINE",
"310 360 LINE"
);
}
);
width = 1732;
},
{
anchors = (
{
name = bottom;
position = "{868, 0}";
},
{
name = top;
position = "{1154, 1400}";
}
);
layerId = "7C863538-AAB4-42AD-A9FE-7240E615272A";
paths = (
{
closed = 1;
nodes = (
"244 0 LINE",
"794 1146 LINE",
"794 0 LINE",
"1666 0 LINE",
"1666 248 LINE",
"1056 248 LINE",
"1056 606 LINE",
"1512 606 LINE",
"1512 854 LINE",
"1056 854 LINE",
"1056 1152 LINE",
"1648 1152 LINE",
"1648 1400 LINE",
"660 1400 LINE",
"-22 0 LINE"
);
},
{
closed = 1;
nodes = (
"826 338 LINE",
"826 586 LINE",
"352 586 LINE",
"352 338 LINE"
);
}
);
width = 1732;
},
{
anchors = (
{
name = bottom;
position = "{754, 0}";
},
{
name = top;
position = "{1008, 1400}";
}
);
layerId = "A616F07E-65DE-4D07-A020-83605E49AA22";
paths = (
{
closed = 1;
nodes = (
"184 0 LINE",
"682 1190 LINE",
"682 0 LINE",
"1448 0 LINE",
"1448 168 LINE",
"866 168 LINE",
"866 648 LINE",
"1312 648 LINE",
"1312 816 LINE",
"866 816 LINE",
"866 1232 LINE",
"1432 1232 LINE",
"1432 1400 LINE",
"582 1400 LINE",
"-10 0 LINE"
);
},
{
closed = 1;
nodes = (
"782 370 LINE",
"782 542 LINE",
"268 542 LINE",
"268 370 LINE"
);
}
);
width = 1506;
},
{
anchors = (
{
name = bottom;
position = "{784, 0}";
},
{
name = top;
position = "{1030, 1400}";
}
);
layerId = "3AF73D1F-32CE-4CF3-BC01-E4A23F7DE30A";
paths = (
{
closed = 1;
nodes = (
"240 0 LINE",
"704 1146 LINE",
"704 0 LINE",
"1508 0 LINE",
"1508 224 LINE",
"948 224 LINE",
"948 622 LINE",
"1366 622 LINE",
"1366 846 LINE",
"948 846 LINE",
"948 1176 LINE",
"1490 1176 LINE",
"1490 1400 LINE",
"570 1400 LINE",
"-16 0 LINE"
);
},
{
closed = 1;
nodes = (
"812 352 LINE",
"812 576 LINE",
"320 576 LINE",
"320 352 LINE"
);
}
);
width = 1566;
},
{
associatedMasterId = "A616F07E-65DE-4D07-A020-83605E49AA22";
layerId = "E621BB19-D0A3-4EF4-88B9-44F327ACDFC8";
name = "Condensed Sep 21 16, 21:06";
paths = (
{
closed = 1;
nodes = (
"178 0 LINE",
"330 360 LINE",
"682 360 LINE",
"682 0 LINE",
"1432 0 LINE",
"1432 172 LINE",
"892 172 LINE",
"892 646 LINE",
"1296 646 LINE",
"1296 818 LINE",
"892 818 LINE",
"892 1226 LINE",
"1416 1226 LINE",
"1416 1400 LINE",
"578 1400 LINE",
"-10 0 LINE"
);
},
{
closed = 1;
nodes = (
"682 1222 LINE",
"682 544 LINE",
"414 544 LINE"
);
}
);
width = 1490;
},
{
associatedMasterId = "3AF73D1F-32CE-4CF3-BC01-E4A23F7DE30A";
layerId = "284DCDCC-4F99-42AC-B2BA-637E09369861";
name = "Bold Condensed Sep 21 16, 21:06";
paths = (
{
closed = 1;
nodes = (
"232 0 LINE",
"364 338 LINE",
"682 338 LINE",
"682 0 LINE",
"1432 0 LINE",
"1432 248 LINE",
"920 248 LINE",
"920 606 LINE",
"1302 606 LINE",
"1302 854 LINE",
"920 854 LINE",
"920 1152 LINE",
"1418 1152 LINE",
"1418 1400 LINE",
"560 1400 LINE",
"-26 0 LINE"
);
},
{
closed = 1;
nodes = (
"682 1146 LINE",
"682 586 LINE",
"476 586 LINE"
);
}
);
width = 1490;
},
{
associatedMasterId = "A616F07E-65DE-4D07-A020-83605E49AA22";
components = (
{
name = E;
transform = "{1, 0, 0, 1, 550, 0}";
}
);
layerId = "B742A8D6-AAF3-4AE6-BB9F-A48898BD77FB";
name = "Condensed Sep 21 16, 21:07";
paths = (
{
closed = 1;
nodes = (
"682 0 LINE",
"1436 0 LINE",
"1436 172 LINE",
"866 172 LINE",
"866 646 LINE",
"1274 646 LINE",
"1274 818 LINE",
"866 818 LINE",
"866 1226 LINE",
"1416 1226 LINE",
"1416 1400 LINE",
"568 1400 LINE",
"-10 0 LINE",
"176 0 LINE",
"682 1222 LINE"
);
},
{
closed = 1;
nodes = (
"820 544 LINE",
"328 544 LINE",
"328 360 LINE",
"820 360 LINE"
);
}
);
width = 1490;
},
{
associatedMasterId = "3AF73D1F-32CE-4CF3-BC01-E4A23F7DE30A";
components = (
{
name = E;
transform = "{1, 0, 0, 1, 562, 0}";
}
);
layerId = "5DAFDAAD-9D64-48F1-B187-AF936702C6D1";
name = "Bold Condensed Sep 21 16, 21:11";
paths = (
{
closed = 1;
nodes = (
"822 586 LINE",
"370 586 LINE",
"370 338 LINE",
"822 338 LINE"
);
}
);
visible = 1;
width = 1490;
}
);
rightKerningGroup = E;
rightMetricsKey = E;
unicode = 00C6;
},
{
glyphname = B;
layers = (
{
layerId = UUID0;
paths = (
{
closed = 1;
nodes = (
"688 0 LINE SMOOTH",
"966 0 OFFCURVE",
"1134 154 OFFCURVE",
"1134 400 CURVE SMOOTH",
"1134 612 OFFCURVE",
"1022 736 OFFCURVE",
"828 768 CURVE",
"800 736 LINE",
"936 772 OFFCURVE",
"1004 902 OFFCURVE",
"1004 1058 CURVE SMOOTH",
"1004 1288 OFFCURVE",
"852 1400 OFFCURVE",
"602 1400 CURVE SMOOTH",
"160 1400 LINE",
"160 0 LINE"
);
},
{
closed = 1;
nodes = (
"350 646 LINE",
"672 646 LINE SMOOTH",
"822 646 OFFCURVE",
"926 582 OFFCURVE",
"926 406 CURVE SMOOTH",
"926 248 OFFCURVE",
"826 172 OFFCURVE",
"672 172 CURVE SMOOTH",
"350 172 LINE"
);
},
{
closed = 1;
nodes = (
"350 1230 LINE",
"578 1230 LINE SMOOTH",
"714 1230 OFFCURVE",
"808 1188 OFFCURVE",
"808 1024 CURVE SMOOTH",
"808 858 OFFCURVE",
"714 818 OFFCURVE",
"578 818 CURVE SMOOTH",
"350 818 LINE"
);
}
);
width = 1194;
},
{
layerId = "7C863538-AAB4-42AD-A9FE-7240E615272A";
paths = (
{
closed = 1;
nodes = (
"738 0 LINE SMOOTH",
"1020 0 OFFCURVE",
"1194 146 OFFCURVE",
"1194 398 CURVE SMOOTH",
"1194 608 OFFCURVE",
"1084 736 OFFCURVE",
"860 784 CURVE",
"860 736 LINE",
"1008 786 OFFCURVE",
"1082 898 OFFCURVE",
"1082 1062 CURVE SMOOTH",
"1082 1282 OFFCURVE",
"952 1400 OFFCURVE",
"682 1400 CURVE SMOOTH",
"154 1400 LINE",
"154 0 LINE"
);
},
{
closed = 1;
nodes = (
"410 622 LINE",
"700 622 LINE SMOOTH",
"830 622 OFFCURVE",
"930 578 OFFCURVE",
"930 426 CURVE SMOOTH",
"930 276 OFFCURVE",
"840 228 OFFCURVE",
"700 228 CURVE SMOOTH",
"410 228 LINE"
);
},
{
closed = 1;
nodes = (
"410 1172 LINE",
"644 1172 LINE SMOOTH",
"768 1172 OFFCURVE",
"830 1126 OFFCURVE",
"830 1010 CURVE SMOOTH",
"830 898 OFFCURVE",
"768 850 OFFCURVE",
"644 850 CURVE SMOOTH",
"410 850 LINE"
);
}
);
width = 1252;
},
{
associatedMasterId = UUID0;
layerId = "03AC80BF-29AF-4696-B368-D84669897041";
name = "Regular Sep 7 16, 14:04";
paths = (
{
closed = 1;
nodes = (
"640 0 LINE SMOOTH",
"870 0 OFFCURVE",
"1124 58 OFFCURVE",
"1124 416 CURVE SMOOTH",
"1124 566 OFFCURVE",
"1072 676 OFFCURVE",
"890 746 CURVE",
"998 858 OFFCURVE",
"1004 936 OFFCURVE",
"1004 1054 CURVE SMOOTH",
"1004 1350 OFFCURVE",
"804 1400 OFFCURVE",
"476 1400 CURVE SMOOTH",
"160 1400 LINE",
"160 0 LINE"
);
},
{
closed = 1;
nodes = (
"350 646 LINE",
"646 646 LINE SMOOTH",
"794 646 OFFCURVE",
"926 602 OFFCURVE",
"926 398 CURVE SMOOTH",
"926 196 OFFCURVE",
"776 172 OFFCURVE",
"546 172 CURVE SMOOTH",
"350 172 LINE"
);
},
{
closed = 1;
nodes = (
"350 1230 LINE",
"530 1230 LINE SMOOTH",
"684 1230 OFFCURVE",
"808 1216 OFFCURVE",
"808 1040 CURVE SMOOTH",
"808 830 OFFCURVE",
"698 818 OFFCURVE",
"586 818 CURVE SMOOTH",
"350 818 LINE"
);
}
);
width = 1194;
},
{
associatedMasterId = "7C863538-AAB4-42AD-A9FE-7240E615272A";
layerId = "874F906E-7ABA-4444-9E3E-82CE4F5599DB";
name = "Bold Sep 7 16, 14:04";
paths = (
{
closed = 1;
nodes = (
"694 0 LINE SMOOTH",
"928 0 OFFCURVE",
"1194 88 OFFCURVE",
"1194 412 CURVE SMOOTH",
"1194 590 OFFCURVE",
"1112 686 OFFCURVE",
"950 748 CURVE",
"1032 816 OFFCURVE",
"1068 914 OFFCURVE",
"1068 1040 CURVE SMOOTH",
"1068 1350 OFFCURVE",
"854 1400 OFFCURVE",
"532 1400 CURVE SMOOTH",
"154 1400 LINE",
"154 0 LINE"
);
},
{
closed = 1;
nodes = (
"410 636 LINE",
"676 636 LINE SMOOTH",
"820 636 OFFCURVE",
"930 588 OFFCURVE",
"930 426 CURVE SMOOTH",
"930 268 OFFCURVE",
"826 218 OFFCURVE",
"662 218 CURVE SMOOTH",
"410 218 LINE"
);
},
{
closed = 1;
nodes = (
"410 1182 LINE",
"636 1182 LINE SMOOTH",
"754 1182 OFFCURVE",
"830 1148 OFFCURVE",
"830 1002 CURVE SMOOTH",
"830 868 OFFCURVE",
"732 838 OFFCURVE",
"660 838 CURVE SMOOTH",
"410 838 LINE"
);
}
);
width = 1252;
},
{
layerId = "A616F07E-65DE-4D07-A020-83605E49AA22";
paths = (
{
closed = 1;
nodes = (
"586 0 LINE SMOOTH",
"836 0 OFFCURVE",
"988 154 OFFCURVE",
"988 400 CURVE SMOOTH",
"988 616 OFFCURVE",
"874 738 OFFCURVE",
"682 776 CURVE",
"682 716 LINE",
"820 754 OFFCURVE",
"888 890 OFFCURVE",
"888 1056 CURVE SMOOTH",
"888 1288 OFFCURVE",
"742 1400 OFFCURVE",
"500 1400 CURVE SMOOTH",
"132 1400 LINE",
"132 0 LINE"
);
},
{
closed = 1;
nodes = (
"316 648 LINE",
"570 648 LINE SMOOTH",
"702 648 OFFCURVE",
"788 584 OFFCURVE",
"788 406 CURVE SMOOTH",
"788 246 OFFCURVE",
"702 168 OFFCURVE",
"570 168 CURVE SMOOTH",
"316 168 LINE"
);
},
{
closed = 1;
nodes = (
"316 1232 LINE",
"476 1232 LINE SMOOTH",
"630 1232 OFFCURVE",
"692 1186 OFFCURVE",
"692 1028 CURVE SMOOTH",
"692 862 OFFCURVE",
"630 816 OFFCURVE",
"476 816 CURVE SMOOTH",
"316 816 LINE"
);
}
);
width = 1064;
},
{
layerId = "3AF73D1F-32CE-4CF3-BC01-E4A23F7DE30A";
paths = (
{
closed = 1;
nodes = (
"656 0 LINE SMOOTH",
"902 0 OFFCURVE",
"1054 146 OFFCURVE",
"1054 398 CURVE SMOOTH",
"1054 602 OFFCURVE",
"952 726 OFFCURVE",
"770 774 CURVE",
"770 726 LINE",
"884 778 OFFCURVE",
"942 892 OFFCURVE",
"942 1062 CURVE SMOOTH",
"942 1282 OFFCURVE",
"830 1400 OFFCURVE",
"600 1400 CURVE SMOOTH",
"132 1400 LINE",
"132 0 LINE"
);
},
{
closed = 1;
nodes = (
"376 626 LINE",
"612 626 LINE SMOOTH",
"720 626 OFFCURVE",
"802 580 OFFCURVE",
"802 422 CURVE SMOOTH",
"802 272 OFFCURVE",
"728 224 OFFCURVE",
"612 224 CURVE SMOOTH",
"376 224 LINE"
);
},
{
closed = 1;
nodes = (
"376 1176 LINE",
"556 1176 LINE SMOOTH",
"654 1176 OFFCURVE",
"702 1128 OFFCURVE",
"702 1010 CURVE SMOOTH",
"702 896 OFFCURVE",
"654 846 OFFCURVE",
"556 846 CURVE SMOOTH",
"376 846 LINE"
);
}
);
width = 1126;
},
{
associatedMasterId = "A616F07E-65DE-4D07-A020-83605E49AA22";
layerId = "601A30DA-FC8E-4451-987D-8A1149943089";
name = "Condensed Sep 19 16, 18:47";
paths = (
{
closed = 1;
nodes = (
"538 0 LINE SMOOTH",
"738 0 OFFCURVE",
"960 58 OFFCURVE",
"960 416 CURVE SMOOTH",
"960 566 OFFCURVE",
"904 676 OFFCURVE",
"756 746 CURVE",
"840 858 OFFCURVE",
"856 936 OFFCURVE",
"856 1054 CURVE SMOOTH",
"856 1350 OFFCURVE",
"678 1400 OFFCURVE",
"398 1400 CURVE SMOOTH",
"104 1400 LINE",
"104 0 LINE"
);
},
{
closed = 1;
nodes = (
"292 646 LINE",
"534 646 LINE SMOOTH",
"660 646 OFFCURVE",
"766 602 OFFCURVE",
"766 398 CURVE SMOOTH",
"766 196 OFFCURVE",
"654 172 OFFCURVE",
"480 172 CURVE SMOOTH",
"292 172 LINE"
);
},
{
closed = 1;
nodes = (
"292 1230 LINE",
"462 1230 LINE SMOOTH",
"582 1230 OFFCURVE",
"672 1216 OFFCURVE",
"672 1040 CURVE SMOOTH",
"672 830 OFFCURVE",
"582 818 OFFCURVE",
"500 818 CURVE SMOOTH",
"292 818 LINE"
);
}
);
width = 1050;
},
{
associatedMasterId = "3AF73D1F-32CE-4CF3-BC01-E4A23F7DE30A";
layerId = "4461AD06-8FCF-4A0A-BD29-6CA7F197F86D";
name = "Bold Condensed Sep 19 16, 18:47";
paths = (
{
closed = 1;
nodes = (
"570 0 LINE SMOOTH",
"774 0 OFFCURVE",
"1006 88 OFFCURVE",
"1006 412 CURVE SMOOTH",
"1006 590 OFFCURVE",
"924 686 OFFCURVE",
"794 748 CURVE",
"854 816 OFFCURVE",
"896 914 OFFCURVE",
"896 1040 CURVE SMOOTH",
"896 1350 OFFCURVE",
"706 1400 OFFCURVE",
"432 1400 CURVE SMOOTH",
"84 1400 LINE",
"84 0 LINE"
);
},
{
closed = 1;
nodes = (
"328 636 LINE",
"546 636 LINE SMOOTH",
"668 636 OFFCURVE",
"756 588 OFFCURVE",
"756 426 CURVE SMOOTH",
"756 268 OFFCURVE",
"682 218 OFFCURVE",
"566 218 CURVE SMOOTH",
"328 218 LINE"
);
},
{
closed = 1;
nodes = (
"328 1182 LINE",
"540 1182 LINE SMOOTH",
"628 1182 OFFCURVE",
"676 1148 OFFCURVE",
"676 1002 CURVE SMOOTH",
"676 868 OFFCURVE",
"596 838 OFFCURVE",
"548 838 CURVE SMOOTH",
"328 838 LINE"
);
}
);
visible = 1;
width = 1100;
}
);
leftKerningGroup = I;
leftMetricsKey = H;
unicode = 0042;
},
{
glyphname = C;
layers = (
{
anchors = (
{
name = bottom;
position = "{766, 0}";
},
{
name = top;
position = "{752, 1400}";
}
);
layerId = UUID0;
paths = (
{
closed = 1;
nodes = (
"942 -28 OFFCURVE",
"1066 6 OFFCURVE",
"1166 52 CURVE",
"1146 228 LINE",
"1040 176 OFFCURVE",
"924 144 OFFCURVE",
"786 144 CURVE SMOOTH",
"458 144 OFFCURVE",
"286 390 OFFCURVE",
"286 700 CURVE SMOOTH",
"286 1010 OFFCURVE",
"460 1256 OFFCURVE",
"790 1256 CURVE SMOOTH",
"924 1256 OFFCURVE",
"1046 1218 OFFCURVE",
"1146 1170 CURVE",
"1166 1346 LINE",
"1068 1394 OFFCURVE",
"934 1428 OFFCURVE",
"792 1428 CURVE SMOOTH",
"380 1428 OFFCURVE",
"78 1144 OFFCURVE",
"78 700 CURVE SMOOTH",
"78 256 OFFCURVE",
"376 -28 OFFCURVE",
"784 -28 CURVE SMOOTH"
);
}
);
width = 1232;
},
{
anchors = (
{
name = bottom;
position = "{748, 0}";
},
{
name = top;
position = "{746, 1400}";
}
);
layerId = "7C863538-AAB4-42AD-A9FE-7240E615272A";
paths = (
{
closed = 1;
nodes = (
"924 -28 OFFCURVE",
"1052 4 OFFCURVE",
"1158 54 CURVE",
"1130 298 LINE",
"1022 250 OFFCURVE",
"922 218 OFFCURVE",
"788 218 CURVE SMOOTH",
"498 218 OFFCURVE",
"350 420 OFFCURVE",
"350 700 CURVE SMOOTH",
"350 980 OFFCURVE",
"500 1182 OFFCURVE",
"794 1182 CURVE SMOOTH",
"926 1182 OFFCURVE",
"1028 1148 OFFCURVE",
"1130 1102 CURVE",
"1158 1346 LINE",
"1068 1392 OFFCURVE",
"944 1428 OFFCURVE",
"796 1428 CURVE SMOOTH",
"374 1428 OFFCURVE",
"70 1140 OFFCURVE",
"70 700 CURVE SMOOTH",
"70 260 OFFCURVE",
"362 -28 OFFCURVE",
"788 -28 CURVE SMOOTH"
);
}
);
width = 1218;
},
{
associatedMasterId = UUID0;
layerId = "C18EE6DC-633D-41E1-A253-90C8CBF88A98";
name = "Regular Sep 7 16, 14:04";
paths = (
{
closed = 1;
nodes = (
"920 -28 OFFCURVE",
"1064 6 OFFCURVE",
"1166 52 CURVE",
"1146 228 LINE",
"1036 190 OFFCURVE",
"922 144 OFFCURVE",
"782 144 CURVE SMOOTH",
"456 144 OFFCURVE",
"286 390 OFFCURVE",
"286 700 CURVE SMOOTH",
"286 1010 OFFCURVE",
"456 1256 OFFCURVE",
"778 1256 CURVE SMOOTH",
"922 1256 OFFCURVE",
"1036 1208 OFFCURVE",
"1146 1170 CURVE",
"1166 1346 LINE",
"1070 1392 OFFCURVE",
"920 1428 OFFCURVE",
"778 1428 CURVE SMOOTH",
"374 1428 OFFCURVE",
"78 1144 OFFCURVE",
"78 700 CURVE SMOOTH",
"78 256 OFFCURVE",
"374 -28 OFFCURVE",
"780 -28 CURVE SMOOTH"
);
}
);
width = 1232;
},
{
associatedMasterId = "7C863538-AAB4-42AD-A9FE-7240E615272A";
layerId = "8A384D28-507D-4559-BB71-F27231FB4BE6";
name = "Bold Sep 7 16, 14:04";
paths = (
{
closed = 1;
nodes = (
"906 -28 OFFCURVE",
"1056 4 OFFCURVE",
"1158 54 CURVE",
"1130 298 LINE",
"1014 252 OFFCURVE",
"906 218 OFFCURVE",
"760 218 CURVE SMOOTH",
"488 218 OFFCURVE",
"350 420 OFFCURVE",
"350 700 CURVE SMOOTH",
"350 980 OFFCURVE",
"488 1182 OFFCURVE",
"760 1182 CURVE SMOOTH",
"906 1182 OFFCURVE",
"1014 1148 OFFCURVE",
"1130 1102 CURVE",
"1158 1346 LINE",
"1056 1396 OFFCURVE",
"906 1428 OFFCURVE",
"760 1428 CURVE SMOOTH",
"360 1428 OFFCURVE",
"70 1140 OFFCURVE",
"70 700 CURVE SMOOTH",
"70 260 OFFCURVE",
"360 -28 OFFCURVE",
"760 -28 CURVE"
);
}
);
width = 1218;
},
{
anchors = (
{
name = bottom;
position = "{664, 0}";
},
{
name = top;
position = "{670, 1400}";
}
);
layerId = "A616F07E-65DE-4D07-A020-83605E49AA22";
paths = (
{
closed = 1;
nodes = (
"824 -28 OFFCURVE",
"918 -6 OFFCURVE",
"996 28 CURVE",
"976 200 LINE",
"902 162 OFFCURVE",
"822 140 OFFCURVE",
"730 140 CURVE SMOOTH",
"424 140 OFFCURVE",
"264 388 OFFCURVE",
"264 700 CURVE SMOOTH",
"264 1012 OFFCURVE",
"424 1260 OFFCURVE",
"728 1260 CURVE SMOOTH",
"822 1260 OFFCURVE",
"900 1234 OFFCURVE",
"976 1196 CURVE",
"996 1368 LINE",
"914 1402 OFFCURVE",
"816 1428 OFFCURVE",
"692 1428 CURVE SMOOTH",
"326 1428 OFFCURVE",
"60 1144 OFFCURVE",
"60 700 CURVE SMOOTH",
"60 256 OFFCURVE",
"310 -28 OFFCURVE",
"700 -28 CURVE SMOOTH"
);
}
);
width = 1048;
},
{
anchors = (
{
name = bottom;
position = "{696, 0}";
},
{
name = top;
position = "{658, 1400}";
}
);
layerId = "3AF73D1F-32CE-4CF3-BC01-E4A23F7DE30A";
paths = (
{
closed = 1;
nodes = (
"804 -28 OFFCURVE",
"916 -2 OFFCURVE",
"996 38 CURVE",
"968 282 LINE",
"886 246 OFFCURVE",
"814 218 OFFCURVE",
"712 218 CURVE SMOOTH",
"472 218 OFFCURVE",
"328 400 OFFCURVE",
"328 700 CURVE SMOOTH",
"328 1000 OFFCURVE",
"472 1182 OFFCURVE",
"714 1182 CURVE SMOOTH",
"814 1182 OFFCURVE",
"886 1154 OFFCURVE",
"968 1118 CURVE",
"996 1362 LINE",
"914 1400 OFFCURVE",
"810 1428 OFFCURVE",
"682 1428 CURVE SMOOTH",
"326 1428 OFFCURVE",
"60 1150 OFFCURVE",
"60 700 CURVE SMOOTH",
"60 250 OFFCURVE",
"328 -28 OFFCURVE",
"678 -28 CURVE SMOOTH"
);
}
);
width = 1048;
},
{
associatedMasterId = "A616F07E-65DE-4D07-A020-83605E49AA22";
layerId = "D6255B8F-063F-40DE-BEFD-8D15E84F978D";
name = "Condensed Sep 19 16, 18:47";
paths = (
{
closed = 1;
nodes = (
"782 -28 OFFCURVE",
"908 6 OFFCURVE",
"996 52 CURVE",
"976 228 LINE",
"878 190 OFFCURVE",
"782 144 OFFCURVE",
"660 144 CURVE SMOOTH",
"400 144 OFFCURVE",
"264 390 OFFCURVE",
"264 700 CURVE SMOOTH",
"264 1010 OFFCURVE",
"400 1256 OFFCURVE",
"658 1256 CURVE SMOOTH",
"782 1256 OFFCURVE",
"878 1208 OFFCURVE",
"976 1170 CURVE",
"996 1346 LINE",
"910 1392 OFFCURVE",
"782 1428 OFFCURVE",
"658 1428 CURVE SMOOTH",
"312 1428 OFFCURVE",
"60 1144 OFFCURVE",
"60 700 CURVE SMOOTH",
"60 256 OFFCURVE",
"312 -28 OFFCURVE",
"660 -28 CURVE SMOOTH"
);
}
);
width = 1048;
},
{
associatedMasterId = "3AF73D1F-32CE-4CF3-BC01-E4A23F7DE30A";
layerId = "686F58B5-3CDC-475F-BEF6-E71E12B9FDC0";
name = "Bold Condensed Sep 19 16, 18:47";
paths = (
{
closed = 1;
nodes = (
"776 -28 OFFCURVE",
"908 4 OFFCURVE",
"996 54 CURVE",
"968 298 LINE",
"866 252 OFFCURVE",
"776 218 OFFCURVE",
"648 218 CURVE SMOOTH",
"434 218 OFFCURVE",
"328 420 OFFCURVE",
"328 700 CURVE SMOOTH",
"328 980 OFFCURVE",
"434 1182 OFFCURVE",
"650 1182 CURVE SMOOTH",
"776 1182 OFFCURVE",
"866 1148 OFFCURVE",
"968 1102 CURVE",
"996 1346 LINE",
"906 1396 OFFCURVE",
"776 1428 OFFCURVE",
"650 1428 CURVE SMOOTH",
"308 1428 OFFCURVE",
"60 1140 OFFCURVE",
"60 700 CURVE SMOOTH",
"60 260 OFFCURVE",
"308 -28 OFFCURVE",
"648 -28 CURVE SMOOTH"
);
}
);
visible = 1;
width = 1048;
}
);
leftKerningGroup = O;
rightKerningGroup = C;
unicode = 0043;
},
{
glyphname = D;
layers = (
{
anchors = (
{
name = bottom;
position = "{728, 0}";
},
{
name = top;
position = "{728, 1400}";
}
);
layerId = UUID0;
paths = (
{
closed = 1;
nodes = (
"678 0 LINE SMOOTH",
"1084 0 OFFCURVE",
"1374 258 OFFCURVE",
"1374 700 CURVE SMOOTH",
"1374 1142 OFFCURVE",
"1084 1400 OFFCURVE",
"678 1400 CURVE SMOOTH",
"160 1400 LINE",
"160 0 LINE"
);
},
{
closed = 1;
nodes = (
"350 1228 LINE",
"678 1228 LINE SMOOTH",
"998 1228 OFFCURVE",
"1166 1014 OFFCURVE",
"1166 700 CURVE SMOOTH",
"1166 386 OFFCURVE",
"998 172 OFFCURVE",
"678 172 CURVE SMOOTH",
"350 172 LINE"
);
}
);
width = 1454;
},
{
anchors = (
{
name = bottom;
position = "{720, 0}";
},
{
name = top;
position = "{720, 1400}";
}
);
layerId = "7C863538-AAB4-42AD-A9FE-7240E615272A";
paths = (
{
closed = 1;
nodes = (
"678 0 LINE SMOOTH",
"1078 0 OFFCURVE",
"1368 260 OFFCURVE",
"1368 700 CURVE SMOOTH",
"1368 1140 OFFCURVE",
"1078 1400 OFFCURVE",
"678 1400 CURVE SMOOTH",
"154 1400 LINE",
"154 0 LINE"
);
},
{
closed = 1;
nodes = (
"410 1172 LINE",
"678 1172 LINE SMOOTH",
"950 1172 OFFCURVE",
"1088 992 OFFCURVE",
"1088 700 CURVE SMOOTH",
"1088 408 OFFCURVE",
"950 228 OFFCURVE",
"678 228 CURVE SMOOTH",
"410 228 LINE"
);
}
);
width = 1440;
},
{
associatedMasterId = UUID0;
layerId = "20165BC8-972E-4D11-8594-1DACCCE03DAD";
name = "Regular Sep 7 16, 14:04";
paths = (
{
closed = 1;
nodes = (
"678 0 LINE SMOOTH",
"1084 0 OFFCURVE",
"1374 258 OFFCURVE",
"1374 700 CURVE SMOOTH",
"1374 1142 OFFCURVE",
"1084 1400 OFFCURVE",
"678 1400 CURVE SMOOTH",
"160 1400 LINE",
"160 0 LINE"
);
},
{
closed = 1;
nodes = (
"350 1228 LINE",
"678 1228 LINE SMOOTH",
"998 1228 OFFCURVE",
"1166 1014 OFFCURVE",
"1166 700 CURVE SMOOTH",
"1166 386 OFFCURVE",
"998 172 OFFCURVE",
"678 172 CURVE SMOOTH",
"350 172 LINE"
);
}
);
width = 1454;
},
{
associatedMasterId = "7C863538-AAB4-42AD-A9FE-7240E615272A";
layerId = "0CD1B365-8845-4F30-8D31-56AB71C2AE76";
name = "Bold Sep 7 16, 14:04";
paths = (
{
closed = 1;
nodes = (
"678 0 LINE SMOOTH",
"1078 0 OFFCURVE",
"1368 260 OFFCURVE",
"1368 700 CURVE SMOOTH",
"1368 1140 OFFCURVE",
"1078 1400 OFFCURVE",
"678 1400 CURVE SMOOTH",
"154 1400 LINE",
"154 0 LINE"
);
},
{
closed = 1;
nodes = (
"410 1154 LINE",
"678 1154 LINE SMOOTH",
"950 1154 OFFCURVE",
"1088 980 OFFCURVE",
"1088 700 CURVE SMOOTH",
"1088 420 OFFCURVE",
"950 246 OFFCURVE",
"678 246 CURVE SMOOTH",
"410 246 LINE"
);
}
);
width = 1440;
},
{
anchors = (
{
name = bottom;
position = "{620, 0}";
},
{
name = top;
position = "{620, 1400}";
}
);
layerId = "A616F07E-65DE-4D07-A020-83605E49AA22";
paths = (
{
closed = 1;
nodes = (
"580 0 LINE SMOOTH",
"926 0 OFFCURVE",
"1176 258 OFFCURVE",
"1176 700 CURVE SMOOTH",
"1176 1142 OFFCURVE",
"926 1400 OFFCURVE",
"580 1400 CURVE SMOOTH",
"132 1400 LINE",
"132 0 LINE"
);
},
{
closed = 1;
nodes = (
"316 1232 LINE",
"548 1232 LINE SMOOTH",
"828 1232 OFFCURVE",
"972 1034 OFFCURVE",
"972 700 CURVE SMOOTH",
"972 366 OFFCURVE",
"828 168 OFFCURVE",
"548 168 CURVE SMOOTH",
"316 168 LINE"
);
}
);
width = 1238;
},
{
anchors = (
{
name = bottom;
position = "{620, 0}";
},
{
name = top;
position = "{620, 1400}";
}
);
layerId = "3AF73D1F-32CE-4CF3-BC01-E4A23F7DE30A";
paths = (
{
closed = 1;
nodes = (
"584 0 LINE SMOOTH",
"926 0 OFFCURVE",
"1176 260 OFFCURVE",
"1176 700 CURVE SMOOTH",
"1176 1140 OFFCURVE",
"926 1400 OFFCURVE",
"584 1400 CURVE SMOOTH",
"132 1400 LINE",
"132 0 LINE"
);
},
{
closed = 1;
nodes = (
"376 1176 LINE",
"584 1176 LINE SMOOTH",
"800 1176 OFFCURVE",
"908 994 OFFCURVE",
"908 700 CURVE SMOOTH",
"908 406 OFFCURVE",
"800 224 OFFCURVE",
"584 224 CURVE SMOOTH",
"376 224 LINE"
);
}
);
width = 1238;
},
{
associatedMasterId = "A616F07E-65DE-4D07-A020-83605E49AA22";
layerId = "47B96380-44A1-4DFF-8796-B746D3EF49BF";
name = "Condensed Sep 19 16, 18:47";
paths = (
{
closed = 1;
nodes = (
"580 0 LINE SMOOTH",
"926 0 OFFCURVE",
"1176 258 OFFCURVE",
"1176 700 CURVE SMOOTH",
"1176 1142 OFFCURVE",
"926 1400 OFFCURVE",
"580 1400 CURVE SMOOTH",
"132 1400 LINE",
"132 0 LINE"
);
},
{
closed = 1;
nodes = (
"320 1228 LINE",
"580 1228 LINE SMOOTH",
"838 1228 OFFCURVE",
"972 1014 OFFCURVE",
"972 700 CURVE SMOOTH",
"972 386 OFFCURVE",
"838 172 OFFCURVE",
"580 172 CURVE SMOOTH",
"320 172 LINE"
);
}
);
visible = 1;
width = 1238;
},
{
associatedMasterId = "3AF73D1F-32CE-4CF3-BC01-E4A23F7DE30A";
layerId = "9503D9EE-491A-450D-AAAD-D91D6F0A6203";
name = "Bold Condensed Sep 19 16, 18:47";
paths = (
{
closed = 1;
nodes = (
"584 0 LINE SMOOTH",
"926 0 OFFCURVE",
"1176 260 OFFCURVE",
"1176 700 CURVE SMOOTH",
"1176 1140 OFFCURVE",
"926 1400 OFFCURVE",
"584 1400 CURVE SMOOTH",
"132 1400 LINE",
"132 0 LINE"
);
},
{
closed = 1;
nodes = (
"376 1154 LINE",
"584 1154 LINE SMOOTH",
"800 1154 OFFCURVE",
"908 980 OFFCURVE",
"908 700 CURVE SMOOTH",
"908 420 OFFCURVE",
"800 246 OFFCURVE",
"584 246 CURVE SMOOTH",
"376 246 LINE"
);
}
);
width = 1238;
}
);
leftKerningGroup = I;
rightKerningGroup = D;
unicode = 0044;
},
{
glyphname = Eth;
layers = (
{
layerId = UUID0;
paths = (
{
closed = 1;
nodes = (
"688 0 LINE SMOOTH",
"1090 0 OFFCURVE",
"1378 258 OFFCURVE",
"1378 700 CURVE SMOOTH",
"1378 1142 OFFCURVE",
"1090 1400 OFFCURVE",
"688 1400 CURVE SMOOTH",
"176 1400 LINE",
"176 794 LINE",
"36 794 LINE",
"36 626 LINE",
"176 626 LINE",
"176 0 LINE"
);
},
{
closed = 1;
nodes = (
"356 626 LINE",
"622 626 LINE",
"622 794 LINE",
"356 794 LINE",
"356 1228 LINE",
"688 1228 LINE SMOOTH",
"1010 1228 OFFCURVE",
"1174 1018 OFFCURVE",
"1174 700 CURVE SMOOTH",
"1174 382 OFFCURVE",
"1010 174 OFFCURVE",
"688 174 CURVE SMOOTH",
"356 174 LINE"
);
}
);
width = 1458;
},
{
layerId = "7C863538-AAB4-42AD-A9FE-7240E615272A";
paths = (
{
closed = 1;
nodes = (
"700 0 LINE SMOOTH",
"1100 0 OFFCURVE",
"1390 260 OFFCURVE",
"1390 700 CURVE SMOOTH",
"1390 1140 OFFCURVE",
"1100 1400 OFFCURVE",
"700 1400 CURVE SMOOTH",
"176 1400 LINE",
"176 806 LINE",
"46 806 LINE",
"46 618 LINE",
"176 618 LINE",
"176 0 LINE"
);
},
{
closed = 1;
nodes = (
"432 618 LINE",
"676 618 LINE",
"676 806 LINE",
"432 806 LINE",
"432 1154 LINE",
"700 1154 LINE SMOOTH",
"972 1154 OFFCURVE",
"1110 980 OFFCURVE",
"1110 700 CURVE SMOOTH",
"1110 420 OFFCURVE",
"972 246 OFFCURVE",
"700 246 CURVE SMOOTH",
"432 246 LINE"
);
}
);
width = 1462;
},
{
layerId = "A616F07E-65DE-4D07-A020-83605E49AA22";
paths = (
{
closed = 1;
nodes = (
"588 0 LINE SMOOTH",
"934 0 OFFCURVE",
"1184 258 OFFCURVE",
"1184 700 CURVE SMOOTH",
"1184 1142 OFFCURVE",
"934 1400 OFFCURVE",
"588 1400 CURVE SMOOTH",
"144 1400 LINE",
"144 794 LINE",
"20 794 LINE",
"20 626 LINE",
"144 626 LINE",
"144 0 LINE"
);
},
{
closed = 1;
nodes = (
"328 626 LINE",
"566 626 LINE",
"566 794 LINE",
"328 794 LINE",
"328 1232 LINE",
"556 1232 LINE SMOOTH",
"836 1232 OFFCURVE",
"980 1034 OFFCURVE",
"980 700 CURVE SMOOTH",
"980 366 OFFCURVE",
"836 168 OFFCURVE",
"556 168 CURVE SMOOTH",
"328 168 LINE"
);
}
);
width = 1246;
},
{
layerId = "3AF73D1F-32CE-4CF3-BC01-E4A23F7DE30A";
paths = (
{
closed = 1;
nodes = (
"596 0 LINE SMOOTH",
"938 0 OFFCURVE",
"1188 260 OFFCURVE",
"1188 700 CURVE SMOOTH",
"1188 1140 OFFCURVE",
"938 1400 OFFCURVE",
"596 1400 CURVE SMOOTH",
"144 1400 LINE",
"144 806 LINE",
"28 806 LINE",
"28 598 LINE",
"144 598 LINE",
"144 0 LINE"
);
},
{
closed = 1;
nodes = (
"388 598 LINE",
"604 598 LINE",
"604 806 LINE",
"388 806 LINE",
"388 1176 LINE",
"596 1176 LINE SMOOTH",
"812 1176 OFFCURVE",
"920 994 OFFCURVE",
"920 700 CURVE SMOOTH",
"920 406 OFFCURVE",
"812 224 OFFCURVE",
"596 224 CURVE SMOOTH",
"388 224 LINE"
);
}
);
width = 1250;
},
{
associatedMasterId = "A616F07E-65DE-4D07-A020-83605E49AA22";
layerId = "558D31DE-1E7C-47DB-997A-3DE7DC0C661F";
name = "Condensed Sep 22 16, 01:19";
paths = (
{
closed = 1;
nodes = (
"602 0 LINE SMOOTH",
"946 0 OFFCURVE",
"1196 258 OFFCURVE",
"1196 700 CURVE SMOOTH",
"1196 1142 OFFCURVE",
"946 1400 OFFCURVE",
"602 1400 CURVE SMOOTH",
"158 1400 LINE",
"158 754 LINE",
"-6 754 LINE",
"-6 626 LINE",
"158 626 LINE",
"158 0 LINE"
);
},
{
closed = 1;
nodes = (
"340 626 LINE",
"560 626 LINE",
"560 754 LINE",
"340 754 LINE",
"340 1228 LINE",
"602 1228 LINE SMOOTH",
"860 1228 OFFCURVE",
"992 1018 OFFCURVE",
"992 700 CURVE SMOOTH",
"992 382 OFFCURVE",
"860 174 OFFCURVE",
"602 174 CURVE SMOOTH",
"340 174 LINE"
);
}
);
width = 1258;
},
{
associatedMasterId = "3AF73D1F-32CE-4CF3-BC01-E4A23F7DE30A";
layerId = "EDF0C179-36C5-4E0A-BD7D-7E86C7335F92";
name = "Bold Condensed Sep 22 16, 01:19";
paths = (
{
closed = 1;
nodes = (
"602 0 LINE SMOOTH",
"944 0 OFFCURVE",
"1196 260 OFFCURVE",
"1196 700 CURVE SMOOTH",
"1196 1140 OFFCURVE",
"944 1400 OFFCURVE",
"602 1400 CURVE SMOOTH",
"146 1400 LINE",
"146 786 LINE",
"-8 786 LINE",
"-8 598 LINE",
"146 598 LINE",
"146 0 LINE"
);
},
{
closed = 1;
nodes = (
"394 598 LINE",
"596 598 LINE",
"596 786 LINE",
"394 786 LINE",
"394 1154 LINE",
"602 1154 LINE SMOOTH",
"816 1154 OFFCURVE",
"926 980 OFFCURVE",
"926 700 CURVE SMOOTH",
"926 420 OFFCURVE",
"816 246 OFFCURVE",
"602 246 CURVE SMOOTH",
"394 246 LINE"
);
}
);
visible = 1;
width = 1258;
}
);
leftKerningGroup = I;
rightKerningGroup = D;
rightMetricsKey = D;
unicode = 00D0;
},
{
glyphname = E;
layers = (
{
anchors = (
{
name = bottom;
position = "{612, 0}";
},
{
name = ogonek;
position = "{976, 0}";
},
{
name = top;
position = "{608, 1400}";
}
);
layerId = UUID0;
paths = (
{
closed = 1;
nodes = (
"1032 0 LINE",
"1032 172 LINE",
"350 172 LINE",
"350 646 LINE",
"878 646 LINE",
"878 818 LINE",
"350 818 LINE",
"350 1228 LINE",
"1014 1228 LINE",
"1014 1400 LINE",
"160 1400 LINE",
"160 0 LINE"
);
}
);
width = 1108;
},
{
anchors = (
{
name = bottom;
position = "{626, 0}";
},
{
name = ogonek;
position = "{1006, 0}";
},
{
name = top;
position = "{622, 1400}";
}
);
layerId = "7C863538-AAB4-42AD-A9FE-7240E615272A";
paths = (
{
closed = 1;
nodes = (
"1070 0 LINE",
"1070 248 LINE",
"416 248 LINE",
"416 606 LINE",
"908 606 LINE",
"908 854 LINE",
"416 854 LINE",
"416 1152 LINE",
"1050 1152 LINE",
"1050 1400 LINE",
"154 1400 LINE",
"154 0 LINE"
);
}
);
width = 1136;
},
{
anchors = (
{
name = bottom;
position = "{554, 0}";
},
{
name = ogonek;
position = "{998, 20}";
},
{
name = top;
position = "{554, 1400}";
},
{
name = topleft;
position = "{40, 1400}";
}
);
associatedMasterId = UUID0;
layerId = "6572534E-2564-493C-8287-B859A68B1265";
name = "Regular Sep 7 16, 14:04";
paths = (
{
closed = 1;
nodes = (
"1032 0 LINE",
"1032 172 LINE",
"350 172 LINE",
"350 646 LINE",
"878 646 LINE",
"878 818 LINE",
"350 818 LINE",
"350 1228 LINE",
"1014 1228 LINE",
"1014 1400 LINE",
"160 1400 LINE",
"160 0 LINE"
);
}
);
width = 1108;
},
{
anchors = (
{
name = bottom;
position = "{568, 0}";
},
{
name = ogonek;
position = "{1022, 20}";
},
{
name = top;
position = "{568, 1400}";
},
{
name = topleft;
position = "{40, 1400}";
}
);
associatedMasterId = "7C863538-AAB4-42AD-A9FE-7240E615272A";
layerId = "7A44D41B-0C99-4E6A-A9E7-F158AA67CFF5";
name = "Bold Sep 7 16, 14:04";
paths = (
{
closed = 1;
nodes = (
"1070 0 LINE",
"1070 248 LINE",
"416 248 LINE",
"416 606 LINE",
"908 606 LINE",
"908 854 LINE",
"416 854 LINE",
"416 1152 LINE",
"1050 1152 LINE",
"1050 1400 LINE",
"154 1400 LINE",
"154 0 LINE"
);
}
);
width = 1136;
},
{
anchors = (
{
name = bottom;
position = "{516, 0}";
},
{
name = ogonek;
position = "{842, 0}";
},
{
name = top;
position = "{508, 1400}";
}
);
layerId = "A616F07E-65DE-4D07-A020-83605E49AA22";
paths = (
{
closed = 1;
nodes = (
"898 0 LINE",
"898 168 LINE",
"316 168 LINE",
"316 648 LINE",
"762 648 LINE",
"762 816 LINE",
"316 816 LINE",
"316 1232 LINE",
"882 1232 LINE",
"882 1400 LINE",
"132 1400 LINE",
"132 0 LINE"
);
}
);
width = 956;
},
{
anchors = (
{
name = bottom;
position = "{534, 0}";
},
{
name = ogonek;
position = "{872, 0}";
},
{
name = top;
position = "{526, 1400}";
}
);
layerId = "3AF73D1F-32CE-4CF3-BC01-E4A23F7DE30A";
paths = (
{
closed = 1;
nodes = (
"936 0 LINE",
"936 224 LINE",
"376 224 LINE",
"376 622 LINE",
"794 622 LINE",
"794 846 LINE",
"376 846 LINE",
"376 1176 LINE",
"918 1176 LINE",
"918 1400 LINE",
"132 1400 LINE",
"132 0 LINE"
);
}
);
width = 994;
},
{
anchors = (
{
name = bottom;
position = "{478, 0}";
},
{
name = ogonek;
position = "{860, 20}";
},
{
name = top;
position = "{478, 1400}";
},
{
name = topleft;
position = "{40, 1400}";
}
);
associatedMasterId = "A616F07E-65DE-4D07-A020-83605E49AA22";
layerId = "301DB540-B3BC-4A21-A951-8D55E98D5464";
name = "Condensed Sep 19 16, 18:47";
paths = (
{
closed = 1;
nodes = (
"898 0 LINE",
"898 172 LINE",
"322 172 LINE",
"322 646 LINE",
"762 646 LINE",
"762 818 LINE",
"322 818 LINE",
"322 1228 LINE",
"882 1228 LINE",
"882 1400 LINE",
"132 1400 LINE",
"132 0 LINE"
);
}
);
width = 956;
},
{
anchors = (
{
name = bottom;
position = "{498, 0}";
},
{
name = ogonek;
position = "{894, 20}";
},
{
name = top;
position = "{498, 1400}";
},
{
name = topleft;
position = "{40, 1400}";
}
);
associatedMasterId = "3AF73D1F-32CE-4CF3-BC01-E4A23F7DE30A";
layerId = "6B45350E-CB9D-45A2-B2D4-3FC846F0067C";
name = "Bold Condensed Sep 19 16, 18:47";
paths = (
{
closed = 1;
nodes = (
"936 0 LINE",
"936 248 LINE",
"384 248 LINE",
"384 606 LINE",
"794 606 LINE",
"794 854 LINE",
"384 854 LINE",
"384 1152 LINE",
"918 1152 LINE",
"918 1400 LINE",
"132 1400 LINE",
"132 0 LINE"
);
}
);
visible = 1;
width = 994;
}
);
leftKerningGroup = E;
rightKerningGroup = E;
unicode = 0045;
},
{
glyphname = F;
layers = (
{
layerId = UUID0;
paths = (
{
closed = 1;
nodes = (
"350 0 LINE",
"350 646 LINE",
"862 646 LINE",
"862 818 LINE",
"350 818 LINE",
"350 1228 LINE",
"1014 1228 LINE",
"1014 1400 LINE",
"160 1400 LINE",
"160 0 LINE"
);
}
);
width = 1046;
},
{
layerId = "7C863538-AAB4-42AD-A9FE-7240E615272A";
paths = (
{
closed = 1;
nodes = (
"410 0 LINE",
"410 606 LINE",
"878 606 LINE",
"878 854 LINE",
"410 854 LINE",
"410 1152 LINE",
"1016 1152 LINE",
"1016 1400 LINE",
"154 1400 LINE",
"154 0 LINE"
);
}
);
width = 1050;
},
{
associatedMasterId = UUID0;
layerId = "62AB85F9-D82F-4A91-AB0B-AA8D9B0B4467";
name = "Regular Sep 7 16, 14:04";
paths = (
{
closed = 1;
nodes = (
"350 0 LINE",
"350 646 LINE",
"862 646 LINE",
"862 818 LINE",
"350 818 LINE",
"350 1228 LINE",
"1014 1228 LINE",
"1014 1400 LINE",
"160 1400 LINE",
"160 0 LINE"
);
}
);
width = 1046;
},
{
associatedMasterId = "7C863538-AAB4-42AD-A9FE-7240E615272A";
layerId = "02F23E96-E931-4C2E-926A-E3A9274AAADD";
name = "Bold Sep 7 16, 14:04";
paths = (
{
closed = 1;
nodes = (
"410 0 LINE",
"410 606 LINE",
"878 606 LINE",
"878 854 LINE",
"410 854 LINE",
"410 1152 LINE",
"1016 1152 LINE",
"1016 1400 LINE",
"154 1400 LINE",
"154 0 LINE"
);
}
);
width = 1050;
},
{
layerId = "A616F07E-65DE-4D07-A020-83605E49AA22";
paths = (
{
closed = 1;
nodes = (
"316 0 LINE",
"316 650 LINE",
"744 650 LINE",
"744 818 LINE",
"316 818 LINE",
"316 1232 LINE",
"870 1232 LINE",
"870 1400 LINE",
"132 1400 LINE",
"132 0 LINE"
);
}
);
width = 900;
},
{
layerId = "3AF73D1F-32CE-4CF3-BC01-E4A23F7DE30A";
paths = (
{
closed = 1;
nodes = (
"376 0 LINE",
"376 622 LINE",
"762 622 LINE",
"762 846 LINE",
"376 846 LINE",
"376 1176 LINE",
"876 1176 LINE",
"876 1400 LINE",
"132 1400 LINE",
"132 0 LINE"
);
}
);
width = 906;
},
{
associatedMasterId = "A616F07E-65DE-4D07-A020-83605E49AA22";
layerId = "760CA6BD-B248-4B91-9CCA-18BA5E50BEDA";
name = "Condensed Sep 19 16, 18:47";
paths = (
{
closed = 1;
nodes = (
"320 0 LINE",
"320 646 LINE",
"744 646 LINE",
"744 818 LINE",
"320 818 LINE",
"320 1228 LINE",
"870 1228 LINE",
"870 1400 LINE",
"132 1400 LINE",
"132 0 LINE"
);
}
);
width = 900;
},
{
associatedMasterId = "3AF73D1F-32CE-4CF3-BC01-E4A23F7DE30A";
layerId = "CF4BC89F-E23D-44E5-9EA1-58CD3B26B671";
name = "Bold Condensed Sep 19 16, 18:47";
paths = (
{
closed = 1;
nodes = (
"376 0 LINE",
"376 606 LINE",
"762 606 LINE",
"762 854 LINE",
"376 854 LINE",
"376 1152 LINE",
"876 1152 LINE",
"876 1400 LINE",
"132 1400 LINE",
"132 0 LINE"
);
}
);
visible = 1;
width = 906;
}
);
leftKerningGroup = I;
unicode = 0046;
},
{
glyphname = G;
layers = (
{
anchors = (
{
name = bottom;
position = "{792, 0}";
},
{
name = top;
position = "{806, 1400}";
}
);
layerId = UUID0;
paths = (
{
closed = 1;
nodes = (
"966 -28 OFFCURVE",
"1132 18 OFFCURVE",
"1242 78 CURVE",
"1242 702 LINE",
"832 702 LINE",
"832 530 LINE",
"1052 530 LINE",
"1052 182 LINE",
"978 152 OFFCURVE",
"878 144 OFFCURVE",
"818 144 CURVE SMOOTH",
"454 144 OFFCURVE",
"286 380 OFFCURVE",
"286 700 CURVE SMOOTH",
"286 1010 OFFCURVE",
"450 1256 OFFCURVE",
"808 1256 CURVE SMOOTH",
"946 1256 OFFCURVE",
"1068 1224 OFFCURVE",
"1178 1182 CURVE",
"1196 1348 LINE",
"1094 1392 OFFCURVE",
"952 1428 OFFCURVE",
"802 1428 CURVE SMOOTH",
"382 1428 OFFCURVE",
"78 1144 OFFCURVE",
"78 702 CURVE SMOOTH",
"78 256 OFFCURVE",
"376 -28 OFFCURVE",
"764 -28 CURVE SMOOTH"
);
}
);
width = 1344;
},
{
anchors = (
{
name = bottom;
position = "{782, 0}";
},
{
name = top;
position = "{802, 1400}";
}
);
layerId = "7C863538-AAB4-42AD-A9FE-7240E615272A";
paths = (
{
closed = 1;
nodes = (
"968 -28 OFFCURVE",
"1136 20 OFFCURVE",
"1234 78 CURVE",
"1234 702 LINE",
"786 702 LINE",
"786 490 LINE",
"978 490 LINE",
"978 240 LINE",
"910 226 OFFCURVE",
"844 218 OFFCURVE",
"786 218 CURVE SMOOTH",
"496 218 OFFCURVE",
"350 420 OFFCURVE",
"350 706 CURVE SMOOTH",
"350 978 OFFCURVE",
"490 1182 OFFCURVE",
"802 1182 CURVE SMOOTH",
"938 1182 OFFCURVE",
"1060 1148 OFFCURVE",
"1160 1102 CURVE",
"1188 1346 LINE",
"1092 1394 OFFCURVE",
"950 1428 OFFCURVE",
"802 1428 CURVE SMOOTH",
"372 1428 OFFCURVE",
"70 1140 OFFCURVE",
"70 702 CURVE SMOOTH",
"70 260 OFFCURVE",
"332 -28 OFFCURVE",
"776 -28 CURVE SMOOTH"
);
}
);
width = 1328;
},
{
associatedMasterId = UUID0;
layerId = "BDE03F8A-8627-49DC-B543-247E591A9FAF";
name = "Regular Sep 7 16, 14:04";
paths = (
{
closed = 1;
nodes = (
"924 -28 OFFCURVE",
"1132 20 OFFCURVE",
"1242 78 CURVE",
"1242 702 LINE",
"832 702 LINE",
"832 530 LINE",
"1052 530 LINE",
"1052 182 LINE",
"978 152 OFFCURVE",
"878 144 OFFCURVE",
"818 144 CURVE SMOOTH",
"454 144 OFFCURVE",
"286 380 OFFCURVE",
"286 700 CURVE SMOOTH",
"286 1010 OFFCURVE",
"444 1256 OFFCURVE",
"786 1256 CURVE SMOOTH",
"914 1256 OFFCURVE",
"1062 1222 OFFCURVE",
"1178 1182 CURVE",
"1196 1348 LINE",
"1090 1394 OFFCURVE",
"920 1428 OFFCURVE",
"780 1428 CURVE SMOOTH",
"372 1428 OFFCURVE",
"78 1144 OFFCURVE",
"78 702 CURVE SMOOTH",
"78 256 OFFCURVE",
"376 -28 OFFCURVE",
"764 -28 CURVE"
);
}
);
width = 1344;
},
{
associatedMasterId = "7C863538-AAB4-42AD-A9FE-7240E615272A";
layerId = "401FEB8B-E2D8-4409-AE40-D8A8EF6CDAD1";
name = "Bold Sep 7 16, 14:04";
paths = (
{
closed = 1;
nodes = (
"914 -28 OFFCURVE",
"1132 20 OFFCURVE",
"1234 78 CURVE",
"1234 702 LINE",
"824 702 LINE",
"824 490 LINE",
"978 490 LINE",
"978 240 LINE",
"910 226 OFFCURVE",
"844 218 OFFCURVE",
"786 218 CURVE SMOOTH",
"496 218 OFFCURVE",
"350 420 OFFCURVE",
"350 706 CURVE SMOOTH",
"350 978 OFFCURVE",
"482 1182 OFFCURVE",
"774 1182 CURVE SMOOTH",
"898 1182 OFFCURVE",
"1052 1146 OFFCURVE",
"1160 1102 CURVE",
"1188 1346 LINE",
"1086 1396 OFFCURVE",
"904 1428 OFFCURVE",
"768 1428 CURVE SMOOTH",
"358 1428 OFFCURVE",
"70 1140 OFFCURVE",
"70 702 CURVE SMOOTH",
"70 260 OFFCURVE",
"362 -28 OFFCURVE",
"754 -28 CURVE"
);
}
);
width = 1328;
},
{
anchors = (
{
name = bottom;
position = "{722, 0}";
},
{
name = top;
position = "{700, 1400}";
}
);
layerId = "A616F07E-65DE-4D07-A020-83605E49AA22";
paths = (
{
closed = 1;
nodes = (
"844 -28 OFFCURVE",
"974 8 OFFCURVE",
"1062 64 CURVE",
"1062 702 LINE",
"700 702 LINE",
"700 534 LINE",
"878 534 LINE",
"878 168 LINE",
"836 150 OFFCURVE",
"782 140 OFFCURVE",
"726 140 CURVE SMOOTH",
"414 140 OFFCURVE",
"264 378 OFFCURVE",
"264 700 CURVE SMOOTH",
"264 1012 OFFCURVE",
"424 1260 OFFCURVE",
"728 1260 CURVE SMOOTH",
"838 1260 OFFCURVE",
"920 1236 OFFCURVE",
"1002 1196 CURVE",
"1022 1368 LINE",
"938 1404 OFFCURVE",
"838 1428 OFFCURVE",
"710 1428 CURVE SMOOTH",
"334 1428 OFFCURVE",
"60 1144 OFFCURVE",
"60 700 CURVE SMOOTH",
"60 276 OFFCURVE",
"306 -28 OFFCURVE",
"716 -28 CURVE SMOOTH"
);
}
);
width = 1142;
},
{
anchors = (
{
name = bottom;
position = "{696, 0}";
},
{
name = top;
position = "{690, 1400}";
}
);
layerId = "3AF73D1F-32CE-4CF3-BC01-E4A23F7DE30A";
paths = (
{
closed = 1;
nodes = (
"838 -28 OFFCURVE",
"974 12 OFFCURVE",
"1062 74 CURVE",
"1062 702 LINE",
"658 702 LINE",
"658 478 LINE",
"818 478 LINE",
"818 236 LINE",
"784 224 OFFCURVE",
"742 218 OFFCURVE",
"706 218 CURVE SMOOTH",
"458 218 OFFCURVE",
"328 396 OFFCURVE",
"328 700 CURVE SMOOTH",
"328 1000 OFFCURVE",
"476 1182 OFFCURVE",
"726 1182 CURVE SMOOTH",
"832 1182 OFFCURVE",
"908 1154 OFFCURVE",
"994 1118 CURVE",
"1022 1362 LINE",
"936 1400 OFFCURVE",
"828 1428 OFFCURVE",
"694 1428 CURVE SMOOTH",
"332 1428 OFFCURVE",
"60 1150 OFFCURVE",
"60 700 CURVE SMOOTH",
"60 260 OFFCURVE",
"310 -28 OFFCURVE",
"684 -28 CURVE SMOOTH"
);
}
);
width = 1142;
},
{
associatedMasterId = "A616F07E-65DE-4D07-A020-83605E49AA22";
layerId = "A40C96A4-9DE4-40F9-A8EC-63E03A533237";
name = "Condensed Sep 19 16, 18:47";
paths = (
{
closed = 1;
nodes = (
"786 -28 OFFCURVE",
"970 20 OFFCURVE",
"1062 78 CURVE",
"1062 702 LINE",
"708 702 LINE",
"708 530 LINE",
"874 530 LINE",
"874 182 LINE",
"812 152 OFFCURVE",
"738 144 OFFCURVE",
"688 144 CURVE SMOOTH",
"402 144 OFFCURVE",
"264 380 OFFCURVE",
"264 700 CURVE SMOOTH",
"264 1010 OFFCURVE",
"392 1256 OFFCURVE",
"668 1256 CURVE SMOOTH",
"776 1256 OFFCURVE",
"906 1222 OFFCURVE",
"1002 1182 CURVE",
"1022 1348 LINE",
"932 1394 OFFCURVE",
"782 1428 OFFCURVE",
"662 1428 CURVE SMOOTH",
"310 1428 OFFCURVE",
"60 1144 OFFCURVE",
"60 702 CURVE SMOOTH",
"60 256 OFFCURVE",
"314 -28 OFFCURVE",
"650 -28 CURVE SMOOTH",
"650 -28 LINE"
);
}
);
width = 1142;
},
{
associatedMasterId = "3AF73D1F-32CE-4CF3-BC01-E4A23F7DE30A";
layerId = "D6080416-4650-409E-B9F4-5088D84C2F0E";
name = "Bold Condensed Sep 19 16, 18:47";
paths = (
{
closed = 1;
nodes = (
"786 -28 OFFCURVE",
"976 20 OFFCURVE",
"1062 78 CURVE",
"1062 702 LINE",
"708 702 LINE",
"708 490 LINE",
"816 490 LINE",
"816 240 LINE",
"760 226 OFFCURVE",
"716 218 OFFCURVE",
"666 218 CURVE SMOOTH",
"444 218 OFFCURVE",
"328 420 OFFCURVE",
"328 706 CURVE SMOOTH",
"328 978 OFFCURVE",
"432 1182 OFFCURVE",
"664 1182 CURVE SMOOTH",
"770 1182 OFFCURVE",
"904 1146 OFFCURVE",
"994 1102 CURVE",
"1022 1346 LINE",
"936 1396 OFFCURVE",
"774 1428 OFFCURVE",
"658 1428 CURVE SMOOTH",
"306 1428 OFFCURVE",
"60 1140 OFFCURVE",
"60 702 CURVE SMOOTH",
"60 260 OFFCURVE",
"308 -28 OFFCURVE",
"648 -28 CURVE SMOOTH",
"648 -28 LINE"
);
}
);
visible = 1;
width = 1142;
}
);
leftKerningGroup = O;
unicode = 0047;
},
{
glyphname = H;
layers = (
{
anchors = (
{
name = bottom;
position = "{706, 0}";
},
{
name = top;
position = "{706, 1400}";
}
);
layerId = UUID0;
paths = (
{
closed = 1;
nodes = (
"350 0 LINE",
"350 642 LINE",
"1062 642 LINE",
"1062 0 LINE",
"1252 0 LINE",
"1252 1400 LINE",
"1062 1400 LINE",
"1062 822 LINE",
"350 822 LINE",
"350 1400 LINE",
"160 1400 LINE",
"160 0 LINE"
);
}
);
width = 1412;
},
{
anchors = (
{
name = bottom;
position = "{730, 0}";
},
{
name = top;
position = "{730, 1400}";
}
);
layerId = "7C863538-AAB4-42AD-A9FE-7240E615272A";
paths = (
{
closed = 1;
nodes = (
"410 0 LINE",
"410 606 LINE",
"1050 606 LINE",
"1050 0 LINE",
"1306 0 LINE",
"1306 1400 LINE",
"1050 1400 LINE",
"1050 846 LINE",
"410 846 LINE",
"410 1400 LINE",
"154 1400 LINE",
"154 0 LINE"
);
}
);
width = 1460;
},
{
associatedMasterId = UUID0;
layerId = "135CE4C9-E666-471E-8D69-B4D1AB87DF32";
name = "Regular Sep 7 16, 14:04";
paths = (
{
closed = 1;
nodes = (
"350 0 LINE",
"350 642 LINE",
"1142 642 LINE",
"1142 0 LINE",
"1332 0 LINE",
"1332 1400 LINE",
"1142 1400 LINE",
"1142 822 LINE",
"350 822 LINE",
"350 1400 LINE",
"160 1400 LINE",
"160 0 LINE"
);
}
);
width = 1492;
},
{
associatedMasterId = "7C863538-AAB4-42AD-A9FE-7240E615272A";
layerId = "8B90DC92-B609-4AF1-85A2-CB596AED2038";
name = "Bold Sep 7 16, 14:04";
paths = (
{
closed = 1;
nodes = (
"410 0 LINE",
"410 606 LINE",
"1070 606 LINE",
"1070 0 LINE",
"1326 0 LINE",
"1326 1400 LINE",
"1070 1400 LINE",
"1070 854 LINE",
"410 854 LINE",
"410 1400 LINE",
"154 1400 LINE",
"154 0 LINE"
);
}
);
width = 1480;
},
{
anchors = (
{
name = bottom;
position = "{636, 0}";
},
{
name = top;
position = "{636, 1400}";
}
);
layerId = "A616F07E-65DE-4D07-A020-83605E49AA22";
paths = (
{
closed = 1;
nodes = (
"316 0 LINE",
"316 642 LINE",
"956 642 LINE",
"956 0 LINE",
"1140 0 LINE",
"1140 1400 LINE",
"956 1400 LINE",
"956 822 LINE",
"316 822 LINE",
"316 1400 LINE",
"132 1400 LINE",
"132 0 LINE"
);
}
);
width = 1272;
},
{
anchors = (
{
name = bottom;
position = "{636, 0}";
},
{
name = top;
position = "{636, 1400}";
}
);
layerId = "3AF73D1F-32CE-4CF3-BC01-E4A23F7DE30A";
paths = (
{
closed = 1;
nodes = (
"376 0 LINE",
"376 606 LINE",
"896 606 LINE",
"896 0 LINE",
"1140 0 LINE",
"1140 1400 LINE",
"896 1400 LINE",
"896 846 LINE",
"376 846 LINE",
"376 1400 LINE",
"132 1400 LINE",
"132 0 LINE"
);
}
);
width = 1272;
},
{
associatedMasterId = "A616F07E-65DE-4D07-A020-83605E49AA22";
layerId = "1DF4F557-6FCA-4FC6-92F7-01963A898674";
name = "Condensed Sep 19 16, 18:47";
paths = (
{
closed = 1;
nodes = (
"320 0 LINE",
"320 642 LINE",
"952 642 LINE",
"952 0 LINE",
"1140 0 LINE",
"1140 1400 LINE",
"952 1400 LINE",
"952 822 LINE",
"320 822 LINE",
"320 1400 LINE",
"132 1400 LINE",
"132 0 LINE"
);
}
);
width = 1272;
},
{
associatedMasterId = "3AF73D1F-32CE-4CF3-BC01-E4A23F7DE30A";
layerId = "4A078F13-65E8-4ACD-9D96-7EF27F394791";
name = "Bold Condensed Sep 19 16, 18:47";
paths = (
{
closed = 1;
nodes = (
"376 0 LINE",
"376 606 LINE",
"896 606 LINE",
"896 0 LINE",
"1140 0 LINE",
"1140 1400 LINE",
"896 1400 LINE",
"896 854 LINE",
"376 854 LINE",
"376 1400 LINE",
"132 1400 LINE",
"132 0 LINE"
);
}
);
width = 1272;
}
);
leftKerningGroup = I;
rightKerningGroup = I;
unicode = 0048;
},
{
glyphname = Hbar;
layers = (
{
layerId = UUID0;
paths = (
{
closed = 1;
nodes = (
"350 0 LINE",
"350 642 LINE",
"1142 642 LINE",
"1142 0 LINE",
"1332 0 LINE",
"1332 1400 LINE",
"1142 1400 LINE",
"1142 822 LINE",
"350 822 LINE",
"350 1400 LINE",
"160 1400 LINE",
"160 0 LINE"
);
},
{
closed = 1;
nodes = (
"1472 1000 LINE",
"1472 1128 LINE",
"20 1128 LINE",
"20 1000 LINE"
);
}
);
width = 1492;
},
{
layerId = "7C863538-AAB4-42AD-A9FE-7240E615272A";
paths = (
{
closed = 1;
nodes = (
"410 0 LINE",
"410 606 LINE",
"1070 606 LINE",
"1070 0 LINE",
"1326 0 LINE",
"1326 1400 LINE",
"1070 1400 LINE",
"1070 854 LINE",
"410 854 LINE",
"410 1400 LINE",
"154 1400 LINE",
"154 0 LINE"
);
},
{
closed = 1;
nodes = (
"1456 972 LINE",
"1456 1160 LINE",
"24 1160 LINE",
"24 972 LINE"
);
}
);
width = 1480;
},
{
layerId = "A616F07E-65DE-4D07-A020-83605E49AA22";
paths = (
{
closed = 1;
nodes = (
"324 0 LINE",
"324 642 LINE",
"964 642 LINE",
"964 0 LINE",
"1148 0 LINE",
"1148 1400 LINE",
"964 1400 LINE",
"964 822 LINE",
"324 822 LINE",
"324 1400 LINE",
"140 1400 LINE",
"140 0 LINE"
);
},
{
closed = 1;
nodes = (
"1268 1002 LINE",
"1268 1126 LINE",
"20 1126 LINE",
"20 1002 LINE"
);
}
);
width = 1288;
},
{
layerId = "3AF73D1F-32CE-4CF3-BC01-E4A23F7DE30A";
paths = (
{
closed = 1;
nodes = (
"394 0 LINE",
"394 606 LINE",
"914 606 LINE",
"914 0 LINE",
"1158 0 LINE",
"1158 1400 LINE",
"914 1400 LINE",
"914 846 LINE",
"394 846 LINE",
"394 1400 LINE",
"150 1400 LINE",
"150 0 LINE"
);
},
{
closed = 1;
nodes = (
"1268 976 LINE",
"1268 1156 LINE",
"40 1156 LINE",
"40 976 LINE"
);
}
);
width = 1308;
}
);
unicode = 0126;
},
{
glyphname = I;
layers = (
{
anchors = (
{
name = bottom;
position = "{256, 0}";
},
{
name = ogonek;
position = "{294, 0}";
},
{
name = top;
position = "{256, 1400}";
}
);
layerId = UUID0;
paths = (
{
closed = 1;
nodes = (
"350 0 LINE",
"350 1400 LINE",
"160 1400 LINE",
"160 0 LINE"
);
}
);
width = 510;
},
{
anchors = (
{
name = bottom;
position = "{282, 0}";
},
{
name = ogonek;
position = "{346, 0}";
},
{
name = top;
position = "{282, 1400}";
}
);
layerId = "7C863538-AAB4-42AD-A9FE-7240E615272A";
paths = (
{
closed = 1;
nodes = (
"410 0 LINE",
"410 1400 LINE",
"154 1400 LINE",
"154 0 LINE"
);
}
);
width = 564;
},
{
anchors = (
{
name = bottom;
position = "{256, 0}";
},
{
name = ogonek;
position = "{458, 20}";
},
{
name = top;
position = "{256, 1400}";
},
{
name = topleft;
position = "{40, 1400}";
}
);
associatedMasterId = UUID0;
layerId = "525849ED-7B67-43BA-B88C-4FEAA2A33F2B";
name = "Regular Sep 7 16, 14:04";
paths = (
{
closed = 1;
nodes = (
"350 0 LINE",
"350 1400 LINE",
"160 1400 LINE",
"160 0 LINE"
);
}
);
width = 510;
},
{
anchors = (
{
name = bottom;
position = "{282, 0}";
},
{
name = ogonek;
position = "{508, 20}";
},
{
name = top;
position = "{282, 1400}";
},
{
name = topleft;
position = "{40, 1400}";
}
);
associatedMasterId = "7C863538-AAB4-42AD-A9FE-7240E615272A";
layerId = "A4761CCA-F82F-4BD9-80FB-ADDE81172851";
name = "Bold Sep 7 16, 14:04";
paths = (
{
closed = 1;
nodes = (
"410 0 LINE",
"410 1400 LINE",
"154 1400 LINE",
"154 0 LINE"
);
}
);
width = 564;
},
{
anchors = (
{
name = bottom;
position = "{240, 0}";
},
{
name = ogonek;
position = "{276, 0}";
},
{
name = top;
position = "{240, 1400}";
}
);
layerId = "A616F07E-65DE-4D07-A020-83605E49AA22";
paths = (
{
closed = 1;
nodes = (
"332 0 LINE",
"332 1400 LINE",
"148 1400 LINE",
"148 0 LINE"
);
}
);
width = 480;
},
{
anchors = (
{
name = bottom;
position = "{242, 0}";
},
{
name = ogonek;
position = "{300, 0}";
},
{
name = top;
position = "{242, 1400}";
}
);
layerId = "3AF73D1F-32CE-4CF3-BC01-E4A23F7DE30A";
paths = (
{
closed = 1;
nodes = (
"364 0 LINE",
"364 1400 LINE",
"120 1400 LINE",
"120 0 LINE"
);
}
);
width = 484;
},
{
anchors = (
{
name = bottom;
position = "{244, 0}";
},
{
name = ogonek;
position = "{438, 20}";
},
{
name = top;
position = "{244, 1400}";
},
{
name = topleft;
position = "{40, 1400}";
}
);
associatedMasterId = "A616F07E-65DE-4D07-A020-83605E49AA22";
layerId = "77C56CFF-3C00-493E-8BD1-850739F5F889";
name = "Condensed Sep 19 16, 18:47";
paths = (
{
closed = 1;
nodes = (
"336 0 LINE",
"336 1400 LINE",
"148 1400 LINE",
"148 0 LINE"
);
}
);
width = 486;
},
{
anchors = (
{
name = bottom;
position = "{242, 0}";
},
{
name = ogonek;
position = "{436, 20}";
},
{
name = top;
position = "{242, 1400}";
},
{
name = topleft;
position = "{40, 1400}";
}
);
associatedMasterId = "3AF73D1F-32CE-4CF3-BC01-E4A23F7DE30A";
layerId = "EF6F7E2D-01EE-470D-B2B2-1EA707C8FE5F";
name = "Bold Condensed Sep 19 16, 18:47";
paths = (
{
closed = 1;
nodes = (
"364 0 LINE",
"364 1400 LINE",
"120 1400 LINE",
"120 0 LINE"
);
}
);
width = 484;
}
);
leftKerningGroup = I;
rightKerningGroup = I;
unicode = 0049;
},
{
glyphname = IJ;
layers = (
{
layerId = UUID0;
paths = (
{
closed = 1;
nodes = (
"152 462 LINE",
"188 156 OFFCURVE",
"362 -28 OFFCURVE",
"684 -28 CURVE SMOOTH",
"1050 -28 OFFCURVE",
"1224 210 OFFCURVE",
"1224 594 CURVE SMOOTH",
"1224 1400 LINE",
"1034 1400 LINE",
"1034 646 LINE SMOOTH",
"1034 392 OFFCURVE",
"982 144 OFFCURVE",
"684 144 CURVE SMOOTH",
"446 144 OFFCURVE",
"364 298 OFFCURVE",
"342 488 CURVE"
);
},
{
closed = 1;
nodes = (
"334 646 LINE",
"334 1400 LINE",
"144 1400 LINE",
"144 646 LINE"
);
}
);
width = 1368;
},
{
layerId = "7C863538-AAB4-42AD-A9FE-7240E615272A";
paths = (
{
closed = 1;
nodes = (
"150 440 LINE",
"196 152 OFFCURVE",
"374 -28 OFFCURVE",
"698 -28 CURVE",
"1078 -28 OFFCURVE",
"1258 220 OFFCURVE",
"1258 600 CURVE SMOOTH",
"1258 1400 LINE",
"1002 1400 LINE",
"1002 666 LINE SMOOTH",
"1002 398 OFFCURVE",
"952 218 OFFCURVE",
"698 218 CURVE SMOOTH",
"508 218 OFFCURVE",
"432 318 OFFCURVE",
"406 480 CURVE"
);
},
{
closed = 1;
nodes = (
"394 666 LINE",
"394 1400 LINE",
"138 1400 LINE",
"138 666 LINE"
);
}
);
width = 1396;
},
{
associatedMasterId = UUID0;
components = (
{
name = I;
},
{
name = J;
transform = "{1, 0, 0, 1, 510, 0}";
}
);
layerId = "B69BDC59-1927-4BEF-B577-CA3BF1F225F2";
name = "Regular Sep 16 16, 01:48";
width = 1020;
},
{
associatedMasterId = "7C863538-AAB4-42AD-A9FE-7240E615272A";
components = (
{
name = I;
},
{
name = J;
transform = "{1, 0, 0, 1, 564, 0}";
}
);
layerId = "1A7F4EF6-634A-4DEC-A29A-DC4E1445BDED";
name = "Bold Sep 16 16, 01:48";
width = 1128;
},
{
layerId = "A616F07E-65DE-4D07-A020-83605E49AA22";
paths = (
{
closed = 1;
nodes = (
"120 486 LINE",
"138 166 OFFCURVE",
"284 -28 OFFCURVE",
"596 -28 CURVE SMOOTH",
"932 -28 OFFCURVE",
"1076 194 OFFCURVE",
"1076 554 CURVE SMOOTH",
"1076 1400 LINE",
"892 1400 LINE",
"892 606 LINE SMOOTH",
"892 352 OFFCURVE",
"856 140 OFFCURVE",
"596 140 CURVE SMOOTH",
"374 140 OFFCURVE",
"316 298 OFFCURVE",
"304 508 CURVE"
);
},
{
closed = 1;
nodes = (
"302 646 LINE",
"302 1400 LINE",
"118 1400 LINE",
"118 646 LINE"
);
}
);
width = 1194;
},
{
layerId = "3AF73D1F-32CE-4CF3-BC01-E4A23F7DE30A";
paths = (
{
closed = 1;
nodes = (
"124 450 LINE",
"150 158 OFFCURVE",
"304 -28 OFFCURVE",
"600 -28 CURVE SMOOTH",
"926 -28 OFFCURVE",
"1080 196 OFFCURVE",
"1080 540 CURVE SMOOTH",
"1080 1400 LINE",
"836 1400 LINE",
"836 606 LINE SMOOTH",
"836 380 OFFCURVE",
"796 218 OFFCURVE",
"600 218 CURVE SMOOTH",
"442 218 OFFCURVE",
"386 326 OFFCURVE",
"370 486 CURVE"
);
},
{
closed = 1;
nodes = (
"364 666 LINE",
"364 1400 LINE",
"120 1400 LINE",
"120 666 LINE"
);
}
);
width = 1200;
}
);
leftMetricsKey = U;
rightMetricsKey = U;
unicode = 0132;
},
{
glyphname = J;
layers = (
{
anchors = (
{
name = top;
position = "{256, 1400}";
}
);
layerId = UUID0;
paths = (
{
closed = 1;
nodes = (
"38 -344 LINE SMOOTH",
"248 -344 OFFCURVE",
"350 -248 OFFCURVE",
"350 -28 CURVE SMOOTH",
"350 1400 LINE",
"160 1400 LINE",
"160 16 LINE SMOOTH",
"160 -120 OFFCURVE",
"104 -180 OFFCURVE",
"-40 -180 CURVE",
"-14 -344 LINE"
);
}
);
width = 510;
},
{
anchors = (
{
name = top;
position = "{282, 1400}";
}
);
layerId = "7C863538-AAB4-42AD-A9FE-7240E615272A";
paths = (
{
closed = 1;
nodes = (
"86 -344 LINE SMOOTH",
"286 -344 OFFCURVE",
"410 -252 OFFCURVE",
"410 -8 CURVE SMOOTH",
"410 1400 LINE",
"154 1400 LINE",
"154 48 LINE SMOOTH",
"154 -84 OFFCURVE",
"106 -124 OFFCURVE",
"-8 -124 CURVE",
"14 -344 LINE"
);
}
);
width = 564;
},
{
associatedMasterId = UUID0;
layerId = "5F0F720F-D4C6-4761-B74D-F5C2A8A6F4D9";
name = "Regular Sep 7 16, 14:04";
paths = (
{
closed = 1;
nodes = (
"18 -344 LINE SMOOTH",
"248 -344 OFFCURVE",
"350 -244 OFFCURVE",
"350 -64 CURVE SMOOTH",
"350 1400 LINE",
"160 1400 LINE",
"160 -6 LINE SMOOTH",
"160 -162 OFFCURVE",
"126 -232 OFFCURVE",
"-28 -232 CURVE SMOOTH",
"-34 -232 LINE",
"-14 -344 LINE"
);
}
);
width = 510;
},
{
associatedMasterId = "7C863538-AAB4-42AD-A9FE-7240E615272A";
layerId = "85804647-F065-48D3-B57F-7015F58BA85C";
name = "Bold Sep 7 16, 14:04";
paths = (
{
closed = 1;
nodes = (
"86 -344 LINE SMOOTH",
"286 -344 OFFCURVE",
"410 -248 OFFCURVE",
"410 -48 CURVE SMOOTH",
"410 1400 LINE",
"154 1400 LINE",
"154 8 LINE SMOOTH",
"154 -102 OFFCURVE",
"128 -152 OFFCURVE",
"48 -152 CURVE SMOOTH",
"-6 -152 LINE",
"14 -344 LINE"
);
}
);
width = 564;
},
{
anchors = (
{
name = top;
position = "{246, 1400}";
}
);
layerId = "A616F07E-65DE-4D07-A020-83605E49AA22";
paths = (
{
closed = 1;
nodes = (
"58 -344 LINE SMOOTH",
"232 -344 OFFCURVE",
"338 -250 OFFCURVE",
"338 -64 CURVE SMOOTH",
"338 1400 LINE",
"154 1400 LINE",
"154 -6 LINE SMOOTH",
"154 -144 OFFCURVE",
"116 -180 OFFCURVE",
"-2 -180 CURVE",
"16 -344 LINE"
);
}
);
width = 486;
},
{
anchors = (
{
name = top;
position = "{238, 1400}";
}
);
layerId = "3AF73D1F-32CE-4CF3-BC01-E4A23F7DE30A";
paths = (
{
closed = 1;
nodes = (
"52 -344 LINE SMOOTH",
"236 -344 OFFCURVE",
"360 -252 OFFCURVE",
"360 -48 CURVE SMOOTH",
"360 1400 LINE",
"116 1400 LINE",
"116 -2 LINE SMOOTH",
"116 -92 OFFCURVE",
"80 -128 OFFCURVE",
"-8 -128 CURVE",
"10 -344 LINE"
);
}
);
width = 484;
},
{
associatedMasterId = "A616F07E-65DE-4D07-A020-83605E49AA22";
layerId = "FC7CB6DB-D289-4653-ACF3-C96AC770570A";
name = "Condensed Sep 19 16, 18:47";
paths = (
{
closed = 1;
nodes = (
"58 -344 LINE SMOOTH",
"244 -344 OFFCURVE",
"340 -244 OFFCURVE",
"340 -64 CURVE SMOOTH",
"340 1400 LINE",
"152 1400 LINE",
"152 -6 LINE SMOOTH",
"152 -162 OFFCURVE",
"126 -232 OFFCURVE",
"20 -232 CURVE SMOOTH",
"-2 -232 LINE",
"16 -344 LINE"
);
}
);
width = 484;
},
{
associatedMasterId = "3AF73D1F-32CE-4CF3-BC01-E4A23F7DE30A";
layerId = "2CDEBC7A-2618-4F9D-A109-CC4A990B9F4E";
name = "Bold Condensed Sep 19 16, 18:47";
paths = (
{
closed = 1;
nodes = (
"86 -344 LINE SMOOTH",
"246 -344 OFFCURVE",
"362 -248 OFFCURVE",
"362 -48 CURVE SMOOTH",
"362 1400 LINE",
"116 1400 LINE",
"116 8 LINE SMOOTH",
"116 -102 OFFCURVE",
"98 -152 OFFCURVE",
"56 -152 CURVE SMOOTH",
"-8 -152 LINE",
"10 -344 LINE"
);
}
);
width = 486;
}
);
unicode = 004A;
},
{
glyphname = K;
layers = (
{
anchors = (
{
name = bottom;
position = "{648, 0}";
},
{
name = top;
position = "{648, 1400}";
}
);
layerId = UUID0;
paths = (
{
closed = 1;
nodes = (
"1124 0 LINE",
"586 746 LINE",
"1118 1400 LINE",
"888 1400 LINE",
"370 742 LINE",
"888 0 LINE"
);
},
{
closed = 1;
nodes = (
"350 0 LINE",
"350 1400 LINE",
"160 1400 LINE",
"160 0 LINE"
);
}
);
width = 1132;
},
{
anchors = (
{
name = bottom;
position = "{680, 0}";
},
{
name = top;
position = "{680, 1400}";
}
);
layerId = "7C863538-AAB4-42AD-A9FE-7240E615272A";
paths = (
{
closed = 1;
nodes = (
"1248 0 LINE",
"726 740 LINE",
"1248 1400 LINE",
"948 1400 LINE",
"430 740 LINE",
"948 0 LINE"
);
},
{
closed = 1;
nodes = (
"410 0 LINE",
"410 1400 LINE",
"154 1400 LINE",
"154 0 LINE"
);
}
);
width = 1254;
},
{
associatedMasterId = UUID0;
layerId = "5793FEEF-6FB1-45A8-A562-D1A12D4700F4";
name = "Regular Sep 7 16, 14:04";
paths = (
{
closed = 1;
nodes = (
"1146 0 LINE",
"628 742 LINE",
"1146 1400 LINE",
"946 1400 LINE",
"428 742 LINE",
"946 0 LINE"
);
},
{
closed = 1;
nodes = (
"350 0 LINE",
"350 1400 LINE",
"160 1400 LINE",
"160 0 LINE"
);
}
);
width = 1154;
},
{
associatedMasterId = "7C863538-AAB4-42AD-A9FE-7240E615272A";
layerId = "0F9751A4-6C52-4A70-B363-963DF947A431";
name = "Bold Sep 7 16, 14:04";
paths = (
{
closed = 1;
nodes = (
"1236 0 LINE",
"748 740 LINE",
"1236 1400 LINE",
"948 1400 LINE",
"460 740 LINE",
"948 0 LINE"
);
},
{
closed = 1;
nodes = (
"410 0 LINE",
"410 1400 LINE",
"154 1400 LINE",
"154 0 LINE"
);
}
);
width = 1242;
},
{
anchors = (
{
name = bottom;
position = "{580, 0}";
},
{
name = top;
position = "{580, 1400}";
}
);
layerId = "A616F07E-65DE-4D07-A020-83605E49AA22";
paths = (
{
closed = 1;
nodes = (
"1014 0 LINE",
"560 742 LINE",
"1014 1400 LINE",
"810 1400 LINE",
"360 742 LINE",
"810 0 LINE"
);
},
{
closed = 1;
nodes = (
"350 0 LINE",
"350 1400 LINE",
"166 1400 LINE",
"166 0 LINE"
);
}
);
width = 1054;
},
{
anchors = (
{
name = bottom;
position = "{568, 0}";
},
{
name = top;
position = "{568, 1400}";
}
);
layerId = "3AF73D1F-32CE-4CF3-BC01-E4A23F7DE30A";
paths = (
{
closed = 1;
nodes = (
"1072 0 LINE",
"638 740 LINE",
"1072 1400 LINE",
"784 1400 LINE",
"362 740 LINE",
"784 0 LINE"
);
},
{
closed = 1;
nodes = (
"352 0 LINE",
"352 1400 LINE",
"108 1400 LINE",
"108 0 LINE"
);
}
);
width = 1052;
},
{
associatedMasterId = "A616F07E-65DE-4D07-A020-83605E49AA22";
layerId = "A4F1A482-A05E-406E-A819-E1317F21F4E4";
name = "Condensed Sep 19 16, 18:47";
paths = (
{
closed = 1;
nodes = (
"1048 0 LINE",
"614 742 LINE",
"1048 1400 LINE",
"844 1400 LINE",
"410 742 LINE",
"844 0 LINE"
);
},
{
closed = 1;
nodes = (
"354 0 LINE",
"354 1400 LINE",
"166 1400 LINE",
"166 0 LINE"
);
}
);
width = 1088;
},
{
associatedMasterId = "3AF73D1F-32CE-4CF3-BC01-E4A23F7DE30A";
layerId = "EA0EAFE0-60FC-4036-A425-EC11762C2A97";
name = "Bold Condensed Sep 19 16, 18:47";
paths = (
{
closed = 1;
nodes = (
"1074 0 LINE",
"666 740 LINE",
"1074 1400 LINE",
"794 1400 LINE",
"386 740 LINE",
"794 0 LINE"
);
},
{
closed = 1;
nodes = (
"352 0 LINE",
"352 1400 LINE",
"108 1400 LINE",
"108 0 LINE"
);
}
);
width = 1054;
}
);
leftKerningGroup = I;
unicode = 004B;
},
{
glyphname = L;
layers = (
{
anchors = (
{
name = bottom;
position = "{576, 0}";
},
{
name = center;
position = "{756, 768}";
},
{
name = top;
position = "{256, 1400}";
},
{
name = topright;
position = "{804, 1400}";
}
);
guideLines = (
{
angle = 90;
position = "{496, 86}";
}
);
layerId = UUID0;
paths = (
{
closed = 1;
nodes = (
"992 0 LINE",
"992 172 LINE",
"350 172 LINE",
"350 1400 LINE",
"160 1400 LINE",
"160 0 LINE"
);
}
);
width = 1002;
},
{
anchors = (
{
name = bottom;
position = "{570, 0}";
},
{
name = center;
position = "{782, 784}";
},
{
name = top;
position = "{282, 1400}";
},
{
name = topright;
position = "{788, 1400}";
}
);
guideLines = (
{
angle = 90;
position = "{493, 124}";
}
);
layerId = "7C863538-AAB4-42AD-A9FE-7240E615272A";
paths = (
{
closed = 1;
nodes = (
"986 0 LINE",
"986 228 LINE",
"410 228 LINE",
"410 1400 LINE",
"154 1400 LINE",
"154 0 LINE"
);
}
);
width = 1000;
},
{
associatedMasterId = UUID0;
layerId = "AAA7357E-E947-4C67-BBD4-6C7E2B70345C";
name = "Regular Sep 7 16, 14:04";
paths = (
{
closed = 1;
nodes = (
"992 0 LINE",
"992 172 LINE",
"350 172 LINE",
"350 1400 LINE",
"160 1400 LINE",
"160 0 LINE"
);
}
);
width = 1002;
},
{
associatedMasterId = "7C863538-AAB4-42AD-A9FE-7240E615272A";
layerId = "AFAC02C0-5375-4A68-84BF-B33DA7C5FF0B";
name = "Bold Sep 7 16, 14:04";
paths = (
{
closed = 1;
nodes = (
"986 0 LINE",
"986 248 LINE",
"410 248 LINE",
"410 1400 LINE",
"154 1400 LINE",
"154 0 LINE"
);
}
);
width = 1000;
},
{
anchors = (
{
name = bottom;
position = "{490, 0}";
},
{
name = center;
position = "{654, 768}";
},
{
name = top;
position = "{224, 1400}";
},
{
name = topright;
position = "{664, 1400}";
}
);
layerId = "A616F07E-65DE-4D07-A020-83605E49AA22";
paths = (
{
closed = 1;
nodes = (
"848 0 LINE",
"848 168 LINE",
"316 168 LINE",
"316 1400 LINE",
"132 1400 LINE",
"132 0 LINE"
);
}
);
width = 860;
},
{
anchors = (
{
name = bottom;
position = "{490, 0}";
},
{
name = center;
position = "{684, 784}";
},
{
name = top;
position = "{254, 1400}";
},
{
name = topright;
position = "{658, 1400}";
}
);
layerId = "3AF73D1F-32CE-4CF3-BC01-E4A23F7DE30A";
paths = (
{
closed = 1;
nodes = (
"848 0 LINE",
"848 224 LINE",
"376 224 LINE",
"376 1400 LINE",
"132 1400 LINE",
"132 0 LINE"
);
}
);
width = 860;
},
{
associatedMasterId = "A616F07E-65DE-4D07-A020-83605E49AA22";
layerId = "D872BE99-EA08-45C8-B26B-4F5C0CE8AF62";
name = "Condensed Sep 19 16, 18:47";
paths = (
{
closed = 1;
nodes = (
"848 0 LINE",
"848 172 LINE",
"320 172 LINE",
"320 1400 LINE",
"132 1400 LINE",
"132 0 LINE"
);
}
);
width = 860;
},
{
associatedMasterId = "3AF73D1F-32CE-4CF3-BC01-E4A23F7DE30A";
layerId = "2099B62D-8BB4-495B-86F1-01EAE830DD92";
name = "Bold Condensed Sep 19 16, 18:47";
paths = (
{
closed = 1;
nodes = (
"848 0 LINE",
"848 248 LINE",
"376 248 LINE",
"376 1400 LINE",
"132 1400 LINE",
"132 0 LINE"
);
}
);
width = 860;
}
);
leftKerningGroup = I;
unicode = 004C;
},
{
glyphname = Lslash;
layers = (
{
layerId = UUID0;
paths = (
{
closed = 1;
nodes = (
"992 0 LINE",
"992 172 LINE",
"350 172 LINE",
"350 1400 LINE",
"160 1400 LINE",
"160 0 LINE"
);
},
{
closed = 1;
nodes = (
"772 928 LINE",
"772 1062 LINE",
"20 858 LINE",
"20 724 LINE"
);
}
);
width = 1002;
},
{
layerId = "7C863538-AAB4-42AD-A9FE-7240E615272A";
paths = (
{
closed = 1;
nodes = (
"986 0 LINE",
"986 248 LINE",
"410 248 LINE",
"410 1400 LINE",
"154 1400 LINE",
"154 0 LINE"
);
},
{
closed = 1;
nodes = (
"818 908 LINE",
"818 1108 LINE",
"24 904 LINE",
"24 704 LINE"
);
}
);
width = 1000;
},
{
layerId = "A616F07E-65DE-4D07-A020-83605E49AA22";
paths = (
{
closed = 1;
nodes = (
"860 0 LINE",
"860 168 LINE",
"328 168 LINE",
"328 1400 LINE",
"144 1400 LINE",
"144 0 LINE"
);
},
{
closed = 1;
nodes = (
"656 904 LINE",
"656 1034 LINE",
"24 860 LINE",
"24 730 LINE"
);
}
);
width = 872;
},
{
layerId = "3AF73D1F-32CE-4CF3-BC01-E4A23F7DE30A";
paths = (
{
closed = 1;
nodes = (
"866 0 LINE",
"866 224 LINE",
"394 224 LINE",
"394 1400 LINE",
"150 1400 LINE",
"150 0 LINE"
);
},
{
closed = 1;
nodes = (
"716 888 LINE",
"716 1088 LINE",
"40 904 LINE",
"40 704 LINE"
);
}
);
width = 878;
},
{
associatedMasterId = "A616F07E-65DE-4D07-A020-83605E49AA22";
layerId = "7ACF1404-6D6F-44F8-B9EC-84A71420C217";
name = "Condensed Sep 22 16, 01:56";
paths = (
{
closed = 1;
nodes = (
"992 0 LINE",
"992 172 LINE",
"350 172 LINE",
"350 1400 LINE",
"160 1400 LINE",
"160 0 LINE"
);
},
{
closed = 1;
nodes = (
"772 928 LINE",
"772 1062 LINE",
"40 862 LINE",
"40 728 LINE"
);
}
);
visible = 1;
width = 1200;
}
);
rightMetricsKey = L;
unicode = 0141;
},
{
glyphname = M;
layers = (
{
anchors = (
{
name = bottom;
position = "{812, 0}";
},
{
name = top;
position = "{812, 1400}";
}
);
layerId = UUID0;
paths = (
{
closed = 1;
nodes = (
"296 0 LINE",
"438 1142 LINE",
"388 1134 LINE",
"816 332 LINE",
"1236 1134 LINE",
"1186 1142 LINE",
"1328 0 LINE",
"1528 0 LINE",
"1342 1400 LINE",
"1178 1400 LINE",
"814 706 LINE",
"446 1400 LINE",
"284 1400 LINE",
"96 0 LINE"
);
}
);
width = 1624;
},
{
anchors = (
{
name = bottom;
position = "{834, 0}";
},
{
name = top;
position = "{834, 1400}";
}
);
layerId = "7C863538-AAB4-42AD-A9FE-7240E615272A";
paths = (
{
closed = 1;
nodes = (
"354 0 LINE",
"488 1050 LINE",
"418 1036 LINE",
"834 294 LINE",
"1248 1038 LINE",
"1178 1052 LINE",
"1312 0 LINE",
"1578 0 LINE",
"1384 1400 LINE",
"1174 1400 LINE",
"834 762 LINE",
"492 1400 LINE",
"282 1400 LINE",
"88 0 LINE"
);
}
);
width = 1666;
},
{
anchors = (
{
name = bottom;
position = "{816, 0}";
},
{
name = top;
position = "{816, 1400}";
}
);
associatedMasterId = UUID0;
layerId = "49D65162-A28E-42EC-9100-F1EEFF603694";
name = "Regular Sep 7 16, 14:04";
paths = (
{
closed = 1;
nodes = (
"296 0 LINE",
"428 1058 LINE",
"816 332 LINE",
"1196 1058 LINE",
"1328 0 LINE",
"1528 0 LINE",
"1342 1400 LINE",
"1178 1400 LINE",
"814 706 LINE",
"446 1400 LINE",
"284 1400 LINE",
"96 0 LINE"
);
}
);
width = 1624;
},
{
anchors = (
{
name = bottom;
position = "{837, 0}";
},
{
name = top;
position = "{837, 1400}";
}
);
associatedMasterId = "7C863538-AAB4-42AD-A9FE-7240E615272A";
layerId = "56A6EF91-75D8-405B-9360-7CBB9B2855F9";
name = "Bold Sep 7 16, 14:04";
paths = (
{
closed = 1;
nodes = (
"354 0 LINE",
"474 936 LINE",
"834 294 LINE",
"1192 938 LINE",
"1312 0 LINE",
"1578 0 LINE",
"1384 1400 LINE",
"1174 1400 LINE",
"834 762 LINE",
"492 1400 LINE",
"282 1400 LINE",
"88 0 LINE"
);
}
);
width = 1666;
},
{
anchors = (
{
name = bottom;
position = "{720, 0}";
},
{
name = top;
position = "{720, 1400}";
}
);
layerId = "A616F07E-65DE-4D07-A020-83605E49AA22";
paths = (
{
closed = 1;
nodes = (
"290 0 LINE",
"394 1110 LINE",
"344 1094 LINE",
"720 290 LINE",
"1096 1094 LINE",
"1046 1110 LINE",
"1150 0 LINE",
"1346 0 LINE",
"1194 1400 LINE",
"1038 1400 LINE",
"720 682 LINE",
"402 1400 LINE",
"246 1400 LINE",
"94 0 LINE"
);
}
);
width = 1420;
},
{
anchors = (
{
name = bottom;
position = "{734, 0}";
},
{
name = top;
position = "{734, 1400}";
}
);
layerId = "3AF73D1F-32CE-4CF3-BC01-E4A23F7DE30A";
paths = (
{
closed = 1;
nodes = (
"324 0 LINE",
"444 1050 LINE",
"360 1040 LINE",
"724 282 LINE",
"1090 1042 LINE",
"1004 1052 LINE",
"1124 0 LINE",
"1376 0 LINE",
"1200 1400 LINE",
"1002 1400 LINE",
"724 786 LINE",
"446 1400 LINE",
"248 1400 LINE",
"72 0 LINE"
);
}
);
width = 1460;
},
{
anchors = (
{
name = bottom;
position = "{714, 0}";
},
{
name = top;
position = "{714, 1400}";
}
);
associatedMasterId = "A616F07E-65DE-4D07-A020-83605E49AA22";
layerId = "D8C005A1-4C91-420F-A08D-396EDA921F3A";
name = "Condensed Sep 19 16, 18:47";
paths = (
{
closed = 1;
nodes = (
"290 0 LINE",
"388 1024 LINE",
"722 298 LINE",
"1052 1024 LINE",
"1150 0 LINE",
"1346 0 LINE",
"1194 1400 LINE",
"1036 1400 LINE",
"722 672 LINE",
"404 1400 LINE",
"248 1400 LINE",
"94 0 LINE"
);
}
);
width = 1420;
},
{
anchors = (
{
name = bottom;
position = "{734, 0}";
},
{
name = top;
position = "{734, 1400}";
}
);
associatedMasterId = "3AF73D1F-32CE-4CF3-BC01-E4A23F7DE30A";
layerId = "26556D22-8D01-4FF3-BDE5-38C9DF97DC45";
name = "Bold Condensed Sep 19 16, 18:47";
paths = (
{
closed = 1;
nodes = (
"326 0 LINE",
"432 936 LINE",
"724 294 LINE",
"1016 938 LINE",
"1122 0 LINE",
"1374 0 LINE",
"1198 1400 LINE",
"1000 1400 LINE",
"724 762 LINE",
"446 1400 LINE",
"248 1400 LINE",
"72 0 LINE"
);
}
);
width = 1460;
}
);
unicode = 004D;
},
{
glyphname = N;
layers = (
{
anchors = (
{
name = bottom;
position = "{718, 0}";
},
{
name = top;
position = "{712, 1400}";
}
);
layerId = UUID0;
paths = (
{
closed = 1;
nodes = (
"350 0 LINE",
"350 1106 LINE",
"1086 0 LINE",
"1248 0 LINE",
"1248 1400 LINE",
"1056 1400 LINE",
"1056 352 LINE",
"366 1400 LINE",
"160 1400 LINE",
"160 0 LINE"
);
}
);
width = 1408;
},
{
anchors = (
{
name = bottom;
position = "{730, 0}";
},
{
name = top;
position = "{706, 1400}";
}
);
layerId = "7C863538-AAB4-42AD-A9FE-7240E615272A";
paths = (
{
closed = 1;
nodes = (
"410 0 LINE",
"410 960 LINE",
"1050 0 LINE",
"1260 0 LINE",
"1260 1400 LINE",
"1004 1400 LINE",
"1004 496 LINE",
"406 1400 LINE",
"154 1400 LINE",
"154 0 LINE"
);
}
);
width = 1414;
},
{
anchors = (
{
name = bottom;
position = "{718, 0}";
},
{
name = top;
position = "{712, 1400}";
}
);
associatedMasterId = UUID0;
layerId = "8B64B668-D02D-4D54-BFC8-07F2135EA705";
name = "Regular Sep 7 16, 14:04";
paths = (
{
closed = 1;
nodes = (
"350 0 LINE",
"350 1106 LINE",
"1086 0 LINE",
"1248 0 LINE",
"1248 1400 LINE",
"1056 1400 LINE",
"1056 352 LINE",
"366 1400 LINE",
"160 1400 LINE",
"160 0 LINE"
);
}
);
width = 1408;
},
{
anchors = (
{
name = bottom;
position = "{721, 0}";
},
{
name = top;
position = "{715, 1400}";
}
);
associatedMasterId = "7C863538-AAB4-42AD-A9FE-7240E615272A";
layerId = "F906FCDF-DE6F-43EF-AFFE-5D864AA333C7";
name = "Bold Sep 7 16, 14:04";
paths = (
{
closed = 1;
nodes = (
"410 0 LINE",
"410 960 LINE",
"1050 0 LINE",
"1260 0 LINE",
"1260 1400 LINE",
"1004 1400 LINE",
"1004 496 LINE",
"406 1400 LINE",
"154 1400 LINE",
"154 0 LINE"
);
}
);
width = 1414;
},
{
anchors = (
{
name = bottom;
position = "{610, 0}";
},
{
name = top;
position = "{616, 1400}";
}
);
layerId = "A616F07E-65DE-4D07-A020-83605E49AA22";
paths = (
{
closed = 1;
nodes = (
"316 0 LINE",
"316 1078 LINE",
"904 0 LINE",
"1074 0 LINE",
"1074 1400 LINE",
"890 1400 LINE",
"890 380 LINE",
"340 1400 LINE",
"132 1400 LINE",
"132 0 LINE"
);
}
);
width = 1206;
},
{
anchors = (
{
name = bottom;
position = "{626, 0}";
},
{
name = top;
position = "{614, 1400}";
}
);
layerId = "3AF73D1F-32CE-4CF3-BC01-E4A23F7DE30A";
paths = (
{
closed = 1;
nodes = (
"376 0 LINE",
"376 932 LINE",
"876 0 LINE",
"1090 0 LINE",
"1090 1400 LINE",
"846 1400 LINE",
"846 524 LINE",
"382 1400 LINE",
"132 1400 LINE",
"132 0 LINE"
);
}
);
width = 1222;
},
{
associatedMasterId = "A616F07E-65DE-4D07-A020-83605E49AA22";
layerId = "6A486A4E-3AE8-40AD-92BB-E277136C75A9";
name = "Condensed Sep 19 16, 18:47";
paths = (
{
closed = 1;
nodes = (
"320 0 LINE",
"320 1106 LINE",
"918 0 LINE",
"1074 0 LINE",
"1074 1400 LINE",
"886 1400 LINE",
"886 352 LINE",
"326 1400 LINE",
"132 1400 LINE",
"132 0 LINE"
);
}
);
width = 1206;
},
{
associatedMasterId = "3AF73D1F-32CE-4CF3-BC01-E4A23F7DE30A";
layerId = "A0BA605D-929E-4CD2-AFA6-1929AD8E3EF9";
name = "Bold Condensed Sep 19 16, 18:47";
paths = (
{
closed = 1;
nodes = (
"376 0 LINE",
"376 960 LINE",
"892 0 LINE",
"1090 0 LINE",
"1090 1400 LINE",
"846 1400 LINE",
"846 496 LINE",
"366 1400 LINE",
"132 1400 LINE",
"132 0 LINE"
);
}
);
width = 1222;
}
);
leftKerningGroup = I;
rightKerningGroup = I;
unicode = 004E;
},
{
glyphname = Eng;
layers = (
{
layerId = UUID0;
paths = (
{
closed = 1;
nodes = (
"1290 920 LINE SMOOTH",
"1290 1224 OFFCURVE",
"1118 1428 OFFCURVE",
"774 1428 CURVE SMOOTH",
"604 1428 OFFCURVE",
"448 1372 OFFCURVE",
"334 1266 CURVE",
"322 1400 LINE",
"160 1400 LINE",
"160 0 LINE",
"352 0 LINE",
"352 1112 LINE",
"428 1198 OFFCURVE",
"556 1256 OFFCURVE",
"732 1256 CURVE SMOOTH",
"974 1256 OFFCURVE",
"1098 1128 OFFCURVE",
"1098 900 CURVE SMOOTH",
"1098 80 LINE SMOOTH",
"1098 -106 OFFCURVE",
"992 -198 OFFCURVE",
"832 -198 CURVE SMOOTH",
"782 -198 OFFCURVE",
"732 -192 OFFCURVE",
"684 -180 CURVE",
"658 -348 LINE",
"708 -362 OFFCURVE",
"764 -370 OFFCURVE",
"820 -370 CURVE SMOOTH",
"1094 -370 OFFCURVE",
"1290 -218 OFFCURVE",
"1290 100 CURVE SMOOTH"
);
}
);
width = 1418;
},
{
layerId = "7C863538-AAB4-42AD-A9FE-7240E615272A";
paths = (
{
closed = 1;
nodes = (
"1300 836 LINE SMOOTH",
"1300 1190 OFFCURVE",
"1130 1428 OFFCURVE",
"788 1428 CURVE SMOOTH",
"632 1428 OFFCURVE",
"488 1372 OFFCURVE",
"384 1266 CURVE",
"372 1400 LINE",
"154 1400 LINE",
"154 0 LINE",
"410 0 LINE",
"410 1038 LINE",
"474 1124 OFFCURVE",
"580 1182 OFFCURVE",
"726 1182 CURVE SMOOTH",
"936 1182 OFFCURVE",
"1044 1044 OFFCURVE",
"1044 796 CURVE SMOOTH",
"1044 84 LINE SMOOTH",
"1044 -82 OFFCURVE",
"946 -164 OFFCURVE",
"800 -164 CURVE SMOOTH",
"750 -164 OFFCURVE",
"700 -160 OFFCURVE",
"652 -150 CURVE",
"626 -386 LINE",
"680 -402 OFFCURVE",
"738 -410 OFFCURVE",
"798 -410 CURVE SMOOTH",
"1090 -410 OFFCURVE",
"1300 -246 OFFCURVE",
"1300 100 CURVE SMOOTH"
);
}
);
width = 1440;
},
{
layerId = "A616F07E-65DE-4D07-A020-83605E49AA22";
paths = (
{
closed = 1;
nodes = (
"1178 920 LINE SMOOTH",
"1178 1224 OFFCURVE",
"1022 1428 OFFCURVE",
"712 1428 CURVE SMOOTH",
"558 1428 OFFCURVE",
"414 1368 OFFCURVE",
"314 1266 CURVE",
"302 1400 LINE",
"148 1400 LINE",
"148 0 LINE",
"332 0 LINE",
"332 1112 LINE",
"406 1192 OFFCURVE",
"518 1260 OFFCURVE",
"670 1260 CURVE SMOOTH",
"884 1260 OFFCURVE",
"994 1130 OFFCURVE",
"994 900 CURVE SMOOTH",
"994 80 LINE SMOOTH",
"994 -108 OFFCURVE",
"892 -202 OFFCURVE",
"738 -202 CURVE SMOOTH",
"692 -202 OFFCURVE",
"646 -196 OFFCURVE",
"602 -184 CURVE",
"576 -348 LINE",
"626 -362 OFFCURVE",
"682 -370 OFFCURVE",
"738 -370 CURVE SMOOTH",
"994 -370 OFFCURVE",
"1178 -218 OFFCURVE",
"1178 100 CURVE SMOOTH"
);
}
);
width = 1298;
},
{
layerId = "3AF73D1F-32CE-4CF3-BC01-E4A23F7DE30A";
paths = (
{
closed = 1;
nodes = (
"1186 836 LINE SMOOTH",
"1186 1190 OFFCURVE",
"1030 1428 OFFCURVE",
"714 1428 CURVE SMOOTH",
"568 1428 OFFCURVE",
"434 1372 OFFCURVE",
"338 1266 CURVE",
"326 1400 LINE",
"120 1400 LINE",
"120 0 LINE",
"364 0 LINE",
"364 1060 LINE",
"422 1146 OFFCURVE",
"518 1204 OFFCURVE",
"652 1204 CURVE SMOOTH",
"844 1204 OFFCURVE",
"942 1058 OFFCURVE",
"942 796 CURVE SMOOTH",
"942 84 LINE SMOOTH",
"942 -96 OFFCURVE",
"840 -186 OFFCURVE",
"686 -186 CURVE SMOOTH",
"636 -186 OFFCURVE",
"586 -182 OFFCURVE",
"538 -172 CURVE",
"512 -386 LINE",
"566 -402 OFFCURVE",
"624 -410 OFFCURVE",
"684 -410 CURVE SMOOTH",
"976 -410 OFFCURVE",
"1186 -246 OFFCURVE",
"1186 100 CURVE SMOOTH"
);
}
);
width = 1306;
}
);
leftMetricsKey = I;
unicode = 014A;
},
{
glyphname = O;
layers = (
{
anchors = (
{
name = bottom;
position = "{770, 0}";
},
{
name = ogonek;
position = "{874, 0}";
},
{
name = top;
position = "{770, 1400}";
},
{
name = topright;
position = "{958, 1400}";
}
);
layerId = UUID0;
paths = (
{
closed = 1;
nodes = (
"1170 -28 OFFCURVE",
"1460 256 OFFCURVE",
"1460 700 CURVE SMOOTH",
"1460 1144 OFFCURVE",
"1170 1428 OFFCURVE",
"770 1428 CURVE SMOOTH",
"370 1428 OFFCURVE",
"80 1144 OFFCURVE",
"80 700 CURVE SMOOTH",
"80 256 OFFCURVE",
"370 -28 OFFCURVE",
"770 -28 CURVE SMOOTH"
);
},
{
closed = 1;
nodes = (
"448 156 OFFCURVE",
"284 396 OFFCURVE",
"284 700 CURVE SMOOTH",
"284 1004 OFFCURVE",
"448 1244 OFFCURVE",
"770 1244 CURVE SMOOTH",
"1092 1244 OFFCURVE",
"1256 1004 OFFCURVE",
"1256 700 CURVE SMOOTH",
"1256 396 OFFCURVE",
"1092 156 OFFCURVE",
"770 156 CURVE SMOOTH"
);
}
);
width = 1540;
},
{
anchors = (
{
name = bottom;
position = "{760, 0}";
},
{
name = ogonek;
position = "{888, 0}";
},
{
name = top;
position = "{760, 1400}";
},
{
name = topright;
position = "{966, 1400}";
}
);
layerId = "7C863538-AAB4-42AD-A9FE-7240E615272A";
paths = (
{
closed = 1;
nodes = (
"1160 -28 OFFCURVE",
"1450 260 OFFCURVE",
"1450 700 CURVE SMOOTH",
"1450 1140 OFFCURVE",
"1160 1428 OFFCURVE",
"760 1428 CURVE SMOOTH",
"360 1428 OFFCURVE",
"70 1140 OFFCURVE",
"70 700 CURVE SMOOTH",
"70 260 OFFCURVE",
"360 -28 OFFCURVE",
"760 -28 CURVE SMOOTH"
);
},
{
closed = 1;
nodes = (
"480 220 OFFCURVE",
"338 422 OFFCURVE",
"338 700 CURVE SMOOTH",
"338 978 OFFCURVE",
"480 1180 OFFCURVE",
"760 1180 CURVE SMOOTH",
"1040 1180 OFFCURVE",
"1182 978 OFFCURVE",
"1182 700 CURVE SMOOTH",
"1182 422 OFFCURVE",
"1040 220 OFFCURVE",
"760 220 CURVE SMOOTH"
);
}
);
width = 1520;
},
{
anchors = (
{
name = bottom;
position = "{768, 0}";
},
{
name = center;
position = "{768, 700}";
},
{
name = ogonek;
position = "{1382, 20}";
},
{
name = top;
position = "{768, 1400}";
},
{
name = topleft;
position = "{40, 1400}";
},
{
name = topright;
position = "{1126, 1400}";
}
);
associatedMasterId = UUID0;
layerId = "7E45970F-A745-4B4E-B89A-68BA4D1F5874";
name = "Regular Sep 7 16, 14:04";
paths = (
{
closed = 1;
nodes = (
"1168 -28 OFFCURVE",
"1458 256 OFFCURVE",
"1458 700 CURVE SMOOTH",
"1458 1144 OFFCURVE",
"1168 1428 OFFCURVE",
"768 1428 CURVE SMOOTH",
"368 1428 OFFCURVE",
"78 1144 OFFCURVE",
"78 700 CURVE SMOOTH",
"78 256 OFFCURVE",
"368 -28 OFFCURVE",
"768 -28 CURVE"
);
},
{
closed = 1;
nodes = (
"448 144 OFFCURVE",
"286 390 OFFCURVE",
"286 700 CURVE SMOOTH",
"286 1010 OFFCURVE",
"448 1256 OFFCURVE",
"768 1256 CURVE",
"1088 1256 OFFCURVE",
"1250 1010 OFFCURVE",
"1250 700 CURVE SMOOTH",
"1250 390 OFFCURVE",
"1088 144 OFFCURVE",
"768 144 CURVE SMOOTH"
);
}
);
width = 1536;
},
{
anchors = (
{
name = bottom;
position = "{760, 0}";
},
{
name = center;
position = "{760, 700}";
},
{
name = ogonek;
position = "{1368, 20}";
},
{
name = top;
position = "{760, 1400}";
},
{
name = topleft;
position = "{40, 1400}";
},
{
name = topright;
position = "{1148, 1400}";
}
);
associatedMasterId = "7C863538-AAB4-42AD-A9FE-7240E615272A";
layerId = "E8905CB5-8511-4479-BCD6-8FDBCB1B5C03";
name = "Bold Sep 7 16, 14:04";
paths = (
{
closed = 1;
nodes = (
"1160 -28 OFFCURVE",
"1450 260 OFFCURVE",
"1450 700 CURVE SMOOTH",
"1450 1140 OFFCURVE",
"1160 1428 OFFCURVE",
"760 1428 CURVE SMOOTH",
"360 1428 OFFCURVE",
"70 1140 OFFCURVE",
"70 700 CURVE SMOOTH",
"70 260 OFFCURVE",
"360 -28 OFFCURVE",
"760 -28 CURVE"
);
},
{
closed = 1;
nodes = (
"488 218 OFFCURVE",
"350 420 OFFCURVE",
"350 700 CURVE SMOOTH",
"350 980 OFFCURVE",
"488 1182 OFFCURVE",
"760 1182 CURVE",
"1032 1182 OFFCURVE",
"1170 980 OFFCURVE",
"1170 700 CURVE SMOOTH",
"1170 420 OFFCURVE",
"1032 218 OFFCURVE",
"760 218 CURVE SMOOTH"
);
}
);
width = 1520;
},
{
anchors = (
{
name = bottom;
position = "{654, 0}";
},
{
name = ogonek;
position = "{696, 0}";
},
{
name = top;
position = "{654, 1400}";
},
{
name = topright;
position = "{812, 1400}";
}
);
layerId = "A616F07E-65DE-4D07-A020-83605E49AA22";
paths = (
{
closed = 1;
nodes = (
"998 -28 OFFCURVE",
"1246 256 OFFCURVE",
"1246 700 CURVE SMOOTH",
"1246 1144 OFFCURVE",
"998 1428 OFFCURVE",
"654 1428 CURVE SMOOTH",
"310 1428 OFFCURVE",
"60 1144 OFFCURVE",
"60 700 CURVE SMOOTH",
"60 256 OFFCURVE",
"310 -28 OFFCURVE",
"654 -28 CURVE SMOOTH"
);
},
{
closed = 1;
nodes = (
"390 156 OFFCURVE",
"256 396 OFFCURVE",
"256 700 CURVE SMOOTH",
"256 1004 OFFCURVE",
"390 1244 OFFCURVE",
"654 1244 CURVE SMOOTH",
"918 1244 OFFCURVE",
"1050 1004 OFFCURVE",
"1050 700 CURVE SMOOTH",
"1050 396 OFFCURVE",
"918 156 OFFCURVE",
"654 156 CURVE SMOOTH"
);
}
);
width = 1306;
},
{
anchors = (
{
name = bottom;
position = "{654, 0}";
},
{
name = ogonek;
position = "{696, 0}";
},
{
name = top;
position = "{654, 1400}";
},
{
name = topright;
position = "{828, 1400}";
}
);
layerId = "3AF73D1F-32CE-4CF3-BC01-E4A23F7DE30A";
paths = (
{
closed = 1;
nodes = (
"1000 -28 OFFCURVE",
"1248 260 OFFCURVE",
"1248 700 CURVE SMOOTH",
"1248 1140 OFFCURVE",
"1000 1428 OFFCURVE",
"654 1428 CURVE SMOOTH",
"310 1428 OFFCURVE",
"60 1140 OFFCURVE",
"60 700 CURVE SMOOTH",
"60 260 OFFCURVE",
"310 -28 OFFCURVE",
"654 -28 CURVE SMOOTH"
);
},
{
closed = 1;
nodes = (
"432 218 OFFCURVE",
"320 420 OFFCURVE",
"320 700 CURVE SMOOTH",
"320 980 OFFCURVE",
"432 1182 OFFCURVE",
"654 1182 CURVE SMOOTH",
"876 1182 OFFCURVE",
"988 980 OFFCURVE",
"988 700 CURVE SMOOTH",
"988 420 OFFCURVE",
"876 218 OFFCURVE",
"654 218 CURVE SMOOTH"
);
}
);
width = 1308;
},
{
anchors = (
{
name = bottom;
position = "{654, 0}";
},
{
name = center;
position = "{654, 700}";
},
{
name = ogonek;
position = "{1176, 20}";
},
{
name = top;
position = "{654, 1400}";
},
{
name = topleft;
position = "{40, 1400}";
},
{
name = topright;
position = "{990, 1400}";
}
);
associatedMasterId = "A616F07E-65DE-4D07-A020-83605E49AA22";
layerId = "F5AE42C6-00D9-474B-B45F-C30AA8DF079D";
name = "Condensed Sep 19 16, 18:47";
paths = (
{
closed = 1;
nodes = (
"998 -28 OFFCURVE",
"1246 256 OFFCURVE",
"1246 700 CURVE SMOOTH",
"1246 1144 OFFCURVE",
"998 1428 OFFCURVE",
"654 1428 CURVE SMOOTH",
"310 1428 OFFCURVE",
"60 1144 OFFCURVE",
"60 700 CURVE SMOOTH",
"60 256 OFFCURVE",
"310 -28 OFFCURVE",
"654 -28 CURVE"
);
},
{
closed = 1;
nodes = (
"396 144 OFFCURVE",
"264 390 OFFCURVE",
"264 700 CURVE SMOOTH",
"264 1010 OFFCURVE",
"396 1256 OFFCURVE",
"654 1256 CURVE",
"912 1256 OFFCURVE",
"1042 1010 OFFCURVE",
"1042 700 CURVE SMOOTH",
"1042 390 OFFCURVE",
"912 144 OFFCURVE",
"654 144 CURVE SMOOTH"
);
}
);
width = 1306;
},
{
anchors = (
{
name = bottom;
position = "{654, 0}";
},
{
name = center;
position = "{654, 700}";
},
{
name = ogonek;
position = "{1176, 20}";
},
{
name = top;
position = "{654, 1400}";
},
{
name = topleft;
position = "{40, 1400}";
},
{
name = topright;
position = "{1020, 1418}";
}
);
associatedMasterId = "3AF73D1F-32CE-4CF3-BC01-E4A23F7DE30A";
layerId = "529E11A8-4AE1-4F73-975B-6A52B5ACD27F";
name = "Bold Condensed Sep 19 16, 18:47";
paths = (
{
closed = 1;
nodes = (
"998 -28 OFFCURVE",
"1246 260 OFFCURVE",
"1246 700 CURVE SMOOTH",
"1246 1140 OFFCURVE",
"998 1428 OFFCURVE",
"654 1428 CURVE SMOOTH",
"310 1428 OFFCURVE",
"60 1140 OFFCURVE",
"60 700 CURVE SMOOTH",
"60 260 OFFCURVE",
"310 -28 OFFCURVE",
"654 -28 CURVE"
);
},
{
closed = 1;
nodes = (
"438 218 OFFCURVE",
"328 420 OFFCURVE",
"328 700 CURVE SMOOTH",
"328 980 OFFCURVE",
"438 1182 OFFCURVE",
"654 1182 CURVE",
"870 1182 OFFCURVE",
"980 980 OFFCURVE",
"980 700 CURVE SMOOTH",
"980 420 OFFCURVE",
"870 218 OFFCURVE",
"654 218 CURVE SMOOTH"
);
}
);
width = 1306;
}
);
leftKerningGroup = O;
rightKerningGroup = O;
unicode = 004F;
},
{
glyphname = Oslash;
layers = (
{
anchors = (
{
name = top;
position = "{768, 1400}";
}
);
components = (
{
name = O;
}
);
guideLines = (
{
angle = 90;
position = "{730, 350}";
},
{
angle = 90;
position = "{40, 350}";
}
);
layerId = UUID0;
paths = (
{
closed = 1;
nodes = (
"322 -88 LINE",
"1400 1488 LINE",
"1218 1488 LINE",
"140 -88 LINE"
);
}
);
width = 1540;
},
{
anchors = (
{
name = top;
position = "{760, 1400}";
}
);
components = (
{
name = O;
}
);
guideLines = (
{
angle = 90;
position = "{35, 350}";
},
{
angle = 90;
position = "{725, 350}";
}
);
layerId = "7C863538-AAB4-42AD-A9FE-7240E615272A";
paths = (
{
closed = 1;
nodes = (
"324 -88 LINE",
"1398 1488 LINE",
"1196 1488 LINE",
"122 -88 LINE"
);
}
);
width = 1520;
},
{
anchors = (
{
name = bottom;
position = "{768, 0}";
},
{
name = top;
position = "{768, 1400}";
}
);
associatedMasterId = UUID0;
layerId = "A2547FEE-9ACA-4FD2-950B-B2BDB7987CCD";
name = "Regular Sep 16 16, 01:17";
paths = (
{
closed = 1;
nodes = (
"330 -60 LINE",
"414 62 LINE",
"538 0 OFFCURVE",
"648 -24 OFFCURVE",
"766 -24 CURVE SMOOTH",
"1168 -24 OFFCURVE",
"1458 258 OFFCURVE",
"1458 698 CURVE SMOOTH",
"1458 924 OFFCURVE",
"1382 1108 OFFCURVE",
"1236 1254 CURVE",
"1358 1432 LINE",
"1174 1432 LINE",
"1112 1344 LINE",
"990 1404 OFFCURVE",
"884 1428 OFFCURVE",
"768 1428 CURVE SMOOTH",
"368 1428 OFFCURVE",
"78 1144 OFFCURVE",
"78 700 CURVE SMOOTH",
"78 480 OFFCURVE",
"150 300 OFFCURVE",
"290 150 CURVE",
"144 -60 LINE"
);
},
{
closed = 1;
nodes = (
"318 462 OFFCURVE",
"294 576 OFFCURVE",
"294 698 CURVE SMOOTH",
"294 1010 OFFCURVE",
"450 1250 OFFCURVE",
"766 1250 CURVE SMOOTH",
"842 1250 OFFCURVE",
"906 1236 OFFCURVE",
"1006 1194 CURVE",
"404 312 LINE"
);
},
{
closed = 1;
nodes = (
"692 152 OFFCURVE",
"622 166 OFFCURVE",
"520 210 CURVE",
"1126 1096 LINE",
"1216 986 OFFCURVE",
"1242 830 OFFCURVE",
"1242 704 CURVE SMOOTH",
"1242 392 OFFCURVE",
"1086 152 OFFCURVE",
"768 152 CURVE SMOOTH"
);
}
);
width = 1534;
},
{
associatedMasterId = "7C863538-AAB4-42AD-A9FE-7240E615272A";
layerId = "690A5614-9FE8-4B28-B43A-6879DD41E1A2";
name = "Bold Sep 16 16, 01:17";
paths = (
{
closed = 1;
nodes = (
"366 -62 LINE",
"438 44 LINE",
"532 -2 OFFCURVE",
"642 -28 OFFCURVE",
"760 -28 CURVE",
"1160 -28 OFFCURVE",
"1450 260 OFFCURVE",
"1450 700 CURVE SMOOTH",
"1450 920 OFFCURVE",
"1376 1104 OFFCURVE",
"1252 1230 CURVE",
"1390 1432 LINE",
"1122 1432 LINE",
"1072 1360 LINE",
"980 1404 OFFCURVE",
"874 1428 OFFCURVE",
"760 1428 CURVE SMOOTH",
"360 1428 OFFCURVE",
"70 1140 OFFCURVE",
"70 700 CURVE SMOOTH",
"70 482 OFFCURVE",
"140 302 OFFCURVE",
"260 174 CURVE",
"98 -62 LINE"
);
},
{
closed = 1;
nodes = (
"372 484 OFFCURVE",
"350 586 OFFCURVE",
"350 700 CURVE SMOOTH",
"350 980 OFFCURVE",
"488 1182 OFFCURVE",
"760 1182 CURVE",
"824 1182 OFFCURVE",
"880 1170 OFFCURVE",
"928 1150 CURVE",
"418 404 LINE"
);
},
{
closed = 1;
nodes = (
"692 218 OFFCURVE",
"632 230 OFFCURVE",
"582 252 CURVE",
"1096 1004 LINE",
"1146 922 OFFCURVE",
"1170 818 OFFCURVE",
"1170 700 CURVE SMOOTH",
"1170 420 OFFCURVE",
"1032 218 OFFCURVE",
"760 218 CURVE SMOOTH"
);
}
);
width = 1520;
},
{
anchors = (
{
name = top;
position = "{654, 1400}";
}
);
components = (
{
name = O;
}
);
guideLines = (
{
angle = 90;
position = "{30, 350}";
},
{
angle = 90;
position = "{623, 350}";
}
);
layerId = "A616F07E-65DE-4D07-A020-83605E49AA22";
paths = (
{
closed = 1;
nodes = (
"260 -88 LINE",
"1216 1488 LINE",
"1046 1488 LINE",
"90 -88 LINE"
);
}
);
width = 1306;
},
{
anchors = (
{
name = top;
position = "{658, 1400}";
}
);
components = (
{
name = O;
}
);
guideLines = (
{
angle = 90;
position = "{30, 350}";
},
{
angle = 90;
position = "{624, 350}";
}
);
layerId = "3AF73D1F-32CE-4CF3-BC01-E4A23F7DE30A";
paths = (
{
closed = 1;
nodes = (
"282 -88 LINE",
"1216 1488 LINE",
"1026 1488 LINE",
"92 -88 LINE"
);
}
);
width = 1308;
},
{
associatedMasterId = "A616F07E-65DE-4D07-A020-83605E49AA22";
layerId = "EFEBBC7C-2BDA-410A-8A2F-AB16121906D0";
name = "Condensed Sep 22 16, 02:18";
paths = (
{
closed = 1;
nodes = (
"292 -60 LINE",
"360 62 LINE",
"456 0 OFFCURVE",
"550 -24 OFFCURVE",
"652 -24 CURVE SMOOTH",
"652 -24 LINE",
"998 -24 OFFCURVE",
"1246 258 OFFCURVE",
"1246 698 CURVE SMOOTH",
"1246 924 OFFCURVE",
"1182 1108 OFFCURVE",
"1064 1254 CURVE",
"1176 1432 LINE",
"986 1432 LINE",
"938 1344 LINE",
"844 1404 OFFCURVE",
"752 1428 OFFCURVE",
"654 1428 CURVE SMOOTH",
"310 1428 OFFCURVE",
"60 1144 OFFCURVE",
"60 700 CURVE SMOOTH",
"60 480 OFFCURVE",
"122 300 OFFCURVE",
"234 150 CURVE",
"104 -60 LINE"
);
},
{
closed = 1;
nodes = (
"288 462 OFFCURVE",
"268 576 OFFCURVE",
"268 698 CURVE SMOOTH",
"268 1010 OFFCURVE",
"396 1250 OFFCURVE",
"652 1250 CURVE SMOOTH",
"652 1250 LINE",
"714 1250 OFFCURVE",
"766 1236 OFFCURVE",
"832 1194 CURVE",
"348 312 LINE"
);
},
{
closed = 1;
nodes = (
"590 152 OFFCURVE",
"534 166 OFFCURVE",
"466 210 CURVE",
"954 1096 LINE",
"1016 986 OFFCURVE",
"1038 830 OFFCURVE",
"1038 704 CURVE SMOOTH",
"1038 392 OFFCURVE",
"910 152 OFFCURVE",
"654 152 CURVE SMOOTH"
);
}
);
width = 1306;
},
{
associatedMasterId = "3AF73D1F-32CE-4CF3-BC01-E4A23F7DE30A";
layerId = "B91C55BC-D639-4C6B-A590-83B76C533620";
name = "Bold Condensed Sep 22 16, 02:18";
paths = (
{
closed = 1;
nodes = (
"330 -62 LINE",
"388 44 LINE",
"458 -2 OFFCURVE",
"552 -28 OFFCURVE",
"654 -28 CURVE SMOOTH",
"654 -28 LINE",
"998 -28 OFFCURVE",
"1246 260 OFFCURVE",
"1246 700 CURVE SMOOTH",
"1246 920 OFFCURVE",
"1184 1104 OFFCURVE",
"1086 1230 CURVE",
"1210 1432 LINE",
"948 1432 LINE",
"910 1360 LINE",
"842 1404 OFFCURVE",
"750 1428 OFFCURVE",
"654 1428 CURVE SMOOTH",
"310 1428 OFFCURVE",
"60 1140 OFFCURVE",
"60 700 CURVE SMOOTH",
"60 482 OFFCURVE",
"120 302 OFFCURVE",
"216 174 CURVE",
"70 -62 LINE"
);
},
{
closed = 1;
nodes = (
"342 484 OFFCURVE",
"324 586 OFFCURVE",
"324 700 CURVE SMOOTH",
"324 980 OFFCURVE",
"436 1182 OFFCURVE",
"654 1182 CURVE SMOOTH",
"654 1182 LINE",
"704 1182 OFFCURVE",
"750 1170 OFFCURVE",
"772 1150 CURVE",
"368 404 LINE"
);
},
{
closed = 1;
nodes = (
"598 218 OFFCURVE",
"550 230 OFFCURVE",
"526 252 CURVE",
"934 1004 LINE",
"962 922 OFFCURVE",
"982 818 OFFCURVE",
"982 700 CURVE SMOOTH",
"982 420 OFFCURVE",
"870 218 OFFCURVE",
"654 218 CURVE SMOOTH"
);
}
);
width = 1306;
}
);
leftKerningGroup = O;
leftMetricsKey = O;
rightKerningGroup = O;
rightMetricsKey = O;
unicode = 00D8;
},
{
glyphname = OE;
layers = (
{
layerId = UUID0;
paths = (
{
closed = 1;
nodes = (
"1102 -28 OFFCURVE",
"1400 256 OFFCURVE",
"1400 700 CURVE SMOOTH",
"1400 1144 OFFCURVE",
"1102 1428 OFFCURVE",
"744 1428 CURVE SMOOTH",
"358 1428 OFFCURVE",
"80 1144 OFFCURVE",
"80 700 CURVE SMOOTH",
"80 256 OFFCURVE",
"358 -28 OFFCURVE",
"744 -28 CURVE SMOOTH"
);
},
{
closed = 1;
nodes = (
"436 144 OFFCURVE",
"280 386 OFFCURVE",
"280 700 CURVE SMOOTH",
"280 1014 OFFCURVE",
"436 1256 OFFCURVE",
"756 1256 CURVE SMOOTH",
"1074 1256 OFFCURVE",
"1230 1014 OFFCURVE",
"1230 700 CURVE SMOOTH",
"1230 386 OFFCURVE",
"1074 144 OFFCURVE",
"756 144 CURVE SMOOTH"
);
},
{
closed = 1;
nodes = (
"2068 0 LINE",
"2068 172 LINE",
"1430 172 LINE",
"1430 646 LINE",
"1906 646 LINE",
"1906 818 LINE",
"1430 818 LINE",
"1430 1228 LINE",
"2050 1228 LINE",
"2050 1398 LINE",
"1248 1398 LINE",
"1248 0 LINE"
);
}
);
width = 2142;
},
{
layerId = "7C863538-AAB4-42AD-A9FE-7240E615272A";
paths = (
{
closed = 1;
nodes = (
"1112 -28 OFFCURVE",
"1398 260 OFFCURVE",
"1398 700 CURVE SMOOTH",
"1398 1140 OFFCURVE",
"1112 1428 OFFCURVE",
"760 1428 CURVE SMOOTH",
"360 1428 OFFCURVE",
"70 1140 OFFCURVE",
"70 700 CURVE SMOOTH",
"70 260 OFFCURVE",
"360 -28 OFFCURVE",
"760 -28 CURVE SMOOTH"
);
},
{
closed = 1;
nodes = (
"488 218 OFFCURVE",
"350 420 OFFCURVE",
"350 700 CURVE SMOOTH",
"350 980 OFFCURVE",
"488 1182 OFFCURVE",
"760 1182 CURVE SMOOTH",
"1032 1182 OFFCURVE",
"1170 980 OFFCURVE",
"1170 700 CURVE SMOOTH",
"1170 420 OFFCURVE",
"1032 218 OFFCURVE",
"760 218 CURVE SMOOTH"
);
},
{
closed = 1;
nodes = (
"2058 0 LINE",
"2058 248 LINE",
"1448 248 LINE",
"1448 606 LINE",
"1904 606 LINE",
"1904 854 LINE",
"1448 854 LINE",
"1448 1152 LINE",
"2040 1152 LINE",
"2040 1400 LINE",
"1186 1400 LINE",
"1186 0 LINE"
);
}
);
width = 2126;
},
{
associatedMasterId = UUID0;
layerId = "68E1AC4C-5243-4D86-9B48-7D5FCEF9918E";
name = "Regular Sep 7 16, 18:52";
paths = (
{
closed = 1;
nodes = (
"918 -28 OFFCURVE",
"1060 22 OFFCURVE",
"1248 166 CURVE",
"1248 0 LINE",
"2068 0 LINE",
"2068 172 LINE",
"1430 172 LINE",
"1430 646 LINE",
"1906 646 LINE",
"1906 818 LINE",
"1430 818 LINE",
"1430 1228 LINE",
"2050 1228 LINE",
"2050 1398 LINE",
"1248 1398 LINE",
"1248 1234 LINE",
"1060 1378 OFFCURVE",
"918 1428 OFFCURVE",
"756 1428 CURVE SMOOTH",
"364 1428 OFFCURVE",
"80 1144 OFFCURVE",
"80 700 CURVE SMOOTH",
"80 256 OFFCURVE",
"364 -28 OFFCURVE",
"756 -28 CURVE SMOOTH"
);
},
{
closed = 1;
nodes = (
"436 144 OFFCURVE",
"280 386 OFFCURVE",
"280 700 CURVE SMOOTH",
"280 1014 OFFCURVE",
"436 1256 OFFCURVE",
"756 1256 CURVE",
"1074 1256 OFFCURVE",
"1230 1014 OFFCURVE",
"1230 700 CURVE SMOOTH",
"1230 386 OFFCURVE",
"1074 144 OFFCURVE",
"756 144 CURVE SMOOTH"
);
}
);
width = 2142;
},
{
associatedMasterId = "7C863538-AAB4-42AD-A9FE-7240E615272A";
layerId = "A679C019-821F-4AB7-A8EC-ADCCFA97B1C6";
name = "Bold Sep 7 16, 18:52";
paths = (
{
closed = 1;
nodes = (
"924 -28 OFFCURVE",
"1070 22 OFFCURVE",
"1186 110 CURVE",
"1186 0 LINE",
"2058 0 LINE",
"2058 248 LINE",
"1448 248 LINE",
"1448 606 LINE",
"1904 606 LINE",
"1904 854 LINE",
"1448 854 LINE",
"1448 1152 LINE",
"2040 1152 LINE",
"2040 1400 LINE",
"1186 1400 LINE",
"1186 1290 LINE",
"1070 1378 OFFCURVE",
"924 1428 OFFCURVE",
"760 1428 CURVE SMOOTH",
"360 1428 OFFCURVE",
"70 1140 OFFCURVE",
"70 700 CURVE SMOOTH",
"70 260 OFFCURVE",
"360 -28 OFFCURVE",
"760 -28 CURVE SMOOTH"
);
},
{
closed = 1;
nodes = (
"488 218 OFFCURVE",
"350 420 OFFCURVE",
"350 700 CURVE SMOOTH",
"350 980 OFFCURVE",
"488 1182 OFFCURVE",
"760 1182 CURVE",
"1032 1182 OFFCURVE",
"1170 980 OFFCURVE",
"1170 700 CURVE SMOOTH",
"1170 420 OFFCURVE",
"1032 218 OFFCURVE",
"760 218 CURVE SMOOTH"
);
}
);
width = 2126;
},
{
layerId = "A616F07E-65DE-4D07-A020-83605E49AA22";
paths = (
{
closed = 1;
nodes = (
"974 -28 OFFCURVE",
"1206 286 OFFCURVE",
"1206 700 CURVE SMOOTH",
"1206 1114 OFFCURVE",
"974 1428 OFFCURVE",
"636 1428 CURVE SMOOTH",
"302 1428 OFFCURVE",
"60 1144 OFFCURVE",
"60 700 CURVE SMOOTH",
"60 256 OFFCURVE",
"302 -28 OFFCURVE",
"636 -28 CURVE SMOOTH"
);
},
{
closed = 1;
nodes = (
"396 144 OFFCURVE",
"264 390 OFFCURVE",
"264 700 CURVE SMOOTH",
"264 1010 OFFCURVE",
"396 1256 OFFCURVE",
"654 1256 CURVE SMOOTH",
"912 1256 OFFCURVE",
"1042 1010 OFFCURVE",
"1042 700 CURVE SMOOTH",
"1042 390 OFFCURVE",
"912 144 OFFCURVE",
"654 144 CURVE SMOOTH"
);
},
{
closed = 1;
nodes = (
"1812 0 LINE",
"1812 172 LINE",
"1236 172 LINE",
"1236 646 LINE",
"1676 646 LINE",
"1676 818 LINE",
"1236 818 LINE",
"1236 1228 LINE",
"1796 1228 LINE",
"1796 1400 LINE",
"1046 1400 LINE",
"1046 0 LINE"
);
}
);
width = 1870;
},
{
layerId = "3AF73D1F-32CE-4CF3-BC01-E4A23F7DE30A";
paths = (
{
closed = 1;
nodes = (
"976 -28 OFFCURVE",
"1206 300 OFFCURVE",
"1206 700 CURVE SMOOTH",
"1206 1100 OFFCURVE",
"976 1428 OFFCURVE",
"634 1428 CURVE SMOOTH",
"302 1428 OFFCURVE",
"60 1140 OFFCURVE",
"60 700 CURVE SMOOTH",
"60 260 OFFCURVE",
"302 -28 OFFCURVE",
"634 -28 CURVE SMOOTH"
);
},
{
closed = 1;
nodes = (
"438 218 OFFCURVE",
"328 420 OFFCURVE",
"328 700 CURVE SMOOTH",
"328 980 OFFCURVE",
"438 1182 OFFCURVE",
"654 1182 CURVE SMOOTH",
"870 1182 OFFCURVE",
"980 980 OFFCURVE",
"980 700 CURVE SMOOTH",
"980 420 OFFCURVE",
"870 218 OFFCURVE",
"654 218 CURVE SMOOTH"
);
},
{
closed = 1;
nodes = (
"1804 0 LINE",
"1804 248 LINE",
"1252 248 LINE",
"1252 606 LINE",
"1662 606 LINE",
"1662 854 LINE",
"1252 854 LINE",
"1252 1152 LINE",
"1786 1152 LINE",
"1786 1400 LINE",
"1000 1400 LINE",
"1000 0 LINE"
);
}
);
width = 1862;
}
);
leftKerningGroup = O;
rightKerningGroup = E;
unicode = 0152;
},
{
glyphname = P;
layers = (
{
background = {
paths = (
{
closed = 1;
nodes = (
"660 490 LINE SMOOTH",
"846 490 OFFCURVE",
"1092 600 OFFCURVE",
"1092 964 CURVE SMOOTH",
"1092 1340 OFFCURVE",
"906 1400 OFFCURVE",
"504 1400 CURVE SMOOTH",
"128 1400 LINE",
"128 0 LINE",
"328 0 LINE",
"328 490 LINE"
);
},
{
closed = 1;
nodes = (
"568 1230 LINE SMOOTH",
"814 1230 OFFCURVE",
"894 1156 OFFCURVE",
"894 956 CURVE SMOOTH",
"894 768 OFFCURVE",
"818 660 OFFCURVE",
"624 660 CURVE SMOOTH",
"328 660 LINE",
"328 1230 LINE"
);
}
);
};
layerId = UUID0;
paths = (
{
closed = 1;
nodes = (
"360 0 LINE",
"360 490 LINE",
"622 490 LINE SMOOTH",
"904 490 OFFCURVE",
"1096 624 OFFCURVE",
"1096 946 CURVE SMOOTH",
"1096 1274 OFFCURVE",
"904 1400 OFFCURVE",
"622 1400 CURVE SMOOTH",
"160 1400 LINE",
"160 0 LINE"
);
},
{
closed = 1;
nodes = (
"360 1230 LINE",
"594 1230 LINE SMOOTH",
"808 1230 OFFCURVE",
"900 1138 OFFCURVE",
"900 944 CURVE SMOOTH",
"900 750 OFFCURVE",
"798 660 OFFCURVE",
"594 660 CURVE SMOOTH",
"360 660 LINE"
);
}
);
width = 1144;
},
{
background = {
paths = (
{
closed = 1;
nodes = (
"528 460 LINE SMOOTH",
"960 460 OFFCURVE",
"1150 576 OFFCURVE",
"1150 956 CURVE SMOOTH",
"1150 1340 OFFCURVE",
"938 1400 OFFCURVE",
"550 1400 CURVE SMOOTH",
"154 1400 LINE",
"154 0 LINE",
"410 0 LINE",
"410 460 LINE"
);
},
{
closed = 1;
nodes = (
"620 1186 LINE SMOOTH",
"834 1186 OFFCURVE",
"890 1114 OFFCURVE",
"890 954 CURVE SMOOTH",
"890 764 OFFCURVE",
"812 700 OFFCURVE",
"626 700 CURVE SMOOTH",
"410 700 LINE",
"410 1186 LINE"
);
}
);
};
layerId = "7C863538-AAB4-42AD-A9FE-7240E615272A";
paths = (
{
closed = 1;
nodes = (
"410 0 LINE",
"410 486 LINE",
"658 486 LINE SMOOTH",
"974 486 OFFCURVE",
"1150 632 OFFCURVE",
"1150 948 CURVE SMOOTH",
"1150 1260 OFFCURVE",
"974 1400 OFFCURVE",
"652 1400 CURVE SMOOTH",
"154 1400 LINE",
"154 0 LINE"
);
},
{
closed = 1;
nodes = (
"410 1186 LINE",
"622 1186 LINE SMOOTH",
"802 1186 OFFCURVE",
"890 1112 OFFCURVE",
"890 944 CURVE SMOOTH",
"890 776 OFFCURVE",
"802 700 OFFCURVE",
"628 700 CURVE SMOOTH",
"410 700 LINE"
);
}
);
width = 1192;
},
{
associatedMasterId = UUID0;
background = {
paths = (
{
closed = 1;
nodes = (
"660 490 LINE SMOOTH",
"846 490 OFFCURVE",
"1092 600 OFFCURVE",
"1092 964 CURVE SMOOTH",
"1092 1340 OFFCURVE",
"906 1400 OFFCURVE",
"504 1400 CURVE SMOOTH",
"128 1400 LINE",
"128 0 LINE",
"328 0 LINE",
"328 490 LINE"
);
},
{
closed = 1;
nodes = (
"568 1230 LINE SMOOTH",
"814 1230 OFFCURVE",
"894 1156 OFFCURVE",
"894 956 CURVE SMOOTH",
"894 768 OFFCURVE",
"818 660 OFFCURVE",
"624 660 CURVE SMOOTH",
"328 660 LINE",
"328 1230 LINE"
);
}
);
};
layerId = "245AF583-0EB8-4E1A-920B-20FF58D64D55";
name = "Regular Sep 7 16, 14:04";
paths = (
{
closed = 1;
nodes = (
"360 0 LINE",
"360 490 LINE",
"664 490 LINE SMOOTH",
"850 490 OFFCURVE",
"1096 600 OFFCURVE",
"1096 964 CURVE SMOOTH",
"1096 1340 OFFCURVE",
"868 1400 OFFCURVE",
"608 1400 CURVE SMOOTH",
"160 1400 LINE",
"160 0 LINE"
);
},
{
closed = 1;
nodes = (
"360 1230 LINE",
"572 1230 LINE SMOOTH",
"818 1230 OFFCURVE",
"898 1156 OFFCURVE",
"898 956 CURVE SMOOTH",
"898 768 OFFCURVE",
"822 660 OFFCURVE",
"628 660 CURVE SMOOTH",
"360 660 LINE"
);
}
);
width = 1144;
},
{
associatedMasterId = "7C863538-AAB4-42AD-A9FE-7240E615272A";
background = {
paths = (
{
closed = 1;
nodes = (
"528 460 LINE SMOOTH",
"960 460 OFFCURVE",
"1150 576 OFFCURVE",
"1150 956 CURVE SMOOTH",
"1150 1340 OFFCURVE",
"938 1400 OFFCURVE",
"550 1400 CURVE SMOOTH",
"154 1400 LINE",
"154 0 LINE",
"410 0 LINE",
"410 460 LINE"
);
},
{
closed = 1;
nodes = (
"620 1186 LINE SMOOTH",
"834 1186 OFFCURVE",
"890 1114 OFFCURVE",
"890 954 CURVE SMOOTH",
"890 764 OFFCURVE",
"812 700 OFFCURVE",
"626 700 CURVE SMOOTH",
"410 700 LINE",
"410 1186 LINE"
);
}
);
};
layerId = "70BF247B-CFAA-4243-8112-0DF3AA9DD639";
name = "Bold Sep 7 16, 14:04";
paths = (
{
closed = 1;
nodes = (
"410 0 LINE",
"410 460 LINE",
"660 460 LINE SMOOTH",
"858 460 OFFCURVE",
"1150 554 OFFCURVE",
"1150 956 CURVE SMOOTH",
"1150 1340 OFFCURVE",
"938 1400 OFFCURVE",
"550 1400 CURVE SMOOTH",
"154 1400 LINE",
"154 0 LINE"
);
},
{
closed = 1;
nodes = (
"410 1186 LINE",
"620 1186 LINE SMOOTH",
"834 1186 OFFCURVE",
"890 1114 OFFCURVE",
"890 954 CURVE SMOOTH",
"890 764 OFFCURVE",
"812 700 OFFCURVE",
"626 700 CURVE SMOOTH",
"410 700 LINE"
);
}
);
width = 1192;
},
{
background = {
paths = (
{
closed = 1;
nodes = (
"686 490 LINE SMOOTH",
"872 490 OFFCURVE",
"1118 600 OFFCURVE",
"1118 964 CURVE SMOOTH",
"1118 1340 OFFCURVE",
"932 1400 OFFCURVE",
"530 1400 CURVE SMOOTH",
"154 1400 LINE",
"154 0 LINE",
"354 0 LINE",
"354 490 LINE"
);
},
{
closed = 1;
nodes = (
"594 1230 LINE SMOOTH",
"840 1230 OFFCURVE",
"920 1156 OFFCURVE",
"920 956 CURVE SMOOTH",
"920 768 OFFCURVE",
"844 660 OFFCURVE",
"650 660 CURVE SMOOTH",
"354 660 LINE",
"354 1230 LINE"
);
}
);
};
layerId = "A616F07E-65DE-4D07-A020-83605E49AA22";
paths = (
{
closed = 1;
nodes = (
"332 0 LINE",
"332 490 LINE",
"508 490 LINE SMOOTH",
"796 490 OFFCURVE",
"974 646 OFFCURVE",
"974 946 CURVE SMOOTH",
"974 1246 OFFCURVE",
"796 1400 OFFCURVE",
"508 1400 CURVE SMOOTH",
"148 1400 LINE",
"148 0 LINE"
);
},
{
closed = 1;
nodes = (
"332 1232 LINE",
"492 1232 LINE SMOOTH",
"694 1232 OFFCURVE",
"782 1126 OFFCURVE",
"782 946 CURVE SMOOTH",
"782 766 OFFCURVE",
"694 658 OFFCURVE",
"492 658 CURVE SMOOTH",
"332 658 LINE"
);
}
);
width = 1010;
},
{
background = {
paths = (
{
closed = 1;
nodes = (
"528 460 LINE SMOOTH",
"960 460 OFFCURVE",
"1150 576 OFFCURVE",
"1150 956 CURVE SMOOTH",
"1150 1340 OFFCURVE",
"938 1400 OFFCURVE",
"550 1400 CURVE SMOOTH",
"154 1400 LINE",
"154 0 LINE",
"410 0 LINE",
"410 460 LINE"
);
},
{
closed = 1;
nodes = (
"620 1186 LINE SMOOTH",
"834 1186 OFFCURVE",
"890 1114 OFFCURVE",
"890 954 CURVE SMOOTH",
"890 764 OFFCURVE",
"812 700 OFFCURVE",
"626 700 CURVE SMOOTH",
"410 700 LINE",
"410 1186 LINE"
);
}
);
};
layerId = "3AF73D1F-32CE-4CF3-BC01-E4A23F7DE30A";
paths = (
{
closed = 1;
nodes = (
"364 0 LINE",
"364 472 LINE",
"528 472 LINE SMOOTH",
"808 472 OFFCURVE",
"998 620 OFFCURVE",
"998 936 CURVE SMOOTH",
"998 1252 OFFCURVE",
"808 1400 OFFCURVE",
"528 1400 CURVE SMOOTH",
"120 1400 LINE",
"120 0 LINE"
);
},
{
closed = 1;
nodes = (
"364 1188 LINE",
"506 1188 LINE SMOOTH",
"654 1188 OFFCURVE",
"746 1110 OFFCURVE",
"746 936 CURVE SMOOTH",
"746 748 OFFCURVE",
"654 684 OFFCURVE",
"506 684 CURVE SMOOTH",
"364 684 LINE"
);
}
);
width = 1038;
},
{
associatedMasterId = "A616F07E-65DE-4D07-A020-83605E49AA22";
background = {
paths = (
{
closed = 1;
nodes = (
"686 490 LINE SMOOTH",
"872 490 OFFCURVE",
"1118 600 OFFCURVE",
"1118 964 CURVE SMOOTH",
"1118 1340 OFFCURVE",
"932 1400 OFFCURVE",
"530 1400 CURVE SMOOTH",
"154 1400 LINE",
"154 0 LINE",
"354 0 LINE",
"354 490 LINE"
);
},
{
closed = 1;
nodes = (
"594 1230 LINE SMOOTH",
"840 1230 OFFCURVE",
"920 1156 OFFCURVE",
"920 956 CURVE SMOOTH",
"920 768 OFFCURVE",
"844 660 OFFCURVE",
"650 660 CURVE SMOOTH",
"354 660 LINE",
"354 1230 LINE"
);
}
);
};
layerId = "E8C0090D-1C47-42B3-9DA9-F2FB4DD53EB9";
name = "Condensed Sep 19 16, 18:47";
paths = (
{
closed = 1;
nodes = (
"340 0 LINE",
"340 490 LINE",
"582 490 LINE SMOOTH",
"746 490 OFFCURVE",
"974 600 OFFCURVE",
"974 964 CURVE SMOOTH",
"974 1340 OFFCURVE",
"784 1400 OFFCURVE",
"514 1400 CURVE SMOOTH",
"148 1400 LINE",
"148 0 LINE"
);
},
{
closed = 1;
nodes = (
"340 1230 LINE",
"522 1230 LINE SMOOTH",
"722 1230 OFFCURVE",
"782 1156 OFFCURVE",
"782 956 CURVE SMOOTH",
"782 768 OFFCURVE",
"716 660 OFFCURVE",
"552 660 CURVE SMOOTH",
"340 660 LINE"
);
}
);
width = 1010;
},
{
associatedMasterId = "3AF73D1F-32CE-4CF3-BC01-E4A23F7DE30A";
background = {
paths = (
{
closed = 1;
nodes = (
"528 460 LINE SMOOTH",
"960 460 OFFCURVE",
"1150 576 OFFCURVE",
"1150 956 CURVE SMOOTH",
"1150 1340 OFFCURVE",
"938 1400 OFFCURVE",
"550 1400 CURVE SMOOTH",
"154 1400 LINE",
"154 0 LINE",
"410 0 LINE",
"410 460 LINE"
);
},
{
closed = 1;
nodes = (
"620 1186 LINE SMOOTH",
"834 1186 OFFCURVE",
"890 1114 OFFCURVE",
"890 954 CURVE SMOOTH",
"890 764 OFFCURVE",
"812 700 OFFCURVE",
"626 700 CURVE SMOOTH",
"410 700 LINE",
"410 1186 LINE"
);
}
);
};
layerId = "F859BC28-6F9F-4258-B210-712E74B741EA";
name = "Bold Condensed Sep 19 16, 18:47";
paths = (
{
closed = 1;
nodes = (
"360 0 LINE",
"360 460 LINE",
"556 460 LINE SMOOTH",
"730 460 OFFCURVE",
"998 554 OFFCURVE",
"998 956 CURVE SMOOTH",
"998 1340 OFFCURVE",
"822 1400 OFFCURVE",
"442 1400 CURVE SMOOTH",
"120 1400 LINE",
"120 0 LINE"
);
},
{
closed = 1;
nodes = (
"360 1186 LINE",
"540 1186 LINE SMOOTH",
"712 1186 OFFCURVE",
"752 1114 OFFCURVE",
"752 954 CURVE SMOOTH",
"752 764 OFFCURVE",
"684 700 OFFCURVE",
"528 700 CURVE SMOOTH",
"360 700 LINE"
);
}
);
width = 1038;
}
);
leftKerningGroup = I;
unicode = 0050;
},
{
glyphname = Thorn;
layers = (
{
layerId = UUID0;
paths = (
{
closed = 1;
nodes = (
"360 0 LINE",
"360 382 LINE",
"690 382 LINE SMOOTH",
"974 382 OFFCURVE",
"1100 524 OFFCURVE",
"1100 736 CURVE SMOOTH",
"1100 948 OFFCURVE",
"976 1090 OFFCURVE",
"690 1090 CURVE SMOOTH",
"360 1090 LINE",
"360 1400 LINE",
"160 1400 LINE",
"160 0 LINE"
);
},
{
closed = 1;
nodes = (
"360 920 LINE",
"676 920 LINE SMOOTH",
"826 920 OFFCURVE",
"904 856 OFFCURVE",
"904 736 CURVE SMOOTH",
"904 616 OFFCURVE",
"826 552 OFFCURVE",
"676 552 CURVE SMOOTH",
"360 552 LINE"
);
}
);
width = 1148;
},
{
layerId = "7C863538-AAB4-42AD-A9FE-7240E615272A";
paths = (
{
closed = 1;
nodes = (
"410 0 LINE",
"410 330 LINE",
"646 330 LINE SMOOTH",
"942 330 OFFCURVE",
"1094 470 OFFCURVE",
"1094 720 CURVE SMOOTH",
"1094 970 OFFCURVE",
"942 1110 OFFCURVE",
"646 1110 CURVE SMOOTH",
"410 1110 LINE",
"410 1400 LINE",
"154 1400 LINE",
"154 0 LINE"
);
},
{
closed = 1;
nodes = (
"410 896 LINE",
"616 896 LINE SMOOTH",
"782 896 OFFCURVE",
"834 844 OFFCURVE",
"834 720 CURVE SMOOTH",
"834 610 OFFCURVE",
"782 544 OFFCURVE",
"616 544 CURVE SMOOTH",
"410 544 LINE"
);
}
);
width = 1136;
},
{
associatedMasterId = "7C863538-AAB4-42AD-A9FE-7240E615272A";
layerId = "A2B80D7A-485A-476D-9567-D2AE5A22F83C";
name = "Bold Sep 16 16, 01:43";
paths = (
{
closed = 1;
nodes = (
"410 0 LINE",
"410 386 LINE",
"502 386 LINE SMOOTH",
"894 386 OFFCURVE",
"1094 478 OFFCURVE",
"1094 778 CURVE SMOOTH",
"1094 1090 OFFCURVE",
"878 1138 OFFCURVE",
"502 1138 CURVE SMOOTH",
"410 1138 LINE",
"410 1400 LINE",
"154 1400 LINE",
"154 0 LINE"
);
},
{
closed = 1;
nodes = (
"410 942 LINE",
"568 942 LINE SMOOTH",
"774 942 OFFCURVE",
"834 890 OFFCURVE",
"834 766 CURVE SMOOTH",
"834 648 OFFCURVE",
"770 578 OFFCURVE",
"568 578 CURVE SMOOTH",
"410 578 LINE"
);
}
);
width = 1128;
},
{
layerId = "A616F07E-65DE-4D07-A020-83605E49AA22";
paths = (
{
closed = 1;
nodes = (
"332 0 LINE",
"332 382 LINE",
"578 382 LINE SMOOTH",
"862 382 OFFCURVE",
"988 524 OFFCURVE",
"988 736 CURVE SMOOTH",
"988 948 OFFCURVE",
"864 1090 OFFCURVE",
"578 1090 CURVE SMOOTH",
"332 1090 LINE",
"332 1400 LINE",
"148 1400 LINE",
"148 0 LINE"
);
},
{
closed = 1;
nodes = (
"332 930 LINE",
"564 930 LINE SMOOTH",
"722 930 OFFCURVE",
"804 862 OFFCURVE",
"804 736 CURVE SMOOTH",
"804 610 OFFCURVE",
"722 542 OFFCURVE",
"564 542 CURVE SMOOTH",
"332 542 LINE"
);
}
);
width = 1024;
},
{
layerId = "3AF73D1F-32CE-4CF3-BC01-E4A23F7DE30A";
paths = (
{
closed = 1;
nodes = (
"364 0 LINE",
"364 330 LINE",
"572 330 LINE SMOOTH",
"868 330 OFFCURVE",
"1020 470 OFFCURVE",
"1020 720 CURVE SMOOTH",
"1020 970 OFFCURVE",
"868 1110 OFFCURVE",
"572 1110 CURVE SMOOTH",
"364 1110 LINE",
"364 1400 LINE",
"120 1400 LINE",
"120 0 LINE"
);
},
{
closed = 1;
nodes = (
"364 910 LINE",
"542 910 LINE SMOOTH",
"720 910 OFFCURVE",
"776 854 OFFCURVE",
"776 720 CURVE SMOOTH",
"776 602 OFFCURVE",
"720 530 OFFCURVE",
"542 530 CURVE SMOOTH",
"364 530 LINE"
);
}
);
width = 1060;
},
{
associatedMasterId = "A616F07E-65DE-4D07-A020-83605E49AA22";
layerId = "6F40A53D-6F1B-4EBD-BF9B-4510422C8DC0";
name = "Condensed Sep 22 16, 02:53";
paths = (
{
closed = 1;
nodes = (
"340 0 LINE",
"340 250 LINE",
"582 250 LINE SMOOTH",
"746 250 OFFCURVE",
"974 360 OFFCURVE",
"974 724 CURVE SMOOTH",
"974 1100 OFFCURVE",
"784 1160 OFFCURVE",
"514 1160 CURVE",
"340 1160 LINE",
"340 1400 LINE",
"148 1400 LINE",
"148 0 LINE"
);
},
{
closed = 1;
nodes = (
"340 990 LINE",
"522 990 LINE SMOOTH",
"722 990 OFFCURVE",
"782 916 OFFCURVE",
"782 716 CURVE SMOOTH",
"782 528 OFFCURVE",
"716 420 OFFCURVE",
"552 420 CURVE SMOOTH",
"340 420 LINE"
);
}
);
width = 1010;
},
{
associatedMasterId = "3AF73D1F-32CE-4CF3-BC01-E4A23F7DE30A";
layerId = "747BAD72-7A52-4CFF-91B4-3491C289B56F";
name = "Bold Condensed Sep 22 16, 02:53";
paths = (
{
closed = 1;
nodes = (
"360 0 LINE",
"360 228 LINE",
"556 228 LINE SMOOTH",
"730 228 OFFCURVE",
"998 322 OFFCURVE",
"998 724 CURVE SMOOTH",
"998 1108 OFFCURVE",
"822 1168 OFFCURVE",
"442 1168 CURVE",
"360 1168 LINE",
"360 1400 LINE",
"120 1400 LINE",
"120 0 LINE"
);
},
{
closed = 1;
nodes = (
"360 954 LINE",
"540 954 LINE SMOOTH",
"712 954 OFFCURVE",
"752 882 OFFCURVE",
"752 722 CURVE SMOOTH",
"752 532 OFFCURVE",
"684 468 OFFCURVE",
"528 468 CURVE SMOOTH",
"360 468 LINE"
);
}
);
visible = 1;
width = 1038;
}
);
leftKerningGroup = I;
leftMetricsKey = I;
rightMetricsKey = P;
unicode = 00DE;
},
{
glyphname = Q;
layers = (
{
components = (
{
name = O;
}
);
layerId = UUID0;
paths = (
{
closed = 1;
nodes = (
"1322 -28 LINE",
"1430 82 LINE",
"990 514 LINE",
"882 404 LINE"
);
}
);
width = 1540;
},
{
components = (
{
name = O;
}
);
layerId = "7C863538-AAB4-42AD-A9FE-7240E615272A";
paths = (
{
closed = 1;
nodes = (
"1290 -38 LINE",
"1448 132 LINE",
"960 596 LINE",
"802 426 LINE"
);
}
);
width = 1520;
},
{
associatedMasterId = UUID0;
layerId = "13B6650E-EE8C-44A1-B9A7-471E487220D1";
name = "Regular Sep 7 16, 14:04";
paths = (
{
closed = 1;
nodes = (
"924 -28 OFFCURVE",
"1064 16 OFFCURVE",
"1200 114 CURVE",
"1330 6 LINE",
"1430 124 LINE",
"1310 222 LINE",
"1412 374 OFFCURVE",
"1458 526 OFFCURVE",
"1458 700 CURVE SMOOTH",
"1458 1144 OFFCURVE",
"1168 1428 OFFCURVE",
"768 1428 CURVE SMOOTH",
"368 1428 OFFCURVE",
"78 1144 OFFCURVE",
"78 700 CURVE SMOOTH",
"78 256 OFFCURVE",
"368 -28 OFFCURVE",
"768 -28 CURVE SMOOTH"
);
},
{
closed = 1;
nodes = (
"444 144 OFFCURVE",
"286 388 OFFCURVE",
"286 700 CURVE SMOOTH",
"286 1012 OFFCURVE",
"444 1256 OFFCURVE",
"768 1256 CURVE",
"1092 1256 OFFCURVE",
"1270 1012 OFFCURVE",
"1270 700 CURVE SMOOTH",
"1270 588 OFFCURVE",
"1262 466 OFFCURVE",
"1174 328 CURVE",
"964 514 LINE",
"864 392 LINE",
"1070 224 LINE",
"980 158 OFFCURVE",
"858 144 OFFCURVE",
"768 144 CURVE SMOOTH"
);
}
);
width = 1536;
},
{
associatedMasterId = "7C863538-AAB4-42AD-A9FE-7240E615272A";
layerId = "07DFF14C-DB06-4784-9037-7332FF84B373";
name = "Bold Sep 7 16, 14:04";
paths = (
{
closed = 1;
nodes = (
"914 -28 OFFCURVE",
"1054 14 OFFCURVE",
"1164 94 CURVE",
"1302 -20 LINE",
"1450 158 LINE",
"1326 260 LINE",
"1404 378 OFFCURVE",
"1450 528 OFFCURVE",
"1450 700 CURVE SMOOTH",
"1450 1140 OFFCURVE",
"1160 1428 OFFCURVE",
"760 1428 CURVE SMOOTH",
"360 1428 OFFCURVE",
"70 1140 OFFCURVE",
"70 700 CURVE SMOOTH",
"70 260 OFFCURVE",
"360 -28 OFFCURVE",
"760 -28 CURVE SMOOTH"
);
},
{
closed = 1;
nodes = (
"488 218 OFFCURVE",
"350 420 OFFCURVE",
"350 700 CURVE SMOOTH",
"350 980 OFFCURVE",
"488 1182 OFFCURVE",
"760 1182 CURVE",
"1032 1182 OFFCURVE",
"1170 980 OFFCURVE",
"1170 700 CURVE SMOOTH",
"1170 600 OFFCURVE",
"1152 510 OFFCURVE",
"1116 436 CURVE",
"940 584 LINE",
"792 406 LINE",
"960 264 LINE",
"904 234 OFFCURVE",
"838 218 OFFCURVE",
"760 218 CURVE SMOOTH"
);
}
);
width = 1520;
},
{
components = (
{
name = O;
}
);
layerId = "A616F07E-65DE-4D07-A020-83605E49AA22";
paths = (
{
closed = 1;
nodes = (
"1118 -28 LINE",
"1232 80 LINE",
"816 512 LINE",
"702 404 LINE"
);
}
);
width = 1306;
},
{
components = (
{
name = O;
}
);
layerId = "3AF73D1F-32CE-4CF3-BC01-E4A23F7DE30A";
paths = (
{
closed = 1;
nodes = (
"1100 -28 LINE",
"1258 130 LINE",
"810 554 LINE",
"652 396 LINE"
);
}
);
width = 1308;
},
{
associatedMasterId = "A616F07E-65DE-4D07-A020-83605E49AA22";
layerId = "19610E8E-CD14-48C0-970C-2227A6F76230";
name = "Condensed Sep 19 16, 18:47";
paths = (
{
closed = 1;
nodes = (
"786 -28 OFFCURVE",
"908 16 OFFCURVE",
"1014 114 CURVE",
"1130 6 LINE",
"1232 124 LINE",
"1128 222 LINE",
"1208 374 OFFCURVE",
"1246 526 OFFCURVE",
"1246 700 CURVE SMOOTH",
"1246 1144 OFFCURVE",
"998 1428 OFFCURVE",
"654 1428 CURVE SMOOTH",
"310 1428 OFFCURVE",
"60 1144 OFFCURVE",
"60 700 CURVE SMOOTH",
"60 256 OFFCURVE",
"310 -28 OFFCURVE",
"654 -28 CURVE SMOOTH"
);
},
{
closed = 1;
nodes = (
"394 144 OFFCURVE",
"264 388 OFFCURVE",
"264 700 CURVE SMOOTH",
"264 1012 OFFCURVE",
"394 1256 OFFCURVE",
"654 1256 CURVE SMOOTH",
"654 1256 LINE",
"914 1256 OFFCURVE",
"1052 1012 OFFCURVE",
"1052 700 CURVE SMOOTH",
"1052 588 OFFCURVE",
"1042 466 OFFCURVE",
"984 328 CURVE",
"816 514 LINE",
"712 392 LINE",
"876 224 LINE",
"812 158 OFFCURVE",
"726 144 OFFCURVE",
"654 144 CURVE SMOOTH"
);
}
);
width = 1306;
},
{
associatedMasterId = "3AF73D1F-32CE-4CF3-BC01-E4A23F7DE30A";
layerId = "A0F48E69-F88D-4C94-A932-CF82D2A89616";
name = "Bold Condensed Sep 19 16, 18:47";
paths = (
{
closed = 1;
nodes = (
"786 -28 OFFCURVE",
"906 14 OFFCURVE",
"990 94 CURVE",
"1112 -20 LINE",
"1258 158 LINE",
"1150 260 LINE",
"1208 378 OFFCURVE",
"1246 528 OFFCURVE",
"1246 700 CURVE SMOOTH",
"1246 1140 OFFCURVE",
"998 1428 OFFCURVE",
"654 1428 CURVE SMOOTH",
"310 1428 OFFCURVE",
"60 1140 OFFCURVE",
"60 700 CURVE SMOOTH",
"60 260 OFFCURVE",
"310 -28 OFFCURVE",
"654 -28 CURVE SMOOTH"
);
},
{
closed = 1;
nodes = (
"438 218 OFFCURVE",
"328 420 OFFCURVE",
"328 700 CURVE SMOOTH",
"328 980 OFFCURVE",
"438 1182 OFFCURVE",
"654 1182 CURVE SMOOTH",
"654 1182 LINE",
"868 1182 OFFCURVE",
"972 980 OFFCURVE",
"972 700 CURVE SMOOTH",
"972 600 OFFCURVE",
"952 510 OFFCURVE",
"940 436 CURVE",
"802 584 LINE",
"658 406 LINE",
"788 264 LINE",
"752 234 OFFCURVE",
"716 218 OFFCURVE",
"654 218 CURVE SMOOTH"
);
}
);
width = 1308;
},
{
associatedMasterId = "3AF73D1F-32CE-4CF3-BC01-E4A23F7DE30A";
components = (
{
name = O;
}
);
layerId = "51F6C414-C98D-4309-8117-C53D0DF0DA10";
name = "Bold Condensed Sep 20 16, 15:58";
paths = (
{
closed = 1;
nodes = (
"1100 -28 LINE",
"1258 130 LINE",
"810 554 LINE",
"652 396 LINE"
);
}
);
visible = 1;
width = 1308;
}
);
leftKerningGroup = O;
rightKerningGroup = O;
unicode = 0051;
},
{
glyphname = R;
layers = (
{
anchors = (
{
name = bottom;
position = "{662, 0}";
},
{
name = top;
position = "{614, 1400}";
}
);
layerId = UUID0;
paths = (
{
closed = 1;
nodes = (
"360 0 LINE",
"360 546 LINE",
"642 546 LINE SMOOTH",
"646 546 OFFCURVE",
"648 546 OFFCURVE",
"652 546 CURVE",
"936 0 LINE",
"1168 0 LINE",
"854 580 LINE",
"1012 654 OFFCURVE",
"1098 782 OFFCURVE",
"1098 974 CURVE SMOOTH",
"1098 1270 OFFCURVE",
"906 1400 OFFCURVE",
"614 1400 CURVE SMOOTH",
"160 1400 LINE",
"160 0 LINE"
);
},
{
closed = 1;
nodes = (
"360 1230 LINE",
"612 1230 LINE SMOOTH",
"802 1230 OFFCURVE",
"900 1136 OFFCURVE",
"900 974 CURVE SMOOTH",
"900 814 OFFCURVE",
"802 716 OFFCURVE",
"612 716 CURVE SMOOTH",
"360 716 LINE"
);
}
);
width = 1206;
},
{
anchors = (
{
name = bottom;
position = "{686, 0}";
},
{
name = top;
position = "{638, 1400}";
}
);
layerId = "7C863538-AAB4-42AD-A9FE-7240E615272A";
paths = (
{
closed = 1;
nodes = (
"410 0 LINE",
"410 520 LINE",
"660 520 LINE SMOOTH",
"664 520 OFFCURVE",
"666 520 OFFCURVE",
"670 520 CURVE",
"940 0 LINE",
"1226 0 LINE",
"910 588 LINE",
"1052 658 OFFCURVE",
"1148 770 OFFCURVE",
"1148 976 CURVE SMOOTH",
"1148 1264 OFFCURVE",
"956 1400 OFFCURVE",
"666 1400 CURVE SMOOTH",
"154 1400 LINE",
"154 0 LINE"
);
},
{
closed = 1;
nodes = (
"410 1186 LINE",
"608 1186 LINE SMOOTH",
"808 1186 OFFCURVE",
"880 1102 OFFCURVE",
"880 962 CURVE SMOOTH",
"880 830 OFFCURVE",
"808 734 OFFCURVE",
"598 734 CURVE SMOOTH",
"410 734 LINE"
);
}
);
width = 1252;
},
{
anchors = (
{
name = bottom;
position = "{661, 0}";
},
{
name = top;
position = "{615, 1400}";
}
);
associatedMasterId = UUID0;
layerId = "312694A0-52E8-402E-A029-2652740DDAE5";
name = "Regular Sep 7 16, 14:04";
paths = (
{
closed = 1;
nodes = (
"360 0 LINE",
"360 546 LINE",
"654 546 LINE",
"964 0 LINE",
"1168 0 LINE",
"842 596 LINE",
"1004 672 OFFCURVE",
"1098 818 OFFCURVE",
"1098 990 CURVE SMOOTH",
"1098 1304 OFFCURVE",
"906 1400 OFFCURVE",
"614 1400 CURVE SMOOTH",
"160 1400 LINE",
"160 0 LINE"
);
},
{
closed = 1;
nodes = (
"360 1246 LINE",
"612 1246 LINE SMOOTH",
"802 1246 OFFCURVE",
"900 1152 OFFCURVE",
"900 990 CURVE SMOOTH",
"900 794 OFFCURVE",
"766 730 OFFCURVE",
"662 730 CURVE SMOOTH",
"360 730 LINE"
);
}
);
width = 1206;
},
{
anchors = (
{
name = bottom;
position = "{686, 0}";
},
{
name = top;
position = "{638, 1400}";
}
);
associatedMasterId = "7C863538-AAB4-42AD-A9FE-7240E615272A";
layerId = "2E03E743-B312-4B57-81AB-DEEF8235C446";
name = "Bold Sep 7 16, 14:04";
paths = (
{
closed = 1;
nodes = (
"410 0 LINE",
"410 520 LINE",
"670 520 LINE",
"960 0 LINE",
"1226 0 LINE",
"910 588 LINE",
"1042 670 OFFCURVE",
"1148 780 OFFCURVE",
"1148 996 CURVE SMOOTH",
"1148 1300 OFFCURVE",
"936 1400 OFFCURVE",
"666 1400 CURVE SMOOTH",
"154 1400 LINE",
"154 0 LINE"
);
},
{
closed = 1;
nodes = (
"410 1186 LINE",
"608 1186 LINE SMOOTH",
"828 1186 OFFCURVE",
"880 1108 OFFCURVE",
"880 978 CURVE SMOOTH",
"880 852 OFFCURVE",
"830 760 OFFCURVE",
"598 760 CURVE SMOOTH",
"410 760 LINE"
);
}
);
width = 1252;
},
{
anchors = (
{
name = bottom;
position = "{576, 0}";
},
{
name = top;
position = "{542, 1400}";
}
);
layerId = "A616F07E-65DE-4D07-A020-83605E49AA22";
paths = (
{
closed = 1;
nodes = (
"330 0 LINE",
"330 544 LINE",
"506 544 LINE SMOOTH",
"528 544 OFFCURVE",
"554 546 OFFCURVE",
"570 548 CURVE",
"820 0 LINE",
"1036 0 LINE",
"757 602 LINE",
"894 675 OFFCURVE",
"972 810 OFFCURVE",
"972 972 CURVE SMOOTH",
"972 1256 OFFCURVE",
"794 1400 OFFCURVE",
"506 1400 CURVE SMOOTH",
"146 1400 LINE",
"146 0 LINE"
);
},
{
closed = 1;
nodes = (
"330 1232 LINE",
"490 1232 LINE SMOOTH",
"694 1232 OFFCURVE",
"780 1140 OFFCURVE",
"780 972 CURVE SMOOTH",
"780 804 OFFCURVE",
"694 712 OFFCURVE",
"490 712 CURVE SMOOTH",
"330 712 LINE"
);
}
);
width = 1082;
},
{
anchors = (
{
name = bottom;
position = "{580, 0}";
},
{
name = top;
position = "{538, 1400}";
}
);
layerId = "3AF73D1F-32CE-4CF3-BC01-E4A23F7DE30A";
paths = (
{
closed = 1;
nodes = (
"366 0 LINE",
"366 520 LINE",
"544 520 LINE SMOOTH",
"552 520 OFFCURVE",
"558 520 OFFCURVE",
"566 520 CURVE",
"794 0 LINE",
"1068 0 LINE",
"800 587 LINE",
"924 661 OFFCURVE",
"998 792 OFFCURVE",
"998 968 CURVE SMOOTH",
"998 1276 OFFCURVE",
"810 1400 OFFCURVE",
"530 1400 CURVE SMOOTH",
"122 1400 LINE",
"122 0 LINE"
);
},
{
closed = 1;
nodes = (
"366 1188 LINE",
"508 1188 LINE SMOOTH",
"658 1188 OFFCURVE",
"746 1124 OFFCURVE",
"746 960 CURVE SMOOTH",
"746 796 OFFCURVE",
"658 732 OFFCURVE",
"508 732 CURVE SMOOTH",
"366 732 LINE"
);
}
);
width = 1074;
},
{
associatedMasterId = "A616F07E-65DE-4D07-A020-83605E49AA22";
layerId = "651ED788-0B61-4E98-9D7A-1EDF1A45E30D";
name = "Condensed Sep 19 16, 18:47";
paths = (
{
closed = 1;
nodes = (
"338 0 LINE",
"338 546 LINE",
"578 546 LINE",
"838 0 LINE",
"1036 0 LINE",
"760 596 LINE",
"888 672 OFFCURVE",
"972 818 OFFCURVE",
"972 990 CURVE SMOOTH",
"972 1304 OFFCURVE",
"800 1400 OFFCURVE",
"558 1400 CURVE SMOOTH",
"146 1400 LINE",
"146 0 LINE"
);
},
{
closed = 1;
nodes = (
"338 1246 LINE",
"536 1246 LINE SMOOTH",
"710 1246 OFFCURVE",
"778 1152 OFFCURVE",
"778 990 CURVE SMOOTH",
"778 794 OFFCURVE",
"692 730 OFFCURVE",
"556 730 CURVE SMOOTH",
"338 730 LINE"
);
}
);
width = 1082;
},
{
associatedMasterId = "3AF73D1F-32CE-4CF3-BC01-E4A23F7DE30A";
layerId = "F8659B6D-98A3-407F-8B49-1AC1FFA842E5";
name = "Bold Condensed Sep 19 16, 18:47";
paths = (
{
closed = 1;
nodes = (
"362 0 LINE",
"362 520 LINE",
"574 520 LINE",
"816 0 LINE",
"1068 0 LINE",
"800 588 LINE",
"902 670 OFFCURVE",
"998 780 OFFCURVE",
"998 996 CURVE SMOOTH",
"998 1300 OFFCURVE",
"808 1400 OFFCURVE",
"584 1400 CURVE SMOOTH",
"122 1400 LINE",
"122 0 LINE"
);
},
{
closed = 1;
nodes = (
"362 1186 LINE",
"514 1186 LINE SMOOTH",
"714 1186 OFFCURVE",
"742 1108 OFFCURVE",
"742 978 CURVE SMOOTH",
"742 852 OFFCURVE",
"730 760 OFFCURVE",
"482 760 CURVE SMOOTH",
"362 760 LINE"
);
}
);
width = 1074;
},
{
associatedMasterId = "3AF73D1F-32CE-4CF3-BC01-E4A23F7DE30A";
layerId = "1598FBEC-A2DD-4B7F-9B85-87F696C9A3DD";
name = "Bold Condensed Sep 20 16, 16:16";
paths = (
{
closed = 1;
nodes = (
"554 550 LINE",
"794 0 LINE",
"1068 0 LINE",
"786 618 LINE"
);
},
{
closed = 1;
nodes = (
"366 1188 LINE",
"508 1188 LINE SMOOTH",
"658 1188 OFFCURVE",
"746 1124 OFFCURVE",
"746 960 CURVE SMOOTH",
"746 796 OFFCURVE",
"658 732 OFFCURVE",
"508 732 CURVE SMOOTH",
"366 732 LINE"
);
},
{
closed = 1;
nodes = (
"810 520 OFFCURVE",
"998 688 OFFCURVE",
"998 968 CURVE SMOOTH",
"998 1284 OFFCURVE",
"810 1400 OFFCURVE",
"530 1400 CURVE SMOOTH",
"122 1400 LINE",
"122 0 LINE",
"366 0 LINE",
"366 520 LINE",
"530 520 LINE SMOOTH"
);
}
);
width = 1074;
},
{
associatedMasterId = "A616F07E-65DE-4D07-A020-83605E49AA22";
layerId = "8C63B0DB-74DB-41F0-93C0-CF2B29231CCD";
name = "Condensed Sep 20 16, 16:18";
paths = (
{
closed = 1;
nodes = (
"558 574 LINE",
"820 0 LINE",
"1036 0 LINE",
"746 626 LINE"
);
},
{
closed = 1;
nodes = (
"330 1232 LINE",
"490 1232 LINE SMOOTH",
"694 1232 OFFCURVE",
"780 1140 OFFCURVE",
"780 972 CURVE SMOOTH",
"780 804 OFFCURVE",
"694 712 OFFCURVE",
"490 712 CURVE SMOOTH",
"330 712 LINE"
);
},
{
closed = 1;
nodes = (
"794 544 OFFCURVE",
"972 728 OFFCURVE",
"972 972 CURVE SMOOTH",
"972 1256 OFFCURVE",
"794 1400 OFFCURVE",
"506 1400 CURVE SMOOTH",
"146 1400 LINE",
"146 0 LINE",
"330 0 LINE",
"330 544 LINE",
"506 544 LINE SMOOTH"
);
}
);
visible = 1;
width = 1082;
}
);
leftKerningGroup = I;
unicode = 0052;
},
{
glyphname = S;
layers = (
{
anchors = (
{
name = bottom;
position = "{586, 0}";
},
{
name = top;
position = "{632, 1400}";
}
);
layerId = UUID0;
paths = (
{
closed = 1;
nodes = (
"926 -28 OFFCURVE",
"1106 122 OFFCURVE",
"1106 362 CURVE SMOOTH",
"1106 606 OFFCURVE",
"930 718 OFFCURVE",
"638 806 CURVE SMOOTH",
"426 870 OFFCURVE",
"318 920 OFFCURVE",
"318 1060 CURVE SMOOTH",
"318 1198 OFFCURVE",
"438 1256 OFFCURVE",
"602 1256 CURVE SMOOTH",
"750 1256 OFFCURVE",
"882 1220 OFFCURVE",
"1034 1130 CURVE",
"1054 1332 LINE",
"954 1380 OFFCURVE",
"794 1428 OFFCURVE",
"610 1428 CURVE SMOOTH",
"286 1428 OFFCURVE",
"110 1272 OFFCURVE",
"110 1050 CURVE SMOOTH",
"110 790 OFFCURVE",
"306 704 OFFCURVE",
"536 636 CURVE SMOOTH",
"778 564 OFFCURVE",
"898 506 OFFCURVE",
"898 348 CURVE SMOOTH",
"898 208 OFFCURVE",
"784 144 OFFCURVE",
"604 144 CURVE SMOOTH",
"422 144 OFFCURVE",
"236 212 OFFCURVE",
"128 264 CURVE",
"102 62 LINE",
"200 16 OFFCURVE",
"386 -28 OFFCURVE",
"560 -28 CURVE SMOOTH"
);
}
);
width = 1168;
},
{
anchors = (
{
name = bottom;
position = "{586, 0}";
},
{
name = top;
position = "{622, 1400}";
}
);
layerId = "7C863538-AAB4-42AD-A9FE-7240E615272A";
paths = (
{
closed = 1;
nodes = (
"1032 -28 OFFCURVE",
"1102 220 OFFCURVE",
"1102 380 CURVE SMOOTH",
"1102 620 OFFCURVE",
"942 730 OFFCURVE",
"638 826 CURVE SMOOTH",
"462 882 OFFCURVE",
"356 918 OFFCURVE",
"356 1036 CURVE SMOOTH",
"356 1134 OFFCURVE",
"440 1184 OFFCURVE",
"590 1184 CURVE SMOOTH",
"732 1184 OFFCURVE",
"864 1146 OFFCURVE",
"1022 1076 CURVE",
"1048 1338 LINE",
"938 1382 OFFCURVE",
"776 1428 OFFCURVE",
"606 1428 CURVE SMOOTH",
"268 1428 OFFCURVE",
"96 1260 OFFCURVE",
"96 1028 CURVE SMOOTH",
"96 792 OFFCURVE",
"266 698 OFFCURVE",
"490 620 CURVE SMOOTH",
"714 542 OFFCURVE",
"816 506 OFFCURVE",
"816 380 CURVE SMOOTH",
"816 270 OFFCURVE",
"726 218 OFFCURVE",
"590 218 CURVE SMOOTH",
"426 218 OFFCURVE",
"266 278 OFFCURVE",
"126 346 CURVE",
"96 74 LINE",
"186 30 OFFCURVE",
"390 -28 OFFCURVE",
"560 -28 CURVE SMOOTH"
);
}
);
width = 1160;
},
{
associatedMasterId = UUID0;
layerId = "9088D6E4-E2BE-4E5B-92E5-7E926331F2E4";
name = "Regular Sep 7 16, 14:04";
paths = (
{
closed = 1;
nodes = (
"1044 -28 OFFCURVE",
"1106 214 OFFCURVE",
"1106 362 CURVE SMOOTH",
"1106 666 OFFCURVE",
"836 740 OFFCURVE",
"590 816 CURVE SMOOTH",
"422 868 OFFCURVE",
"288 920 OFFCURVE",
"288 1050 CURVE SMOOTH",
"288 1196 OFFCURVE",
"458 1256 OFFCURVE",
"602 1256 CURVE SMOOTH",
"742 1256 OFFCURVE",
"868 1198 OFFCURVE",
"1004 1130 CURVE",
"1024 1332 LINE",
"944 1376 OFFCURVE",
"766 1428 OFFCURVE",
"584 1428 CURVE SMOOTH",
"200 1428 OFFCURVE",
"80 1198 OFFCURVE",
"80 1024 CURVE SMOOTH",
"80 784 OFFCURVE",
"304 716 OFFCURVE",
"536 642 CURVE SMOOTH",
"738 578 OFFCURVE",
"898 518 OFFCURVE",
"898 360 CURVE SMOOTH",
"898 202 OFFCURVE",
"736 144 OFFCURVE",
"564 144 CURVE SMOOTH",
"374 144 OFFCURVE",
"220 216 OFFCURVE",
"128 284 CURVE",
"102 62 LINE",
"188 16 OFFCURVE",
"354 -28 OFFCURVE",
"560 -28 CURVE"
);
}
);
width = 1168;
},
{
associatedMasterId = "7C863538-AAB4-42AD-A9FE-7240E615272A";
layerId = "E4F97DED-0297-4675-ABAC-493D79B44458";
name = "Bold Sep 7 16, 14:04";
paths = (
{
closed = 1;
nodes = (
"1032 -28 OFFCURVE",
"1102 220 OFFCURVE",
"1102 380 CURVE SMOOTH",
"1102 688 OFFCURVE",
"836 768 OFFCURVE",
"618 834 CURVE SMOOTH",
"466 880 OFFCURVE",
"336 924 OFFCURVE",
"336 1036 CURVE SMOOTH",
"336 1156 OFFCURVE",
"484 1184 OFFCURVE",
"592 1184 CURVE SMOOTH",
"726 1184 OFFCURVE",
"852 1140 OFFCURVE",
"1002 1058 CURVE",
"1028 1320 LINE",
"956 1368 OFFCURVE",
"774 1428 OFFCURVE",
"582 1428 CURVE SMOOTH",
"204 1428 OFFCURVE",
"76 1194 OFFCURVE",
"76 1008 CURVE SMOOTH",
"76 758 OFFCURVE",
"292 688 OFFCURVE",
"490 620 CURVE SMOOTH",
"660 562 OFFCURVE",
"816 512 OFFCURVE",
"816 370 CURVE SMOOTH",
"816 256 OFFCURVE",
"716 218 OFFCURVE",
"566 218 CURVE SMOOTH",
"356 218 OFFCURVE",
"202 292 OFFCURVE",
"126 366 CURVE",
"96 74 LINE",
"176 22 OFFCURVE",
"348 -28 OFFCURVE",
"560 -28 CURVE"
);
}
);
width = 1160;
},
{
anchors = (
{
name = bottom;
position = "{490, 0}";
},
{
name = top;
position = "{522, 1400}";
}
);
layerId = "A616F07E-65DE-4D07-A020-83605E49AA22";
paths = (
{
closed = 1;
nodes = (
"764 -28 OFFCURVE",
"948 118 OFFCURVE",
"948 356 CURVE SMOOTH",
"948 558 OFFCURVE",
"828 672 OFFCURVE",
"590 780 CURVE SMOOTH",
"382 874 OFFCURVE",
"270 926 OFFCURVE",
"270 1066 CURVE SMOOTH",
"270 1202 OFFCURVE",
"370 1260 OFFCURVE",
"516 1260 CURVE SMOOTH",
"634 1260 OFFCURVE",
"742 1228 OFFCURVE",
"856 1162 CURVE",
"876 1352 LINE",
"798 1390 OFFCURVE",
"672 1428 OFFCURVE",
"526 1428 CURVE SMOOTH",
"256 1428 OFFCURVE",
"66 1282 OFFCURVE",
"66 1054 CURVE SMOOTH",
"66 822 OFFCURVE",
"222 736 OFFCURVE",
"444 636 CURVE SMOOTH",
"644 546 OFFCURVE",
"744 482 OFFCURVE",
"744 338 CURVE SMOOTH",
"744 206 OFFCURVE",
"642 140 OFFCURVE",
"482 140 CURVE SMOOTH",
"348 140 OFFCURVE",
"210 190 OFFCURVE",
"110 252 CURVE",
"84 50 LINE",
"170 10 OFFCURVE",
"328 -28 OFFCURVE",
"464 -28 CURVE SMOOTH"
);
}
);
width = 998;
},
{
anchors = (
{
name = bottom;
position = "{534, 0}";
},
{
name = top;
position = "{542, 1400}";
}
);
layerId = "3AF73D1F-32CE-4CF3-BC01-E4A23F7DE30A";
paths = (
{
closed = 1;
nodes = (
"786 -28 OFFCURVE",
"964 132 OFFCURVE",
"964 378 CURVE SMOOTH",
"964 584 OFFCURVE",
"848 692 OFFCURVE",
"624 800 CURVE SMOOTH",
"448 884 OFFCURVE",
"342 926 OFFCURVE",
"342 1040 CURVE SMOOTH",
"342 1134 OFFCURVE",
"410 1182 OFFCURVE",
"532 1182 CURVE SMOOTH",
"650 1182 OFFCURVE",
"760 1146 OFFCURVE",
"890 1082 CURVE",
"916 1346 LINE",
"810 1394 OFFCURVE",
"692 1428 OFFCURVE",
"552 1428 CURVE SMOOTH",
"254 1428 OFFCURVE",
"82 1260 OFFCURVE",
"82 1030 CURVE SMOOTH",
"82 824 OFFCURVE",
"200 724 OFFCURVE",
"422 624 CURVE SMOOTH",
"630 530 OFFCURVE",
"704 476 OFFCURVE",
"704 368 CURVE SMOOTH",
"704 270 OFFCURVE",
"626 218 OFFCURVE",
"500 218 CURVE SMOOTH",
"364 218 OFFCURVE",
"240 260 OFFCURVE",
"112 330 CURVE",
"82 58 LINE",
"190 4 OFFCURVE",
"340 -28 OFFCURVE",
"484 -28 CURVE SMOOTH"
);
}
);
width = 1014;
},
{
associatedMasterId = "A616F07E-65DE-4D07-A020-83605E49AA22";
layerId = "EECC82D8-5E50-4A7F-ACB9-19426813AD85";
name = "Condensed Sep 19 16, 18:47";
paths = (
{
closed = 1;
nodes = (
"824 -28 OFFCURVE",
"948 112 OFFCURVE",
"948 370 CURVE SMOOTH",
"948 638 OFFCURVE",
"744 718 OFFCURVE",
"516 814 CURVE SMOOTH",
"382 872 OFFCURVE",
"264 918 OFFCURVE",
"264 1046 CURVE SMOOTH",
"264 1170 OFFCURVE",
"380 1256 OFFCURVE",
"510 1256 CURVE SMOOTH",
"614 1256 OFFCURVE",
"722 1224 OFFCURVE",
"856 1138 CURVE",
"880 1332 LINE",
"800 1386 OFFCURVE",
"642 1428 OFFCURVE",
"498 1428 CURVE SMOOTH",
"216 1428 OFFCURVE",
"66 1264 OFFCURVE",
"66 1022 CURVE SMOOTH",
"66 808 OFFCURVE",
"226 740 OFFCURVE",
"444 634 CURVE SMOOTH",
"622 546 OFFCURVE",
"742 500 OFFCURVE",
"742 362 CURVE SMOOTH",
"742 226 OFFCURVE",
"642 144 OFFCURVE",
"486 144 CURVE SMOOTH",
"328 144 OFFCURVE",
"194 196 OFFCURVE",
"108 284 CURVE",
"84 62 LINE",
"166 8 OFFCURVE",
"316 -28 OFFCURVE",
"480 -28 CURVE SMOOTH",
"480 -28 LINE"
);
}
);
width = 998;
},
{
associatedMasterId = "3AF73D1F-32CE-4CF3-BC01-E4A23F7DE30A";
layerId = "66367A82-0674-4425-A63C-066B59164FF2";
name = "Bold Condensed Sep 19 16, 18:47";
paths = (
{
closed = 1;
nodes = (
"952 -28 OFFCURVE",
"964 220 OFFCURVE",
"964 380 CURVE SMOOTH",
"964 690 OFFCURVE",
"716 770 OFFCURVE",
"560 832 CURVE SMOOTH",
"434 882 OFFCURVE",
"324 924 OFFCURVE",
"324 1036 CURVE SMOOTH",
"324 1156 OFFCURVE",
"460 1184 OFFCURVE",
"526 1184 CURVE SMOOTH",
"648 1184 OFFCURVE",
"758 1140 OFFCURVE",
"882 1058 CURVE",
"904 1320 LINE",
"856 1368 OFFCURVE",
"700 1428 OFFCURVE",
"520 1428 CURVE SMOOTH",
"164 1428 OFFCURVE",
"82 1196 OFFCURVE",
"82 1006 CURVE SMOOTH",
"82 758 OFFCURVE",
"292 684 OFFCURVE",
"422 620 CURVE SMOOTH",
"544 560 OFFCURVE",
"690 512 OFFCURVE",
"690 370 CURVE SMOOTH",
"690 256 OFFCURVE",
"614 218 OFFCURVE",
"504 218 CURVE SMOOTH",
"306 218 OFFCURVE",
"176 294 OFFCURVE",
"126 362 CURVE",
"98 74 LINE",
"158 22 OFFCURVE",
"304 -28 OFFCURVE",
"500 -28 CURVE SMOOTH",
"500 -28 LINE"
);
}
);
visible = 1;
width = 1014;
}
);
leftKerningGroup = S;
rightKerningGroup = S;
unicode = 0053;
},
{
glyphname = Germandbls;
layers = (
{
layerId = UUID0;
paths = (
{
closed = 1;
nodes = (
"350 0 LINE",
"350 986 LINE SMOOTH",
"350 1162 OFFCURVE",
"476 1268 OFFCURVE",
"670 1268 CURVE SMOOTH",
"798 1268 OFFCURVE",
"894 1238 OFFCURVE",
"958 1206 CURVE",
"974 1290 LINE",
"590 822 LINE",
"590 670 LINE",
"638 670 LINE SMOOTH",
"846 670 OFFCURVE",
"952 570 OFFCURVE",
"952 394 CURVE SMOOTH",
"952 238 OFFCURVE",
"854 144 OFFCURVE",
"700 144 CURVE SMOOTH",
"634 144 OFFCURVE",
"574 150 OFFCURVE",
"514 164 CURVE",
"514 0 LINE",
"580 -18 OFFCURVE",
"642 -28 OFFCURVE",
"714 -28 CURVE SMOOTH",
"940 -28 OFFCURVE",
"1152 108 OFFCURVE",
"1152 396 CURVE SMOOTH",
"1152 698 OFFCURVE",
"930 814 OFFCURVE",
"682 814 CURVE",
"726 730 LINE",
"1082 1158 LINE",
"1082 1310 LINE",
"984 1378 OFFCURVE",
"842 1428 OFFCURVE",
"670 1428 CURVE SMOOTH",
"368 1428 OFFCURVE",
"160 1282 OFFCURVE",
"160 982 CURVE SMOOTH",
"160 0 LINE"
);
}
);
width = 1230;
},
{
layerId = "7C863538-AAB4-42AD-A9FE-7240E615272A";
paths = (
{
closed = 1;
nodes = (
"410 0 LINE",
"410 906 LINE SMOOTH",
"410 1090 OFFCURVE",
"536 1202 OFFCURVE",
"730 1202 CURVE SMOOTH",
"872 1202 OFFCURVE",
"978 1162 OFFCURVE",
"1048 1120 CURVE",
"1070 1286 LINE",
"650 848 LINE",
"650 636 LINE",
"744 636 LINE SMOOTH",
"922 636 OFFCURVE",
"1012 560 OFFCURVE",
"1012 424 CURVE SMOOTH",
"1012 296 OFFCURVE",
"920 218 OFFCURVE",
"776 218 CURVE SMOOTH",
"706 218 OFFCURVE",
"640 224 OFFCURVE",
"574 238 CURVE",
"574 0 LINE",
"648 -18 OFFCURVE",
"728 -28 OFFCURVE",
"814 -28 CURVE SMOOTH",
"1080 -28 OFFCURVE",
"1292 114 OFFCURVE",
"1292 410 CURVE SMOOTH",
"1292 720 OFFCURVE",
"1060 840 OFFCURVE",
"742 840 CURVE",
"786 696 LINE",
"1172 1098 LINE",
"1172 1310 LINE",
"1066 1378 OFFCURVE",
"914 1428 OFFCURVE",
"730 1428 CURVE SMOOTH",
"388 1428 OFFCURVE",
"154 1256 OFFCURVE",
"154 902 CURVE SMOOTH",
"154 0 LINE"
);
}
);
width = 1340;
},
{
layerId = "A616F07E-65DE-4D07-A020-83605E49AA22";
paths = (
{
closed = 1;
nodes = (
"316 0 LINE",
"316 986 LINE SMOOTH",
"316 1154 OFFCURVE",
"420 1256 OFFCURVE",
"582 1256 CURVE SMOOTH",
"684 1256 OFFCURVE",
"760 1232 OFFCURVE",
"810 1206 CURVE",
"818 1302 LINE",
"502 816 LINE",
"502 670 LINE",
"530 670 LINE SMOOTH",
"712 670 OFFCURVE",
"804 572 OFFCURVE",
"804 398 CURVE SMOOTH",
"804 238 OFFCURVE",
"720 140 OFFCURVE",
"588 140 CURVE SMOOTH",
"530 140 OFFCURVE",
"478 148 OFFCURVE",
"426 166 CURVE",
"426 0 LINE",
"480 -16 OFFCURVE",
"544 -28 OFFCURVE",
"606 -28 CURVE SMOOTH",
"814 -28 OFFCURVE",
"1008 104 OFFCURVE",
"1008 384 CURVE SMOOTH",
"1008 662 OFFCURVE",
"846 798 OFFCURVE",
"574 814 CURVE",
"648 730 LINE",
"934 1176 LINE",
"934 1322 LINE",
"850 1384 OFFCURVE",
"728 1428 OFFCURVE",
"582 1428 CURVE SMOOTH",
"316 1428 OFFCURVE",
"132 1282 OFFCURVE",
"132 982 CURVE SMOOTH",
"132 0 LINE"
);
}
);
width = 1072;
},
{
layerId = "3AF73D1F-32CE-4CF3-BC01-E4A23F7DE30A";
paths = (
{
closed = 1;
nodes = (
"388 0 LINE",
"388 910 LINE SMOOTH",
"388 1094 OFFCURVE",
"484 1206 OFFCURVE",
"652 1206 CURVE SMOOTH",
"730 1206 OFFCURVE",
"784 1184 OFFCURVE",
"846 1142 CURVE",
"836 1304 LINE",
"538 838 LINE",
"538 636 LINE",
"612 636 LINE SMOOTH",
"750 636 OFFCURVE",
"820 560 OFFCURVE",
"820 424 CURVE SMOOTH",
"820 296 OFFCURVE",
"746 218 OFFCURVE",
"632 218 CURVE SMOOTH",
"590 218 OFFCURVE",
"552 224 OFFCURVE",
"512 238 CURVE",
"512 0 LINE",
"568 -18 OFFCURVE",
"630 -28 OFFCURVE",
"696 -28 CURVE SMOOTH",
"914 -28 OFFCURVE",
"1088 114 OFFCURVE",
"1088 410 CURVE SMOOTH",
"1088 720 OFFCURVE",
"886 840 OFFCURVE",
"610 840 CURVE",
"706 696 LINE",
"970 1126 LINE",
"970 1328 LINE",
"880 1386 OFFCURVE",
"766 1428 OFFCURVE",
"620 1428 CURVE SMOOTH",
"330 1428 OFFCURVE",
"132 1258 OFFCURVE",
"132 906 CURVE SMOOTH",
"132 0 LINE"
);
}
);
width = 1160;
}
);
leftMetricsKey = B;
unicode = 1E9E;
},
{
glyphname = Schwa;
layers = (
{
layerId = UUID0;
paths = (
{
closed = 1;
nodes = (
"1110 350 OFFCURVE",
"942 144 OFFCURVE",
"670 144 CURVE SMOOTH",
"394 144 OFFCURVE",
"268 296 OFFCURVE",
"268 534 CURVE",
"1198 534 LINE",
"1198 702 LINE",
"72 702 LINE",
"62 652 OFFCURVE",
"60 604 OFFCURVE",
"60 564 CURVE SMOOTH",
"60 186 OFFCURVE",
"314 -28 OFFCURVE",
"664 -28 CURVE SMOOTH",
"1078 -28 OFFCURVE",
"1318 294 OFFCURVE",
"1318 680 CURVE SMOOTH",
"1318 1142 OFFCURVE",
"1056 1428 OFFCURVE",
"638 1428 CURVE SMOOTH",
"442 1428 OFFCURVE",
"264 1378 OFFCURVE",
"122 1310 CURVE",
"158 1150 LINE",
"302 1212 OFFCURVE",
"454 1256 OFFCURVE",
"616 1256 CURVE SMOOTH",
"936 1256 OFFCURVE",
"1110 1040 OFFCURVE",
"1110 684 CURVE SMOOTH"
);
}
);
width = 1398;
},
{
layerId = "7C863538-AAB4-42AD-A9FE-7240E615272A";
paths = (
{
closed = 1;
nodes = (
"1078 376 OFFCURVE",
"930 218 OFFCURVE",
"690 218 CURVE SMOOTH",
"466 218 OFFCURVE",
"352 352 OFFCURVE",
"340 524 CURVE",
"1218 524 LINE",
"1218 752 LINE",
"76 752 LINE",
"64 694 OFFCURVE",
"60 636 OFFCURVE",
"60 588 CURVE SMOOTH",
"60 214 OFFCURVE",
"310 -28 OFFCURVE",
"682 -28 CURVE SMOOTH",
"1108 -28 OFFCURVE",
"1358 280 OFFCURVE",
"1358 680 CURVE SMOOTH",
"1358 1100 OFFCURVE",
"1098 1428 OFFCURVE",
"638 1428 CURVE SMOOTH",
"450 1428 OFFCURVE",
"276 1380 OFFCURVE",
"142 1310 CURVE",
"158 1070 LINE",
"296 1136 OFFCURVE",
"454 1182 OFFCURVE",
"616 1182 CURVE SMOOTH",
"916 1182 OFFCURVE",
"1078 994 OFFCURVE",
"1078 684 CURVE SMOOTH"
);
}
);
width = 1428;
},
{
layerId = "A616F07E-65DE-4D07-A020-83605E49AA22";
paths = (
{
closed = 1;
nodes = (
"920 350 OFFCURVE",
"800 144 OFFCURVE",
"570 144 CURVE SMOOTH",
"348 144 OFFCURVE",
"248 296 OFFCURVE",
"248 534 CURVE",
"990 534 LINE",
"990 702 LINE",
"64 702 LINE",
"56 650 OFFCURVE",
"52 598 OFFCURVE",
"52 548 CURVE SMOOTH",
"52 180 OFFCURVE",
"272 -28 OFFCURVE",
"576 -28 CURVE SMOOTH",
"918 -28 OFFCURVE",
"1116 294 OFFCURVE",
"1116 680 CURVE SMOOTH",
"1116 1142 OFFCURVE",
"894 1428 OFFCURVE",
"540 1428 CURVE SMOOTH",
"374 1428 OFFCURVE",
"238 1380 OFFCURVE",
"114 1310 CURVE",
"150 1150 LINE",
"272 1214 OFFCURVE",
"384 1256 OFFCURVE",
"514 1256 CURVE SMOOTH",
"790 1256 OFFCURVE",
"920 1040 OFFCURVE",
"920 684 CURVE SMOOTH"
);
}
);
width = 1176;
},
{
layerId = "3AF73D1F-32CE-4CF3-BC01-E4A23F7DE30A";
paths = (
{
closed = 1;
nodes = (
"868 404 OFFCURVE",
"790 218 OFFCURVE",
"588 218 CURVE SMOOTH",
"402 218 OFFCURVE",
"318 324 OFFCURVE",
"318 524 CURVE",
"978 524 LINE",
"978 752 LINE",
"76 752 LINE",
"64 686 OFFCURVE",
"60 622 OFFCURVE",
"60 568 CURVE SMOOTH",
"60 206 OFFCURVE",
"250 -28 OFFCURVE",
"584 -28 CURVE SMOOTH",
"918 -28 OFFCURVE",
"1128 240 OFFCURVE",
"1128 680 CURVE SMOOTH",
"1128 1120 OFFCURVE",
"926 1428 OFFCURVE",
"568 1428 CURVE SMOOTH",
"392 1428 OFFCURVE",
"260 1390 OFFCURVE",
"142 1330 CURVE",
"158 1090 LINE",
"268 1146 OFFCURVE",
"382 1182 OFFCURVE",
"506 1182 CURVE SMOOTH",
"772 1182 OFFCURVE",
"868 994 OFFCURVE",
"868 684 CURVE SMOOTH"
);
}
);
width = 1188;
}
);
rightMetricsKey = O;
unicode = 018F;
},
{
glyphname = T;
layers = (
{
anchors = (
{
name = bottom;
position = "{534, 0}";
},
{
name = top;
position = "{534, 1400}";
}
);
layerId = UUID0;
paths = (
{
closed = 1;
nodes = (
"628 0 LINE",
"628 1228 LINE",
"1036 1228 LINE",
"1036 1400 LINE",
"30 1400 LINE",
"30 1228 LINE",
"438 1228 LINE",
"438 0 LINE"
);
}
);
width = 1066;
},
{
anchors = (
{
name = bottom;
position = "{554, 0}";
},
{
name = top;
position = "{554, 1400}";
}
);
layerId = "7C863538-AAB4-42AD-A9FE-7240E615272A";
paths = (
{
closed = 1;
nodes = (
"682 0 LINE",
"682 1152 LINE",
"1078 1152 LINE",
"1078 1400 LINE",
"30 1400 LINE",
"30 1152 LINE",
"426 1152 LINE",
"426 0 LINE"
);
}
);
width = 1108;
},
{
anchors = (
{
name = bottom;
position = "{534, 0}";
},
{
name = top;
position = "{534, 1400}";
}
);
associatedMasterId = UUID0;
layerId = "26BB27D7-6CFD-44EF-A975-1A8731FAA91A";
name = "Regular Sep 7 16, 14:04";
paths = (
{
closed = 1;
nodes = (
"628 0 LINE",
"628 1228 LINE",
"1036 1228 LINE",
"1036 1400 LINE",
"30 1400 LINE",
"30 1228 LINE",
"438 1228 LINE",
"438 0 LINE"
);
}
);
width = 1066;
},
{
anchors = (
{
name = bottom;
position = "{555, 0}";
},
{
name = top;
position = "{555, 1400}";
}
);
associatedMasterId = "7C863538-AAB4-42AD-A9FE-7240E615272A";
layerId = "C841B6D7-0C98-4BBA-89BD-E87621AF261C";
name = "Bold Sep 7 16, 14:04";
paths = (
{
closed = 1;
nodes = (
"682 0 LINE",
"682 1152 LINE",
"1078 1152 LINE",
"1078 1400 LINE",
"30 1400 LINE",
"30 1152 LINE",
"426 1152 LINE",
"426 0 LINE"
);
}
);
width = 1108;
},
{
anchors = (
{
name = bottom;
position = "{476, 0}";
},
{
name = top;
position = "{476, 1400}";
}
);
layerId = "A616F07E-65DE-4D07-A020-83605E49AA22";
paths = (
{
closed = 1;
nodes = (
"568 0 LINE",
"568 1232 LINE",
"916 1232 LINE",
"916 1400 LINE",
"36 1400 LINE",
"36 1232 LINE",
"384 1232 LINE",
"384 0 LINE"
);
}
);
width = 952;
},
{
anchors = (
{
name = bottom;
position = "{476, 0}";
},
{
name = top;
position = "{476, 1400}";
}
);
layerId = "3AF73D1F-32CE-4CF3-BC01-E4A23F7DE30A";
paths = (
{
closed = 1;
nodes = (
"598 0 LINE",
"598 1176 LINE",
"934 1176 LINE",
"934 1400 LINE",
"18 1400 LINE",
"18 1176 LINE",
"354 1176 LINE",
"354 0 LINE"
);
}
);
width = 952;
},
{
associatedMasterId = "A616F07E-65DE-4D07-A020-83605E49AA22";
layerId = "DDEB7C92-7FE4-40A9-B9B3-33B933BCDE6A";
name = "Condensed Sep 19 16, 18:47";
paths = (
{
closed = 1;
nodes = (
"570 0 LINE",
"570 1228 LINE",
"916 1228 LINE",
"916 1400 LINE",
"36 1400 LINE",
"36 1228 LINE",
"382 1228 LINE",
"382 0 LINE"
);
}
);
width = 952;
},
{
associatedMasterId = "3AF73D1F-32CE-4CF3-BC01-E4A23F7DE30A";
layerId = "A3AEBD56-372E-4F87-9240-AA83617825AB";
name = "Bold Condensed Sep 19 16, 18:47";
paths = (
{
closed = 1;
nodes = (
"598 0 LINE",
"598 1152 LINE",
"934 1152 LINE",
"934 1400 LINE",
"18 1400 LINE",
"18 1152 LINE",
"354 1152 LINE",
"354 0 LINE"
);
}
);
width = 952;
}
);
unicode = 0054;
},
{
glyphname = Tbar;
layers = (
{
layerId = UUID0;
paths = (
{
closed = 1;
nodes = (
"628 0 LINE",
"628 1228 LINE",
"1036 1228 LINE",
"1036 1400 LINE",
"30 1400 LINE",
"30 1228 LINE",
"438 1228 LINE",
"438 0 LINE"
);
},
{
closed = 1;
nodes = (
"888 654 LINE",
"888 780 LINE",
"178 780 LINE",
"178 654 LINE"
);
}
);
width = 1066;
},
{
layerId = "7C863538-AAB4-42AD-A9FE-7240E615272A";
paths = (
{
closed = 1;
nodes = (
"682 0 LINE",
"682 1152 LINE",
"1078 1152 LINE",
"1078 1400 LINE",
"30 1400 LINE",
"30 1152 LINE",
"426 1152 LINE",
"426 0 LINE"
);
},
{
closed = 1;
nodes = (
"962 612 LINE",
"962 778 LINE",
"146 778 LINE",
"146 612 LINE"
);
}
);
width = 1108;
},
{
layerId = "A616F07E-65DE-4D07-A020-83605E49AA22";
paths = (
{
closed = 1;
nodes = (
"568 0 LINE",
"568 1232 LINE",
"916 1232 LINE",
"916 1400 LINE",
"36 1400 LINE",
"36 1232 LINE",
"384 1232 LINE",
"384 0 LINE"
);
},
{
closed = 1;
nodes = (
"808 654 LINE",
"808 780 LINE",
"144 780 LINE",
"144 654 LINE"
);
}
);
width = 952;
},
{
layerId = "3AF73D1F-32CE-4CF3-BC01-E4A23F7DE30A";
paths = (
{
closed = 1;
nodes = (
"598 0 LINE",
"598 1176 LINE",
"934 1176 LINE",
"934 1400 LINE",
"18 1400 LINE",
"18 1176 LINE",
"354 1176 LINE",
"354 0 LINE"
);
},
{
closed = 1;
nodes = (
"858 612 LINE",
"858 778 LINE",
"94 778 LINE",
"94 612 LINE"
);
}
);
width = 952;
}
);
leftMetricsKey = T;
rightMetricsKey = T;
unicode = 0166;
},
{
glyphname = U;
layers = (
{
anchors = (
{
name = bottom;
position = "{724, 0}";
},
{
name = ogonek;
position = "{868, 0}";
},
{
name = top;
position = "{724, 1400}";
},
{
name = topright;
position = "{1210, 1400}";
}
);
layerId = UUID0;
paths = (
{
closed = 1;
nodes = (
"1118 -28 OFFCURVE",
"1304 210 OFFCURVE",
"1304 594 CURVE SMOOTH",
"1304 1400 LINE",
"1114 1400 LINE",
"1114 646 LINE SMOOTH",
"1114 392 OFFCURVE",
"1056 144 OFFCURVE",
"724 144 CURVE SMOOTH",
"392 144 OFFCURVE",
"334 390 OFFCURVE",
"334 646 CURVE SMOOTH",
"334 1400 LINE",
"144 1400 LINE",
"144 594 LINE SMOOTH",
"144 210 OFFCURVE",
"330 -28 OFFCURVE",
"724 -28 CURVE SMOOTH"
);
}
);
width = 1448;
},
{
anchors = (
{
name = bottom;
position = "{718, 0}";
},
{
name = ogonek;
position = "{854, 0}";
},
{
name = top;
position = "{718, 1400}";
},
{
name = topright;
position = "{1154, 1400}";
}
);
layerId = "7C863538-AAB4-42AD-A9FE-7240E615272A";
paths = (
{
closed = 1;
nodes = (
"1112 -28 OFFCURVE",
"1298 220 OFFCURVE",
"1298 600 CURVE SMOOTH",
"1298 1400 LINE",
"1042 1400 LINE",
"1042 666 LINE SMOOTH",
"1042 398 OFFCURVE",
"988 218 OFFCURVE",
"718 218 CURVE SMOOTH",
"448 218 OFFCURVE",
"394 398 OFFCURVE",
"394 666 CURVE SMOOTH",
"394 1400 LINE",
"138 1400 LINE",
"138 600 LINE SMOOTH",
"138 220 OFFCURVE",
"324 -28 OFFCURVE",
"718 -28 CURVE SMOOTH"
);
}
);
width = 1436;
},
{
anchors = (
{
name = bottom;
position = "{724, 0}";
},
{
name = ogonek;
position = "{1304, 20}";
},
{
name = top;
position = "{724, 1400}";
},
{
name = topright;
position = "{1350, 1400}";
}
);
associatedMasterId = UUID0;
layerId = "3DCFFD75-67B2-418C-9FAE-DFA4A2F89D1B";
name = "Regular Sep 7 16, 14:04";
paths = (
{
closed = 1;
nodes = (
"1118 -28 OFFCURVE",
"1304 210 OFFCURVE",
"1304 594 CURVE SMOOTH",
"1304 1400 LINE",
"1114 1400 LINE",
"1114 686 LINE SMOOTH",
"1114 412 OFFCURVE",
"1056 144 OFFCURVE",
"724 144 CURVE SMOOTH",
"392 144 OFFCURVE",
"334 410 OFFCURVE",
"334 686 CURVE SMOOTH",
"334 1400 LINE",
"144 1400 LINE",
"144 594 LINE SMOOTH",
"144 210 OFFCURVE",
"330 -28 OFFCURVE",
"724 -28 CURVE"
);
}
);
width = 1448;
},
{
anchors = (
{
name = bottom;
position = "{718, 0}";
},
{
name = ogonek;
position = "{1292, 20}";
},
{
name = top;
position = "{718, 1400}";
},
{
name = topright;
position = "{1354, 1400}";
}
);
associatedMasterId = "7C863538-AAB4-42AD-A9FE-7240E615272A";
layerId = "F0F444DB-4F37-4D13-8FA9-769768339B1F";
name = "Bold Sep 7 16, 14:04";
paths = (
{
closed = 1;
nodes = (
"1112 -28 OFFCURVE",
"1298 220 OFFCURVE",
"1298 600 CURVE SMOOTH",
"1298 1400 LINE",
"1042 1400 LINE",
"1042 686 LINE SMOOTH",
"1042 426 OFFCURVE",
"988 218 OFFCURVE",
"718 218 CURVE SMOOTH",
"448 218 OFFCURVE",
"394 426 OFFCURVE",
"394 686 CURVE SMOOTH",
"394 1400 LINE",
"138 1400 LINE",
"138 600 LINE SMOOTH",
"138 220 OFFCURVE",
"324 -28 OFFCURVE",
"718 -28 CURVE"
);
}
);
width = 1436;
},
{
anchors = (
{
name = bottom;
position = "{618, 0}";
},
{
name = ogonek;
position = "{738, 0}";
},
{
name = top;
position = "{618, 1400}";
},
{
name = topright;
position = "{990, 1400}";
}
);
layerId = "A616F07E-65DE-4D07-A020-83605E49AA22";
paths = (
{
closed = 1;
nodes = (
"966 -28 OFFCURVE",
"1116 194 OFFCURVE",
"1116 554 CURVE SMOOTH",
"1116 1400 LINE",
"932 1400 LINE",
"932 606 LINE SMOOTH",
"932 352 OFFCURVE",
"894 140 OFFCURVE",
"616 140 CURVE SMOOTH",
"342 140 OFFCURVE",
"302 350 OFFCURVE",
"302 606 CURVE SMOOTH",
"302 1400 LINE",
"118 1400 LINE",
"118 554 LINE SMOOTH",
"118 194 OFFCURVE",
"268 -28 OFFCURVE",
"616 -28 CURVE SMOOTH"
);
}
);
width = 1234;
},
{
anchors = (
{
name = bottom;
position = "{622, 0}";
},
{
name = ogonek;
position = "{714, 0}";
},
{
name = top;
position = "{622, 1400}";
},
{
name = topright;
position = "{958, 1400}";
}
);
layerId = "3AF73D1F-32CE-4CF3-BC01-E4A23F7DE30A";
paths = (
{
closed = 1;
nodes = (
"960 -28 OFFCURVE",
"1120 196 OFFCURVE",
"1120 540 CURVE SMOOTH",
"1120 1400 LINE",
"876 1400 LINE",
"876 606 LINE SMOOTH",
"876 380 OFFCURVE",
"832 218 OFFCURVE",
"620 218 CURVE SMOOTH",
"410 218 OFFCURVE",
"364 380 OFFCURVE",
"364 606 CURVE SMOOTH",
"364 1400 LINE",
"120 1400 LINE",
"120 540 LINE SMOOTH",
"120 196 OFFCURVE",
"280 -28 OFFCURVE",
"620 -28 CURVE SMOOTH"
);
}
);
width = 1240;
},
{
anchors = (
{
name = bottom;
position = "{618, 0}";
},
{
name = ogonek;
position = "{1110, 20}";
},
{
name = top;
position = "{618, 1400}";
},
{
name = topright;
position = "{1194, 1400}";
}
);
associatedMasterId = "A616F07E-65DE-4D07-A020-83605E49AA22";
layerId = "C8CA2E06-A810-46EB-A5BA-1621DA585ECF";
name = "Condensed Sep 19 16, 18:47";
paths = (
{
closed = 1;
nodes = (
"956 -28 OFFCURVE",
"1116 210 OFFCURVE",
"1116 594 CURVE SMOOTH",
"1116 1400 LINE",
"928 1400 LINE",
"928 686 LINE SMOOTH",
"928 412 OFFCURVE",
"880 144 OFFCURVE",
"616 144 CURVE SMOOTH",
"354 144 OFFCURVE",
"306 410 OFFCURVE",
"306 686 CURVE SMOOTH",
"306 1400 LINE",
"118 1400 LINE",
"118 594 LINE SMOOTH",
"118 210 OFFCURVE",
"278 -28 OFFCURVE",
"616 -28 CURVE SMOOTH",
"616 -28 LINE"
);
}
);
width = 1234;
},
{
anchors = (
{
name = bottom;
position = "{618, 0}";
},
{
name = ogonek;
position = "{1110, 20}";
},
{
name = top;
position = "{618, 1400}";
},
{
name = topright;
position = "{1194, 1420}";
}
);
associatedMasterId = "3AF73D1F-32CE-4CF3-BC01-E4A23F7DE30A";
layerId = "1D4214D3-880D-40BF-ABFF-92F504B841AA";
name = "Bold Condensed Sep 19 16, 18:47";
paths = (
{
closed = 1;
nodes = (
"956 -28 OFFCURVE",
"1116 220 OFFCURVE",
"1116 600 CURVE SMOOTH",
"1116 1400 LINE",
"870 1400 LINE",
"870 686 LINE SMOOTH",
"870 426 OFFCURVE",
"826 218 OFFCURVE",
"616 218 CURVE SMOOTH",
"408 218 OFFCURVE",
"362 426 OFFCURVE",
"362 686 CURVE SMOOTH",
"362 1400 LINE",
"118 1400 LINE",
"118 600 LINE SMOOTH",
"118 220 OFFCURVE",
"278 -28 OFFCURVE",
"616 -28 CURVE SMOOTH",
"616 -28 LINE"
);
}
);
width = 1234;
}
);
leftKerningGroup = U;
rightKerningGroup = U;
unicode = 0055;
},
{
glyphname = V;
layers = (
{
anchors = (
{
name = bottom;
position = "{610, 0}";
},
{
name = top;
position = "{610, 1400}";
}
);
layerId = UUID0;
paths = (
{
closed = 1;
nodes = (
"710 0 LINE",
"1212 1400 LINE",
"1012 1400 LINE",
"582 186 LINE",
"638 186 LINE",
"208 1400 LINE",
"8 1400 LINE",
"510 0 LINE"
);
}
);
width = 1220;
},
{
anchors = (
{
name = bottom;
position = "{620, 0}";
},
{
name = top;
position = "{620, 1400}";
}
);
layerId = "7C863538-AAB4-42AD-A9FE-7240E615272A";
paths = (
{
closed = 1;
nodes = (
"740 0 LINE",
"1238 1400 LINE",
"980 1400 LINE",
"592 296 LINE",
"644 296 LINE",
"258 1400 LINE",
"0 1400 LINE",
"498 0 LINE"
);
}
);
width = 1238;
},
{
associatedMasterId = UUID0;
layerId = "E46751F5-4893-461D-A028-132E874418C4";
name = "Regular Sep 7 16, 14:04";
paths = (
{
closed = 1;
nodes = (
"744 0 LINE",
"1280 1400 LINE",
"1080 1400 LINE",
"646 218 LINE",
"208 1400 LINE",
"8 1400 LINE",
"544 0 LINE"
);
}
);
visible = 1;
width = 1288;
},
{
associatedMasterId = "7C863538-AAB4-42AD-A9FE-7240E615272A";
layerId = "02D8091B-BECB-4B6B-9B3D-4B5F9A1C586C";
name = "Bold Sep 7 16, 14:04";
paths = (
{
closed = 1;
nodes = (
"816 0 LINE",
"1308 1400 LINE",
"1044 1400 LINE",
"658 338 LINE",
"266 1400 LINE",
"0 1400 LINE",
"504 0 LINE"
);
}
);
width = 1314;
},
{
anchors = (
{
name = bottom;
position = "{566, 0}";
},
{
name = top;
position = "{566, 1400}";
}
);
layerId = "A616F07E-65DE-4D07-A020-83605E49AA22";
paths = (
{
closed = 1;
nodes = (
"672 0 LINE",
"1116 1400 LINE",
"920 1400 LINE",
"542 156 LINE",
"590 156 LINE",
"212 1400 LINE",
"16 1400 LINE",
"460 0 LINE"
);
}
);
width = 1132;
},
{
anchors = (
{
name = bottom;
position = "{576, 0}";
},
{
name = top;
position = "{576, 1400}";
}
);
layerId = "3AF73D1F-32CE-4CF3-BC01-E4A23F7DE30A";
paths = (
{
closed = 1;
nodes = (
"720 0 LINE",
"1156 1400 LINE",
"912 1400 LINE",
"542 198 LINE",
"610 198 LINE",
"240 1400 LINE",
"-4 1400 LINE",
"432 0 LINE"
);
}
);
width = 1152;
},
{
associatedMasterId = "A616F07E-65DE-4D07-A020-83605E49AA22";
layerId = "68507762-893C-4AF7-9A18-2073477AF2FD";
name = "Condensed Sep 19 16, 18:47";
paths = (
{
closed = 1;
nodes = (
"674 0 LINE",
"1118 1400 LINE",
"924 1400 LINE",
"568 218 LINE",
"208 1400 LINE",
"12 1400 LINE",
"462 0 LINE"
);
}
);
width = 1132;
},
{
associatedMasterId = "3AF73D1F-32CE-4CF3-BC01-E4A23F7DE30A";
layerId = "30EC32F1-C093-4D10-A548-F0833E7AE791";
name = "Bold Condensed Sep 19 16, 18:47";
paths = (
{
closed = 1;
nodes = (
"726 0 LINE",
"1132 1400 LINE",
"882 1400 LINE",
"568 338 LINE",
"248 1400 LINE",
"-6 1400 LINE",
"416 0 LINE"
);
}
);
width = 1130;
}
);
unicode = 0056;
},
{
glyphname = W;
layers = (
{
anchors = (
{
name = bottom;
position = "{952, 0}";
},
{
name = top;
position = "{952, 1400}";
}
);
layerId = UUID0;
paths = (
{
closed = 1;
nodes = (
"606 0 LINE",
"946 1126 LINE",
"1286 0 LINE",
"1488 0 LINE",
"1884 1400 LINE",
"1684 1400 LINE",
"1388 246 LINE",
"1046 1372 LINE",
"846 1372 LINE",
"504 246 LINE",
"208 1400 LINE",
"8 1400 LINE",
"404 0 LINE"
);
}
);
width = 1892;
},
{
anchors = (
{
name = bottom;
position = "{964, 0}";
},
{
name = top;
position = "{964, 1400}";
}
);
layerId = "7C863538-AAB4-42AD-A9FE-7240E615272A";
paths = (
{
closed = 1;
nodes = (
"656 0 LINE",
"966 934 LINE",
"1278 0 LINE",
"1504 0 LINE",
"1914 1400 LINE",
"1648 1400 LINE",
"1380 432 LINE",
"1056 1400 LINE",
"878 1400 LINE",
"566 406 LINE",
"286 1400 LINE",
"20 1400 LINE",
"414 0 LINE"
);
}
);
width = 1926;
},
{
associatedMasterId = UUID0;
layerId = "15B005E7-89F3-4F5B-A88F-458BC40F4DAB";
name = "Regular Sep 7 16, 14:04";
paths = (
{
closed = 1;
nodes = (
"630 0 LINE",
"972 1148 LINE",
"1302 0 LINE",
"1512 0 LINE",
"1922 1400 LINE",
"1722 1400 LINE",
"1414 218 LINE",
"1060 1372 LINE",
"888 1372 LINE",
"538 216 LINE",
"228 1400 LINE",
"28 1400 LINE",
"420 0 LINE"
);
}
);
width = 1942;
},
{
associatedMasterId = "7C863538-AAB4-42AD-A9FE-7240E615272A";
layerId = "2D140B85-53E4-48DE-A0C6-41EC5FFC8280";
name = "Bold Sep 7 16, 14:04";
paths = (
{
closed = 1;
nodes = (
"656 0 LINE",
"966 934 LINE",
"1278 0 LINE",
"1504 0 LINE",
"1914 1400 LINE",
"1648 1400 LINE",
"1380 432 LINE",
"1056 1400 LINE",
"878 1400 LINE",
"566 406 LINE",
"286 1400 LINE",
"20 1400 LINE",
"414 0 LINE"
);
}
);
width = 1926;
},
{
anchors = (
{
name = bottom;
position = "{830, 0}";
},
{
name = top;
position = "{830, 1400}";
}
);
layerId = "A616F07E-65DE-4D07-A020-83605E49AA22";
paths = (
{
closed = 1;
nodes = (
"568 0 LINE",
"828 1106 LINE",
"1092 0 LINE",
"1300 0 LINE",
"1644 1400 LINE",
"1448 1400 LINE",
"1196 258 LINE",
"934 1372 LINE",
"726 1372 LINE",
"464 258 LINE",
"212 1400 LINE",
"16 1400 LINE",
"360 0 LINE"
);
}
);
width = 1660;
},
{
anchors = (
{
name = bottom;
position = "{810, 0}";
},
{
name = top;
position = "{810, 1400}";
}
);
layerId = "3AF73D1F-32CE-4CF3-BC01-E4A23F7DE30A";
paths = (
{
closed = 1;
nodes = (
"568 0 LINE",
"810 1008 LINE",
"1052 0 LINE",
"1312 0 LINE",
"1624 1400 LINE",
"1380 1400 LINE",
"1176 366 LINE",
"940 1374 LINE",
"680 1374 LINE",
"444 366 LINE",
"240 1400 LINE",
"-4 1400 LINE",
"308 0 LINE"
);
}
);
width = 1620;
},
{
associatedMasterId = "A616F07E-65DE-4D07-A020-83605E49AA22";
layerId = "43E77D36-1DCA-49F9-AC2E-82202B32FA07";
name = "Condensed Sep 19 16, 18:47";
paths = (
{
closed = 1;
nodes = (
"548 0 LINE",
"830 1106 LINE",
"1108 0 LINE",
"1294 0 LINE",
"1646 1400 LINE",
"1452 1400 LINE",
"1200 238 LINE",
"908 1372 LINE",
"756 1372 LINE",
"470 236 LINE",
"214 1400 LINE",
"18 1400 LINE",
"356 0 LINE"
);
}
);
width = 1654;
},
{
associatedMasterId = "3AF73D1F-32CE-4CF3-BC01-E4A23F7DE30A";
layerId = "FE08E4A2-B9DA-4CDB-88B3-073BBEB21C86";
name = "Bold Condensed Sep 19 16, 18:47";
paths = (
{
closed = 1;
nodes = (
"578 0 LINE",
"832 934 LINE",
"1094 0 LINE",
"1294 0 LINE",
"1646 1400 LINE",
"1394 1400 LINE",
"1178 432 LINE",
"910 1400 LINE",
"756 1400 LINE",
"500 406 LINE",
"272 1400 LINE",
"18 1400 LINE",
"358 0 LINE"
);
}
);
width = 1662;
}
);
unicode = 0057;
},
{
glyphname = X;
layers = (
{
layerId = UUID0;
paths = (
{
closed = 1;
nodes = (
"228 0 LINE",
"594 542 LINE",
"958 0 LINE",
"1178 0 LINE",
"704 706 LINE",
"1170 1400 LINE",
"950 1400 LINE",
"594 870 LINE",
"236 1400 LINE",
"16 1400 LINE",
"484 706 LINE",
"8 0 LINE"
);
}
);
width = 1186;
},
{
layerId = "7C863538-AAB4-42AD-A9FE-7240E615272A";
paths = (
{
closed = 1;
nodes = (
"280 0 LINE",
"626 510 LINE",
"972 0 LINE",
"1256 0 LINE",
"766 718 LINE",
"1232 1400 LINE",
"948 1400 LINE",
"626 924 LINE",
"304 1400 LINE",
"20 1400 LINE",
"486 718 LINE",
"-4 0 LINE"
);
}
);
width = 1252;
},
{
associatedMasterId = UUID0;
layerId = "9A26F85A-1D85-4C84-A16C-AC14CA16C314";
name = "Regular Sep 7 16, 14:04";
paths = (
{
closed = 1;
nodes = (
"218 0 LINE",
"584 572 LINE",
"988 0 LINE",
"1188 0 LINE",
"686 722 LINE",
"1186 1400 LINE",
"986 1400 LINE",
"598 854 LINE",
"238 1400 LINE",
"18 1400 LINE",
"488 698 LINE",
"18 0 LINE"
);
}
);
width = 1198;
},
{
associatedMasterId = "7C863538-AAB4-42AD-A9FE-7240E615272A";
layerId = "C2074FD6-C490-466A-9504-7B1CBCDE32C0";
name = "Bold Sep 7 16, 14:04";
paths = (
{
closed = 1;
nodes = (
"292 0 LINE",
"622 514 LINE",
"962 0 LINE",
"1258 0 LINE",
"770 726 LINE",
"1230 1400 LINE",
"936 1400 LINE",
"640 908 LINE",
"316 1400 LINE",
"20 1400 LINE",
"492 698 LINE",
"-2 0 LINE"
);
}
);
width = 1254;
},
{
layerId = "A616F07E-65DE-4D07-A020-83605E49AA22";
paths = (
{
closed = 1;
nodes = (
"220 0 LINE",
"536 540 LINE",
"850 0 LINE",
"1054 0 LINE",
"634 706 LINE",
"1046 1400 LINE",
"842 1400 LINE",
"536 874 LINE",
"228 1400 LINE",
"24 1400 LINE",
"438 706 LINE",
"16 0 LINE"
);
}
);
width = 1070;
},
{
layerId = "3AF73D1F-32CE-4CF3-BC01-E4A23F7DE30A";
paths = (
{
closed = 1;
nodes = (
"256 0 LINE",
"555 500 LINE",
"854 0 LINE",
"1114 0 LINE",
"685 717 LINE",
"1094 1400 LINE",
"834 1400 LINE",
"555 934 LINE",
"276 1400 LINE",
"16 1400 LINE",
"425 717 LINE",
"-4 0 LINE"
);
}
);
width = 1110;
},
{
associatedMasterId = "A616F07E-65DE-4D07-A020-83605E49AA22";
layerId = "D6A26894-29F6-49A7-AFCC-D1E1761E0595";
name = "Condensed Sep 19 16, 18:47";
paths = (
{
closed = 1;
nodes = (
"224 0 LINE",
"526 572 LINE",
"850 0 LINE",
"1056 0 LINE",
"630 722 LINE",
"1046 1400 LINE",
"840 1400 LINE",
"540 854 LINE",
"242 1400 LINE",
"26 1400 LINE",
"430 698 LINE",
"18 0 LINE"
);
}
);
width = 1094;
},
{
associatedMasterId = "3AF73D1F-32CE-4CF3-BC01-E4A23F7DE30A";
layerId = "8E722304-6AA2-496B-8C21-1B87C69EC3CA";
name = "Bold Condensed Sep 19 16, 18:47";
paths = (
{
closed = 1;
nodes = (
"256 0 LINE",
"526 514 LINE",
"794 0 LINE",
"1086 0 LINE",
"670 726 LINE",
"1052 1400 LINE",
"764 1400 LINE",
"544 908 LINE",
"278 1400 LINE",
"-4 1400 LINE",
"402 698 LINE",
"-32 0 LINE"
);
}
);
width = 1036;
},
{
associatedMasterId = "A616F07E-65DE-4D07-A020-83605E49AA22";
guideLines = (
{
angle = 90;
position = "{528, 0}";
},
{
angle = 90;
position = "{9, 0}";
}
);
layerId = "DA754020-C655-44BE-8112-4BE135579907";
name = "Condensed Sep 20 16, 17:59";
paths = (
{
closed = 1;
nodes = (
"856 0 LINE",
"1056 0 LINE",
"226 1400 LINE",
"26 1400 LINE"
);
},
{
closed = 1;
nodes = (
"18 0 LINE",
"218 0 LINE",
"1048 1400 LINE",
"848 1400 LINE"
);
}
);
width = 1094;
},
{
associatedMasterId = "7C863538-AAB4-42AD-A9FE-7240E615272A";
layerId = "A132A036-10BD-4497-9AEF-D1FB59F08DD0";
name = "Bold Sep 20 16, 18:12";
paths = (
{
closed = 1;
nodes = (
"972 0 LINE",
"1256 0 LINE",
"304 1400 LINE",
"20 1400 LINE"
);
},
{
closed = 1;
nodes = (
"-4 0 LINE",
"280 0 LINE",
"1232 1400 LINE",
"948 1400 LINE"
);
}
);
width = 1252;
},
{
associatedMasterId = UUID0;
layerId = "E631828C-05BE-4E71-9C58-BEC1C662A749";
name = "Regular Sep 20 16, 18:14";
paths = (
{
closed = 1;
nodes = (
"968 0 LINE",
"1188 0 LINE",
"246 1400 LINE",
"26 1400 LINE"
);
},
{
closed = 1;
nodes = (
"18 0 LINE",
"238 0 LINE",
"1180 1400 LINE",
"960 1400 LINE"
);
}
);
width = 1198;
},
{
associatedMasterId = "3AF73D1F-32CE-4CF3-BC01-E4A23F7DE30A";
layerId = "75D5A32F-9C35-4341-A784-A3E42D33BAA3";
name = "Bold Condensed Sep 20 16, 18:14";
paths = (
{
closed = 1;
nodes = (
"1094 1400 LINE",
"834 1400 LINE",
"-4 0 LINE",
"256 0 LINE"
);
},
{
closed = 1;
nodes = (
"854 0 LINE",
"1114 0 LINE",
"276 1400 LINE",
"16 1400 LINE"
);
}
);
width = 1110;
}
);
unicode = 0058;
},
{
glyphname = Y;
layers = (
{
anchors = (
{
name = bottom;
position = "{568, 0}";
},
{
name = top;
position = "{566, 1400}";
}
);
layerId = UUID0;
paths = (
{
closed = 1;
nodes = (
"662 0 LINE",
"662 606 LINE",
"1154 1400 LINE",
"938 1400 LINE",
"522 720 LINE",
"610 720 LINE",
"194 1400 LINE",
"-22 1400 LINE",
"472 606 LINE",
"472 0 LINE"
);
}
);
width = 1134;
},
{
anchors = (
{
name = bottom;
position = "{604, 0}";
},
{
name = top;
position = "{604, 1400}";
}
);
layerId = "7C863538-AAB4-42AD-A9FE-7240E615272A";
paths = (
{
closed = 1;
nodes = (
"732 0 LINE",
"732 566 LINE",
"1224 1400 LINE",
"944 1400 LINE",
"544 690 LINE",
"664 690 LINE",
"264 1400 LINE",
"-16 1400 LINE",
"476 566 LINE",
"476 0 LINE"
);
}
);
width = 1208;
},
{
anchors = (
{
name = bottom;
position = "{568, 0}";
},
{
name = top;
position = "{568, 1400}";
},
{
name = topleft;
position = "{40, 1400}";
}
);
associatedMasterId = UUID0;
layerId = "45E95D6C-B4F4-4435-B478-AA219F39B314";
name = "Regular Sep 7 16, 14:04";
paths = (
{
closed = 1;
nodes = (
"666 0 LINE",
"666 646 LINE",
"1138 1400 LINE",
"938 1400 LINE",
"566 818 LINE",
"194 1400 LINE",
"-6 1400 LINE",
"468 646 LINE",
"468 0 LINE"
);
}
);
width = 1134;
},
{
anchors = (
{
name = bottom;
position = "{598, 0}";
},
{
name = top;
position = "{598, 1400}";
},
{
name = topleft;
position = "{40, 1400}";
}
);
associatedMasterId = "7C863538-AAB4-42AD-A9FE-7240E615272A";
layerId = "915DC1E4-493E-4641-BB04-1106E73E69A6";
name = "Bold Sep 7 16, 14:04";
paths = (
{
closed = 1;
nodes = (
"726 0 LINE",
"726 620 LINE",
"1210 1400 LINE",
"938 1400 LINE",
"598 848 LINE",
"258 1400 LINE",
"-14 1400 LINE",
"470 620 LINE",
"470 0 LINE"
);
}
);
width = 1196;
},
{
anchors = (
{
name = bottom;
position = "{506, 0}";
},
{
name = top;
position = "{504, 1400}";
}
);
layerId = "A616F07E-65DE-4D07-A020-83605E49AA22";
paths = (
{
closed = 1;
nodes = (
"598 0 LINE",
"598 606 LINE",
"1010 1400 LINE",
"806 1400 LINE",
"468 724 LINE",
"544 724 LINE",
"202 1400 LINE",
"-2 1400 LINE",
"414 606 LINE",
"414 0 LINE"
);
}
);
width = 1034;
},
{
anchors = (
{
name = bottom;
position = "{526, 0}";
},
{
name = top;
position = "{526, 1400}";
}
);
layerId = "3AF73D1F-32CE-4CF3-BC01-E4A23F7DE30A";
paths = (
{
closed = 1;
nodes = (
"646 0 LINE",
"646 620 LINE",
"1066 1400 LINE",
"806 1400 LINE",
"476 746 LINE",
"578 746 LINE",
"244 1400 LINE",
"-16 1400 LINE",
"404 620 LINE",
"404 0 LINE"
);
}
);
width = 1050;
},
{
anchors = (
{
name = bottom;
position = "{518, 0}";
},
{
name = top;
position = "{518, 1400}";
},
{
name = topleft;
position = "{40, 1400}";
}
);
associatedMasterId = "A616F07E-65DE-4D07-A020-83605E49AA22";
layerId = "F9FD6DD9-E3BB-4B15-8BBB-6C40891BFDED";
name = "Condensed Sep 19 16, 18:47";
paths = (
{
closed = 1;
nodes = (
"600 0 LINE",
"600 646 LINE",
"1010 1400 LINE",
"812 1400 LINE",
"504 818 LINE",
"196 1400 LINE",
"-2 1400 LINE",
"410 646 LINE",
"410 0 LINE"
);
}
);
visible = 1;
width = 1034;
},
{
anchors = (
{
name = bottom;
position = "{494, 0}";
},
{
name = top;
position = "{494, 1400}";
},
{
name = topleft;
position = "{40, 1400}";
}
);
associatedMasterId = "3AF73D1F-32CE-4CF3-BC01-E4A23F7DE30A";
layerId = "DB418CA9-C1A6-4E03-B157-45AC2F89FA1A";
name = "Bold Condensed Sep 19 16, 18:47";
paths = (
{
closed = 1;
nodes = (
"624 0 LINE",
"624 620 LINE",
"1044 1400 LINE",
"784 1400 LINE",
"504 848 LINE",
"222 1400 LINE",
"-38 1400 LINE",
"382 620 LINE",
"382 0 LINE"
);
}
);
width = 988;
}
);
leftKerningGroup = Y;
rightKerningGroup = Y;
unicode = 0059;
},
{
glyphname = Z;
layers = (
{
anchors = (
{
name = bottom;
position = "{506, 0}";
},
{
name = top;
position = "{596, 1400}";
}
);
layerId = UUID0;
paths = (
{
closed = 1;
nodes = (
"1074 0 LINE",
"1074 172 LINE",
"244 172 LINE",
"278 100 LINE",
"1084 1400 LINE",
"108 1400 LINE",
"108 1228 LINE",
"856 1228 LINE",
"820 1300 LINE",
"18 0 LINE"
);
}
);
width = 1098;
},
{
anchors = (
{
name = bottom;
position = "{505, 0}";
},
{
name = top;
position = "{594, 1400}";
}
);
layerId = "7C863538-AAB4-42AD-A9FE-7240E615272A";
paths = (
{
closed = 1;
nodes = (
"1072 0 LINE",
"1072 228 LINE",
"322 228 LINE",
"366 148 LINE",
"1082 1400 LINE",
"106 1400 LINE",
"106 1172 LINE",
"776 1172 LINE",
"732 1252 LINE",
"16 0 LINE"
);
}
);
width = 1096;
},
{
anchors = (
{
name = bottom;
position = "{506, 0}";
},
{
name = top;
position = "{596, 1400}";
}
);
associatedMasterId = UUID0;
layerId = "8D13FBE0-6E10-4DC9-A063-9AD3B61EF9C0";
name = "Regular Sep 7 16, 14:04";
paths = (
{
closed = 1;
nodes = (
"994 0 LINE",
"994 172 LINE",
"330 172 LINE",
"1084 1400 LINE",
"108 1400 LINE",
"108 1228 LINE",
"770 1228 LINE",
"18 0 LINE"
);
}
);
width = 1098;
},
{
anchors = (
{
name = bottom;
position = "{505, 0}";
},
{
name = top;
position = "{595, 1400}";
}
);
associatedMasterId = "7C863538-AAB4-42AD-A9FE-7240E615272A";
layerId = "AE6F5C73-928E-4B13-9EA3-5D0250EB54C2";
name = "Bold Sep 7 16, 14:04";
paths = (
{
closed = 1;
nodes = (
"992 0 LINE",
"992 248 LINE",
"438 248 LINE",
"1082 1400 LINE",
"106 1400 LINE",
"106 1152 LINE",
"660 1152 LINE",
"16 0 LINE"
);
}
);
width = 1096;
},
{
anchors = (
{
name = bottom;
position = "{476, 0}";
},
{
name = top;
position = "{512, 1400}";
}
);
layerId = "A616F07E-65DE-4D07-A020-83605E49AA22";
paths = (
{
closed = 1;
nodes = (
"938 0 LINE",
"938 172 LINE",
"236 172 LINE",
"258 96 LINE",
"930 1400 LINE",
"92 1400 LINE",
"92 1228 LINE",
"708 1228 LINE",
"686 1304 LINE",
"14 0 LINE"
);
}
);
width = 960;
},
{
anchors = (
{
name = bottom;
position = "{476, 0}";
},
{
name = top;
position = "{512, 1400}";
}
);
layerId = "3AF73D1F-32CE-4CF3-BC01-E4A23F7DE30A";
paths = (
{
closed = 1;
nodes = (
"938 0 LINE",
"938 224 LINE",
"284 224 LINE",
"332 144 LINE",
"930 1400 LINE",
"94 1400 LINE",
"94 1176 LINE",
"664 1176 LINE",
"616 1256 LINE",
"14 0 LINE"
);
}
);
width = 954;
},
{
associatedMasterId = "A616F07E-65DE-4D07-A020-83605E49AA22";
layerId = "CBA24404-F019-42F4-A88A-11E8E71FE566";
name = "Condensed Sep 19 16, 18:47";
paths = (
{
closed = 1;
nodes = (
"854 0 LINE",
"854 172 LINE",
"322 172 LINE",
"930 1400 LINE",
"92 1400 LINE",
"92 1228 LINE",
"622 1228 LINE",
"14 0 LINE"
);
}
);
width = 960;
},
{
associatedMasterId = "3AF73D1F-32CE-4CF3-BC01-E4A23F7DE30A";
layerId = "57362DCD-71B7-43B4-8E47-6A78227478A1";
name = "Bold Condensed Sep 19 16, 18:47";
paths = (
{
closed = 1;
nodes = (
"854 0 LINE",
"854 248 LINE",
"418 248 LINE",
"930 1400 LINE",
"92 1400 LINE",
"92 1152 LINE",
"528 1152 LINE",
"14 0 LINE"
);
}
);
width = 926;
}
);
leftKerningGroup = Z;
rightKerningGroup = Z;
unicode = 005A;
},
{
glyphname = a;
layers = (
{
anchors = (
{
name = bottom;
position = "{480, 0}";
},
{
name = ogonek;
position = "{842, 0}";
},
{
name = top;
position = "{468, 980}";
}
);
layerId = UUID0;
paths = (
{
closed = 1;
nodes = (
"476 -20 OFFCURVE",
"576 38 OFFCURVE",
"650 124 CURVE",
"690 32 OFFCURVE",
"728 -20 OFFCURVE",
"902 -20 CURVE SMOOTH",
"916 -20 LINE",
"944 124 LINE",
"926 124 LINE SMOOTH",
"822 124 OFFCURVE",
"814 190 OFFCURVE",
"814 330 CURVE SMOOTH",
"814 530 LINE SMOOTH",
"814 884 OFFCURVE",
"716 1000 OFFCURVE",
"468 1000 CURVE SMOOTH",
"338 1000 OFFCURVE",
"214 958 OFFCURVE",
"136 898 CURVE",
"162 752 LINE",
"266 824 OFFCURVE",
"346 840 OFFCURVE",
"420 840 CURVE SMOOTH",
"558 840 OFFCURVE",
"634 800 OFFCURVE",
"634 614 CURVE",
"384 610 OFFCURVE",
"48 540 OFFCURVE",
"48 264 CURVE SMOOTH",
"48 100 OFFCURVE",
"168 -20 OFFCURVE",
"350 -20 CURVE SMOOTH"
);
},
{
closed = 1;
nodes = (
"294 124 OFFCURVE",
"232 168 OFFCURVE",
"232 274 CURVE SMOOTH",
"232 420 OFFCURVE",
"348 480 OFFCURVE",
"634 490 CURVE",
"634 256 LINE",
"576 176 OFFCURVE",
"480 124 OFFCURVE",
"384 124 CURVE SMOOTH"
);
}
);
width = 960;
},
{
anchors = (
{
name = bottom;
position = "{498, 0}";
},
{
name = ogonek;
position = "{880, 0}";
},
{
name = top;
position = "{492, 1000}";
}
);
layerId = "7C863538-AAB4-42AD-A9FE-7240E615272A";
paths = (
{
closed = 1;
nodes = (
"452 -20 OFFCURVE",
"572 22 OFFCURVE",
"638 96 CURVE",
"676 26 OFFCURVE",
"750 -20 OFFCURVE",
"862 -20 CURVE SMOOTH",
"952 -20 LINE",
"974 184 LINE",
"942 184 LINE SMOOTH",
"870 184 OFFCURVE",
"854 194 OFFCURVE",
"854 344 CURVE SMOOTH",
"854 614 LINE SMOOTH",
"854 904 OFFCURVE",
"716 1016 OFFCURVE",
"492 1016 CURVE SMOOTH",
"368 1016 OFFCURVE",
"248 986 OFFCURVE",
"128 928 CURVE",
"150 726 LINE",
"256 778 OFFCURVE",
"334 802 OFFCURVE",
"424 802 CURVE SMOOTH",
"552 802 OFFCURVE",
"598 752 OFFCURVE",
"604 638 CURVE",
"416 632 OFFCURVE",
"42 562 OFFCURVE",
"42 280 CURVE SMOOTH",
"42 90 OFFCURVE",
"172 -20 OFFCURVE",
"332 -20 CURVE SMOOTH"
);
},
{
closed = 1;
nodes = (
"342 170 OFFCURVE",
"302 208 OFFCURVE",
"302 290 CURVE SMOOTH",
"302 408 OFFCURVE",
"466 464 OFFCURVE",
"606 470 CURVE",
"606 242 LINE",
"554 192 OFFCURVE",
"480 170 OFFCURVE",
"436 170 CURVE SMOOTH"
);
}
);
width = 996;
},
{
anchors = (
{
name = bottom;
position = "{480, 0}";
},
{
name = ogonek;
position = "{864, 20}";
},
{
name = top;
position = "{480, 980}";
}
);
associatedMasterId = UUID0;
layerId = "A8C2F480-0067-4F38-8F08-67524F8C581C";
name = "Regular Sep 7 16, 14:04";
paths = (
{
closed = 1;
nodes = (
"476 -20 OFFCURVE",
"576 38 OFFCURVE",
"650 124 CURVE",
"690 32 OFFCURVE",
"728 -20 OFFCURVE",
"902 -20 CURVE SMOOTH",
"916 -20 LINE",
"944 124 LINE",
"926 124 LINE SMOOTH",
"822 124 OFFCURVE",
"814 190 OFFCURVE",
"814 330 CURVE SMOOTH",
"814 530 LINE SMOOTH",
"814 884 OFFCURVE",
"716 1000 OFFCURVE",
"468 1000 CURVE SMOOTH",
"338 1000 OFFCURVE",
"214 958 OFFCURVE",
"136 898 CURVE",
"162 752 LINE",
"266 824 OFFCURVE",
"346 840 OFFCURVE",
"420 840 CURVE SMOOTH",
"558 840 OFFCURVE",
"634 800 OFFCURVE",
"634 614 CURVE",
"384 610 OFFCURVE",
"48 540 OFFCURVE",
"48 264 CURVE SMOOTH",
"48 100 OFFCURVE",
"168 -20 OFFCURVE",
"350 -20 CURVE SMOOTH"
);
},
{
closed = 1;
nodes = (
"294 124 OFFCURVE",
"232 168 OFFCURVE",
"232 274 CURVE SMOOTH",
"232 420 OFFCURVE",
"348 480 OFFCURVE",
"634 490 CURVE",
"634 256 LINE",
"576 176 OFFCURVE",
"480 124 OFFCURVE",
"384 124 CURVE SMOOTH"
);
}
);
width = 960;
},
{
anchors = (
{
name = bottom;
position = "{498, 0}";
},
{
name = ogonek;
position = "{896, 20}";
},
{
name = top;
position = "{498, 1000}";
}
);
associatedMasterId = "7C863538-AAB4-42AD-A9FE-7240E615272A";
layerId = "D897701B-7DC5-4624-95F5-601DCEB0BFCD";
name = "Bold Sep 7 16, 14:04";
paths = (
{
closed = 1;
nodes = (
"452 -20 OFFCURVE",
"572 22 OFFCURVE",
"638 96 CURVE",
"676 26 OFFCURVE",
"750 -20 OFFCURVE",
"862 -20 CURVE SMOOTH",
"952 -20 LINE",
"974 184 LINE",
"942 184 LINE SMOOTH",
"870 184 OFFCURVE",
"854 194 OFFCURVE",
"854 344 CURVE SMOOTH",
"854 614 LINE SMOOTH",
"854 904 OFFCURVE",
"716 1016 OFFCURVE",
"492 1016 CURVE SMOOTH",
"368 1016 OFFCURVE",
"248 986 OFFCURVE",
"128 928 CURVE",
"150 726 LINE",
"256 778 OFFCURVE",
"334 802 OFFCURVE",
"424 802 CURVE SMOOTH",
"552 802 OFFCURVE",
"598 752 OFFCURVE",
"604 638 CURVE",
"416 632 OFFCURVE",
"42 562 OFFCURVE",
"42 280 CURVE SMOOTH",
"42 90 OFFCURVE",
"172 -20 OFFCURVE",
"332 -20 CURVE SMOOTH"
);
},
{
closed = 1;
nodes = (
"342 170 OFFCURVE",
"302 208 OFFCURVE",
"302 290 CURVE SMOOTH",
"302 408 OFFCURVE",
"466 464 OFFCURVE",
"606 470 CURVE",
"606 242 LINE",
"554 192 OFFCURVE",
"480 170 OFFCURVE",
"436 170 CURVE SMOOTH"
);
}
);
width = 996;
},
{
anchors = (
{
name = bottom;
position = "{434, 0}";
},
{
name = ogonek;
position = "{742, 0}";
},
{
name = top;
position = "{434, 980}";
}
);
layerId = "A616F07E-65DE-4D07-A020-83605E49AA22";
paths = (
{
closed = 1;
nodes = (
"410 -20 OFFCURVE",
"502 38 OFFCURVE",
"564 124 CURVE",
"598 32 OFFCURVE",
"642 -20 OFFCURVE",
"770 -20 CURVE SMOOTH",
"810 -20 LINE",
"832 124 LINE",
"810 124 LINE SMOOTH",
"734 124 OFFCURVE",
"724 190 OFFCURVE",
"724 330 CURVE SMOOTH",
"724 616 LINE SMOOTH",
"724 890 OFFCURVE",
"622 1000 OFFCURVE",
"414 1000 CURVE SMOOTH",
"306 1000 OFFCURVE",
"204 964 OFFCURVE",
"122 898 CURVE",
"144 752 LINE",
"226 812 OFFCURVE",
"300 840 OFFCURVE",
"380 840 CURVE SMOOTH",
"496 840 OFFCURVE",
"544 786 OFFCURVE",
"544 614 CURVE",
"350 610 OFFCURVE",
"48 540 OFFCURVE",
"48 264 CURVE SMOOTH",
"48 100 OFFCURVE",
"154 -20 OFFCURVE",
"304 -20 CURVE SMOOTH"
);
},
{
closed = 1;
nodes = (
"278 124 OFFCURVE",
"234 168 OFFCURVE",
"234 274 CURVE SMOOTH",
"234 420 OFFCURVE",
"350 480 OFFCURVE",
"544 490 CURVE",
"544 256 LINE",
"496 176 OFFCURVE",
"422 124 OFFCURVE",
"358 124 CURVE SMOOTH"
);
}
);
width = 868;
},
{
anchors = (
{
name = bottom;
position = "{424, 0}";
},
{
name = ogonek;
position = "{742, 0}";
},
{
name = top;
position = "{424, 1000}";
}
);
layerId = "3AF73D1F-32CE-4CF3-BC01-E4A23F7DE30A";
paths = (
{
closed = 1;
nodes = (
"400 -20 OFFCURVE",
"468 24 OFFCURVE",
"534 96 CURVE",
"566 26 OFFCURVE",
"644 -20 OFFCURVE",
"716 -20 CURVE SMOOTH",
"822 -20 LINE",
"838 184 LINE",
"806 184 LINE SMOOTH",
"756 184 OFFCURVE",
"740 194 OFFCURVE",
"740 344 CURVE SMOOTH",
"740 646 LINE SMOOTH",
"740 912 OFFCURVE",
"610 1016 OFFCURVE",
"420 1016 CURVE SMOOTH",
"314 1016 OFFCURVE",
"204 986 OFFCURVE",
"98 928 CURVE",
"114 726 LINE",
"200 774 OFFCURVE",
"272 802 OFFCURVE",
"356 802 CURVE SMOOTH",
"462 802 OFFCURVE",
"498 752 OFFCURVE",
"498 638 CURVE",
"360 632 OFFCURVE",
"24 558 OFFCURVE",
"24 258 CURVE SMOOTH",
"24 74 OFFCURVE",
"150 -20 OFFCURVE",
"290 -20 CURVE SMOOTH"
);
},
{
closed = 1;
nodes = (
"318 170 OFFCURVE",
"276 200 OFFCURVE",
"276 282 CURVE SMOOTH",
"276 406 OFFCURVE",
"388 456 OFFCURVE",
"500 470 CURVE",
"500 242 LINE",
"462 196 OFFCURVE",
"422 170 OFFCURVE",
"372 170 CURVE SMOOTH"
);
}
);
width = 846;
},
{
anchors = (
{
name = bottom;
position = "{434, 0}";
},
{
name = ogonek;
position = "{782, 20}";
},
{
name = top;
position = "{434, 980}";
}
);
associatedMasterId = "A616F07E-65DE-4D07-A020-83605E49AA22";
layerId = "5160354A-4806-4CC9-8F5B-5FAAFDDFD2C3";
name = "Condensed Sep 19 16, 18:47";
paths = (
{
closed = 1;
nodes = (
"410 -20 OFFCURVE",
"502 38 OFFCURVE",
"564 124 CURVE",
"598 32 OFFCURVE",
"642 -20 OFFCURVE",
"770 -20 CURVE SMOOTH",
"810 -20 LINE",
"832 124 LINE",
"810 124 LINE SMOOTH",
"734 124 OFFCURVE",
"724 190 OFFCURVE",
"724 330 CURVE SMOOTH",
"724 530 LINE SMOOTH",
"724 884 OFFCURVE",
"624 1000 OFFCURVE",
"420 1000 CURVE SMOOTH",
"310 1000 OFFCURVE",
"206 958 OFFCURVE",
"122 898 CURVE",
"144 752 LINE",
"234 824 OFFCURVE",
"302 840 OFFCURVE",
"372 840 CURVE SMOOTH",
"486 840 OFFCURVE",
"542 800 OFFCURVE",
"544 614 CURVE",
"350 610 OFFCURVE",
"48 540 OFFCURVE",
"48 264 CURVE SMOOTH",
"48 100 OFFCURVE",
"154 -20 OFFCURVE",
"304 -20 CURVE SMOOTH"
);
},
{
closed = 1;
nodes = (
"278 124 OFFCURVE",
"234 168 OFFCURVE",
"234 274 CURVE SMOOTH",
"234 420 OFFCURVE",
"350 480 OFFCURVE",
"544 490 CURVE",
"544 256 LINE",
"496 176 OFFCURVE",
"422 124 OFFCURVE",
"358 124 CURVE SMOOTH"
);
}
);
width = 868;
},
{
anchors = (
{
name = bottom;
position = "{424, 0}";
},
{
name = ogonek;
position = "{762, 20}";
},
{
name = top;
position = "{424, 1000}";
}
);
associatedMasterId = "3AF73D1F-32CE-4CF3-BC01-E4A23F7DE30A";
layerId = "AB5F5952-24ED-44A6-A56B-1445021E3D59";
name = "Bold Condensed Sep 19 16, 18:47";
paths = (
{
closed = 1;
nodes = (
"400 -20 OFFCURVE",
"468 24 OFFCURVE",
"534 96 CURVE",
"566 26 OFFCURVE",
"644 -20 OFFCURVE",
"716 -20 CURVE SMOOTH",
"822 -20 LINE",
"838 184 LINE",
"806 184 LINE SMOOTH",
"756 184 OFFCURVE",
"740 194 OFFCURVE",
"740 344 CURVE SMOOTH",
"740 614 LINE SMOOTH",
"740 904 OFFCURVE",
"606 1016 OFFCURVE",
"422 1016 CURVE SMOOTH",
"318 1016 OFFCURVE",
"216 986 OFFCURVE",
"98 928 CURVE",
"114 726 LINE",
"206 778 OFFCURVE",
"272 802 OFFCURVE",
"356 802 CURVE SMOOTH",
"462 802 OFFCURVE",
"492 752 OFFCURVE",
"498 638 CURVE",
"360 632 OFFCURVE",
"24 558 OFFCURVE",
"24 258 CURVE SMOOTH",
"24 74 OFFCURVE",
"150 -20 OFFCURVE",
"290 -20 CURVE SMOOTH"
);
},
{
closed = 1;
nodes = (
"318 170 OFFCURVE",
"276 200 OFFCURVE",
"276 282 CURVE SMOOTH",
"276 406 OFFCURVE",
"388 456 OFFCURVE",
"500 470 CURVE",
"500 242 LINE",
"462 196 OFFCURVE",
"422 170 OFFCURVE",
"372 170 CURVE SMOOTH"
);
}
);
width = 846;
}
);
leftKerningGroup = a;
rightKerningGroup = a;
unicode = 0061;
},
{
glyphname = ae;
layers = (
{
anchors = (
{
name = top;
position = "{810, 980}";
}
);
layerId = UUID0;
paths = (
{
closed = 1;
nodes = (
"536 -20 OFFCURVE",
"690 84 OFFCURVE",
"764 222 CURVE",
"704 306 LINE",
"634 190 OFFCURVE",
"528 124 OFFCURVE",
"404 124 CURVE SMOOTH",
"302 124 OFFCURVE",
"232 168 OFFCURVE",
"232 274 CURVE SMOOTH",
"232 420 OFFCURVE",
"352 490 OFFCURVE",
"656 490 CURVE SMOOTH",
"1492 490 LINE",
"1498 524 OFFCURVE",
"1500 558 OFFCURVE",
"1500 586 CURVE SMOOTH",
"1500 824 OFFCURVE",
"1358 1000 OFFCURVE",
"1112 1000 CURVE SMOOTH",
"918 1000 OFFCURVE",
"770 888 OFFCURVE",
"702 728 CURVE",
"798 740 LINE",
"760 932 OFFCURVE",
"658 1000 OFFCURVE",
"468 1000 CURVE SMOOTH",
"338 1000 OFFCURVE",
"214 958 OFFCURVE",
"136 898 CURVE",
"162 752 LINE",
"266 824 OFFCURVE",
"346 840 OFFCURVE",
"420 840 CURVE SMOOTH",
"588 840 OFFCURVE",
"638 752 OFFCURVE",
"638 586 CURVE SMOOTH",
"638 498 LINE SMOOTH",
"638 216 OFFCURVE",
"816 -20 OFFCURVE",
"1148 -20 CURVE SMOOTH",
"1282 -20 OFFCURVE",
"1380 14 OFFCURVE",
"1456 56 CURVE",
"1432 198 LINE",
"1338 160 OFFCURVE",
"1254 140 OFFCURVE",
"1170 140 CURVE SMOOTH",
"990 140 OFFCURVE",
"828 232 OFFCURVE",
"828 516 CURVE SMOOTH",
"828 728 OFFCURVE",
"936 840 OFFCURVE",
"1096 840 CURVE SMOOTH",
"1244 840 OFFCURVE",
"1314 742 OFFCURVE",
"1314 614 CURVE",
"690 614 LINE SMOOTH",
"422 614 OFFCURVE",
"48 560 OFFCURVE",
"48 264 CURVE SMOOTH",
"48 100 OFFCURVE",
"176 -20 OFFCURVE",
"370 -20 CURVE SMOOTH"
);
}
);
width = 1560;
},
{
anchors = (
{
name = top;
position = "{802, 1000}";
}
);
layerId = "7C863538-AAB4-42AD-A9FE-7240E615272A";
paths = (
{
closed = 1;
nodes = (
"516 -20 OFFCURVE",
"666 56 OFFCURVE",
"760 170 CURVE",
"684 280 LINE",
"612 204 OFFCURVE",
"528 170 OFFCURVE",
"452 170 CURVE SMOOTH",
"368 170 OFFCURVE",
"302 208 OFFCURVE",
"302 288 CURVE SMOOTH",
"302 390 OFFCURVE",
"420 446 OFFCURVE",
"634 446 CURVE SMOOTH",
"1496 446 LINE",
"1506 494 OFFCURVE",
"1512 538 OFFCURVE",
"1512 582 CURVE SMOOTH",
"1512 820 OFFCURVE",
"1372 1016 OFFCURVE",
"1090 1016 CURVE SMOOTH",
"904 1016 OFFCURVE",
"768 930 OFFCURVE",
"690 802 CURVE",
"818 828 LINE",
"764 960 OFFCURVE",
"650 1016 OFFCURVE",
"492 1016 CURVE SMOOTH",
"368 1016 OFFCURVE",
"248 986 OFFCURVE",
"128 928 CURVE",
"150 726 LINE",
"256 778 OFFCURVE",
"334 802 OFFCURVE",
"424 802 CURVE SMOOTH",
"578 802 OFFCURVE",
"612 706 OFFCURVE",
"612 550 CURVE SMOOTH",
"612 506 LINE SMOOTH",
"612 222 OFFCURVE",
"788 -20 OFFCURVE",
"1144 -20 CURVE SMOOTH",
"1282 -20 OFFCURVE",
"1390 16 OFFCURVE",
"1468 56 CURVE",
"1456 266 LINE",
"1372 220 OFFCURVE",
"1262 184 OFFCURVE",
"1158 184 CURVE SMOOTH",
"1008 184 OFFCURVE",
"866 282 OFFCURVE",
"866 522 CURVE SMOOTH",
"866 700 OFFCURVE",
"946 812 OFFCURVE",
"1090 812 CURVE SMOOTH",
"1208 812 OFFCURVE",
"1260 720 OFFCURVE",
"1260 614 CURVE",
"598 614 LINE SMOOTH",
"326 614 OFFCURVE",
"42 520 OFFCURVE",
"42 260 CURVE SMOOTH",
"42 82 OFFCURVE",
"178 -20 OFFCURVE",
"370 -20 CURVE SMOOTH"
);
}
);
width = 1566;
},
{
anchors = (
{
name = bottom;
position = "{798, 0}";
},
{
name = top;
position = "{798, 980}";
}
);
associatedMasterId = UUID0;
layerId = "8446CB94-5AD0-4720-A5E6-1D70C2634DE7";
name = "Regular Sep 15 16, 18:57";
paths = (
{
closed = 1;
nodes = (
"528 -28 OFFCURVE",
"690 50 OFFCURVE",
"760 206 CURVE",
"834 44 OFFCURVE",
"974 -20 OFFCURVE",
"1162 -20 CURVE SMOOTH",
"1294 -20 OFFCURVE",
"1390 16 OFFCURVE",
"1488 60 CURVE",
"1454 198 LINE",
"1346 152 OFFCURVE",
"1282 124 OFFCURVE",
"1186 124 CURVE SMOOTH",
"994 124 OFFCURVE",
"856 244 OFFCURVE",
"856 490 CURVE",
"1528 490 LINE",
"1532 522 OFFCURVE",
"1536 558 OFFCURVE",
"1536 600 CURVE SMOOTH",
"1536 848 OFFCURVE",
"1398 1000 OFFCURVE",
"1160 1000 CURVE SMOOTH",
"982 1000 OFFCURVE",
"836 916 OFFCURVE",
"780 760 CURVE",
"744 962 OFFCURVE",
"554 1000 OFFCURVE",
"462 1000 CURVE SMOOTH",
"370 1000 OFFCURVE",
"262 974 OFFCURVE",
"150 922 CURVE",
"166 782 LINE",
"254 820 OFFCURVE",
"326 840 OFFCURVE",
"410 840 CURVE SMOOTH",
"560 840 OFFCURVE",
"622 774 OFFCURVE",
"646 614 CURVE",
"404 602 OFFCURVE",
"44 540 OFFCURVE",
"44 236 CURVE SMOOTH",
"44 76 OFFCURVE",
"142 -28 OFFCURVE",
"344 -28 CURVE SMOOTH"
);
},
{
closed = 1;
nodes = (
"296 124 OFFCURVE",
"228 158 OFFCURVE",
"228 252 CURVE SMOOTH",
"228 430 OFFCURVE",
"476 490 OFFCURVE",
"662 490 CURVE",
"666 454 OFFCURVE",
"666 422 OFFCURVE",
"666 396 CURVE SMOOTH",
"666 194 OFFCURVE",
"512 124 OFFCURVE",
"384 124 CURVE SMOOTH"
);
},
{
closed = 1;
nodes = (
"914 774 OFFCURVE",
"1010 840 OFFCURVE",
"1146 840 CURVE SMOOTH",
"1284 840 OFFCURVE",
"1364 772 OFFCURVE",
"1364 614 CURVE",
"872 614 LINE"
);
}
);
width = 1596;
},
{
anchors = (
{
name = bottom;
position = "{794, 0}";
},
{
name = top;
position = "{794, 980}";
}
);
associatedMasterId = "7C863538-AAB4-42AD-A9FE-7240E615272A";
layerId = "9062C98E-0361-4EF3-B372-A1981F98AC62";
name = "Bold Sep 15 16, 19:10";
paths = (
{
closed = 1;
nodes = (
"554 -30 OFFCURVE",
"668 56 OFFCURVE",
"756 168 CURVE",
"818 56 OFFCURVE",
"954 -20 OFFCURVE",
"1156 -20 CURVE SMOOTH",
"1296 -20 OFFCURVE",
"1412 16 OFFCURVE",
"1488 56 CURVE",
"1476 266 LINE",
"1394 222 OFFCURVE",
"1262 184 OFFCURVE",
"1168 184 CURVE SMOOTH",
"1036 184 OFFCURVE",
"910 260 OFFCURVE",
"882 446 CURVE",
"1516 446 LINE",
"1526 494 OFFCURVE",
"1532 536 OFFCURVE",
"1532 586 CURVE SMOOTH",
"1532 848 OFFCURVE",
"1368 1016 OFFCURVE",
"1136 1016 CURVE SMOOTH",
"964 1016 OFFCURVE",
"822 924 OFFCURVE",
"790 838 CURVE",
"742 976 OFFCURVE",
"640 1016 OFFCURVE",
"488 1016 CURVE SMOOTH",
"368 1016 OFFCURVE",
"246 986 OFFCURVE",
"126 928 CURVE",
"148 726 LINE",
"254 778 OFFCURVE",
"332 802 OFFCURVE",
"422 802 CURVE SMOOTH",
"554 802 OFFCURVE",
"598 750 OFFCURVE",
"604 628 CURVE",
"406 618 OFFCURVE",
"40 562 OFFCURVE",
"40 254 CURVE SMOOTH",
"40 80 OFFCURVE",
"158 -30 OFFCURVE",
"368 -30 CURVE SMOOTH"
);
},
{
closed = 1;
nodes = (
"354 162 OFFCURVE",
"300 206 OFFCURVE",
"300 276 CURVE SMOOTH",
"300 408 OFFCURVE",
"486 458 OFFCURVE",
"620 460 CURVE",
"622 438 OFFCURVE",
"622 426 OFFCURVE",
"622 404 CURVE SMOOTH",
"622 244 OFFCURVE",
"510 162 OFFCURVE",
"420 162 CURVE SMOOTH"
);
},
{
closed = 1;
nodes = (
"912 730 OFFCURVE",
"1006 812 OFFCURVE",
"1128 812 CURVE SMOOTH",
"1266 812 OFFCURVE",
"1310 704 OFFCURVE",
"1310 614 CURVE",
"888 614 LINE"
);
}
);
width = 1588;
},
{
anchors = (
{
name = top;
position = "{710, 980}";
}
);
layerId = "A616F07E-65DE-4D07-A020-83605E49AA22";
paths = (
{
closed = 1;
nodes = (
"498 -20 OFFCURVE",
"590 76 OFFCURVE",
"688 206 CURVE",
"606 302 LINE",
"550 198 OFFCURVE",
"470 124 OFFCURVE",
"372 124 CURVE SMOOTH",
"288 124 OFFCURVE",
"234 180 OFFCURVE",
"234 266 CURVE SMOOTH",
"234 418 OFFCURVE",
"376 490 OFFCURVE",
"582 490 CURVE SMOOTH",
"1324 490 LINE",
"1328 522 OFFCURVE",
"1332 558 OFFCURVE",
"1332 586 CURVE SMOOTH",
"1332 850 OFFCURVE",
"1188 1000 OFFCURVE",
"992 1000 CURVE SMOOTH",
"832 1000 OFFCURVE",
"722 926 OFFCURVE",
"648 810 CURVE",
"690 810 LINE",
"646 942 OFFCURVE",
"556 1000 OFFCURVE",
"414 1000 CURVE SMOOTH",
"306 1000 OFFCURVE",
"204 964 OFFCURVE",
"122 898 CURVE",
"144 752 LINE",
"226 812 OFFCURVE",
"300 840 OFFCURVE",
"380 840 CURVE SMOOTH",
"498 840 OFFCURVE",
"550 788 OFFCURVE",
"550 626 CURVE SMOOTH",
"550 498 LINE SMOOTH",
"550 216 OFFCURVE",
"708 -20 OFFCURVE",
"1014 -20 CURVE SMOOTH",
"1126 -20 OFFCURVE",
"1224 2 OFFCURVE",
"1294 40 CURVE",
"1278 198 LINE",
"1204 158 OFFCURVE",
"1104 140 OFFCURVE",
"1026 140 CURVE SMOOTH",
"856 140 OFFCURVE",
"730 260 OFFCURVE",
"730 512 CURVE SMOOTH",
"730 736 OFFCURVE",
"824 840 OFFCURVE",
"964 840 CURVE SMOOTH",
"1092 840 OFFCURVE",
"1152 742 OFFCURVE",
"1152 614 CURVE",
"592 614 LINE SMOOTH",
"318 614 OFFCURVE",
"48 540 OFFCURVE",
"48 264 CURVE SMOOTH",
"48 94 OFFCURVE",
"166 -20 OFFCURVE",
"332 -20 CURVE SMOOTH"
);
}
);
width = 1374;
},
{
anchors = (
{
name = top;
position = "{674, 1000}";
}
);
layerId = "3AF73D1F-32CE-4CF3-BC01-E4A23F7DE30A";
paths = (
{
closed = 1;
nodes = (
"452 -20 OFFCURVE",
"546 54 OFFCURVE",
"642 162 CURVE",
"570 282 LINE",
"508 210 OFFCURVE",
"442 170 OFFCURVE",
"372 170 CURVE SMOOTH",
"318 170 OFFCURVE",
"276 200 OFFCURVE",
"276 282 CURVE SMOOTH",
"276 390 OFFCURVE",
"388 446 OFFCURVE",
"550 446 CURVE SMOOTH",
"1296 446 LINE",
"1304 496 OFFCURVE",
"1308 538 OFFCURVE",
"1308 584 CURVE SMOOTH",
"1308 824 OFFCURVE",
"1200 1016 OFFCURVE",
"962 1016 CURVE SMOOTH",
"806 1016 OFFCURVE",
"688 940 OFFCURVE",
"618 816 CURVE",
"694 818 LINE",
"646 958 OFFCURVE",
"548 1016 OFFCURVE",
"420 1016 CURVE SMOOTH",
"314 1016 OFFCURVE",
"204 986 OFFCURVE",
"98 928 CURVE",
"114 726 LINE",
"200 774 OFFCURVE",
"272 802 OFFCURVE",
"356 802 CURVE SMOOTH",
"464 802 OFFCURVE",
"506 754 OFFCURVE",
"508 644 CURVE SMOOTH",
"510 500 LINE SMOOTH",
"510 218 OFFCURVE",
"664 -20 OFFCURVE",
"980 -20 CURVE SMOOTH",
"1102 -20 OFFCURVE",
"1200 8 OFFCURVE",
"1270 46 CURVE",
"1264 256 LINE",
"1194 210 OFFCURVE",
"1108 176 OFFCURVE",
"1006 176 CURVE SMOOTH",
"868 176 OFFCURVE",
"754 272 OFFCURVE",
"754 510 CURVE SMOOTH",
"754 712 OFFCURVE",
"812 820 OFFCURVE",
"926 820 CURVE SMOOTH",
"1034 820 OFFCURVE",
"1066 728 OFFCURVE",
"1066 614 CURVE",
"556 614 LINE SMOOTH",
"332 614 OFFCURVE",
"24 540 OFFCURVE",
"24 258 CURVE SMOOTH",
"24 74 OFFCURVE",
"152 -20 OFFCURVE",
"296 -20 CURVE SMOOTH"
);
}
);
width = 1358;
},
{
associatedMasterId = "A616F07E-65DE-4D07-A020-83605E49AA22";
layerId = "BE019A15-C189-4AA4-BFDE-A3A57773425A";
name = "Condensed Sep 22 16, 01:09";
paths = (
{
closed = 1;
nodes = (
"462 -28 OFFCURVE",
"584 50 OFFCURVE",
"650 206 CURVE",
"710 44 OFFCURVE",
"828 -20 OFFCURVE",
"994 -20 CURVE SMOOTH",
"1112 -20 OFFCURVE",
"1200 16 OFFCURVE",
"1278 60 CURVE",
"1256 198 LINE",
"1172 152 OFFCURVE",
"1092 124 OFFCURVE",
"1012 124 CURVE SMOOTH",
"868 124 OFFCURVE",
"754 244 OFFCURVE",
"744 490 CURVE",
"1308 490 LINE",
"1312 522 OFFCURVE",
"1318 558 OFFCURVE",
"1318 600 CURVE SMOOTH",
"1318 858 OFFCURVE",
"1182 1000 OFFCURVE",
"984 1000 CURVE SMOOTH",
"846 1000 OFFCURVE",
"712 938 OFFCURVE",
"672 760 CURVE",
"636 962 OFFCURVE",
"504 1000 OFFCURVE",
"404 1000 CURVE SMOOTH",
"316 1000 OFFCURVE",
"218 974 OFFCURVE",
"118 922 CURVE",
"134 782 LINE",
"216 820 OFFCURVE",
"280 840 OFFCURVE",
"354 840 CURVE SMOOTH",
"478 840 OFFCURVE",
"524 774 OFFCURVE",
"538 614 CURVE",
"346 602 OFFCURVE",
"34 540 OFFCURVE",
"34 236 CURVE SMOOTH",
"34 76 OFFCURVE",
"126 -28 OFFCURVE",
"302 -28 CURVE SMOOTH"
);
},
{
closed = 1;
nodes = (
"274 124 OFFCURVE",
"220 158 OFFCURVE",
"220 252 CURVE SMOOTH",
"220 430 OFFCURVE",
"410 490 OFFCURVE",
"552 490 CURVE",
"552 490 LINE",
"554 454 OFFCURVE",
"554 422 OFFCURVE",
"554 396 CURVE SMOOTH",
"554 194 OFFCURVE",
"438 124 OFFCURVE",
"340 124 CURVE SMOOTH"
);
},
{
closed = 1;
nodes = (
"782 774 OFFCURVE",
"864 840 OFFCURVE",
"976 840 CURVE SMOOTH",
"976 840 LINE SMOOTH",
"1096 840 OFFCURVE",
"1152 772 OFFCURVE",
"1152 614 CURVE",
"754 614 LINE"
);
}
);
width = 1366;
},
{
associatedMasterId = "3AF73D1F-32CE-4CF3-BC01-E4A23F7DE30A";
layerId = "9D5AD6A4-A9A5-4B17-BB5C-C2E4E0DEEF4B";
name = "Bold Condensed Sep 22 16, 01:09";
paths = (
{
closed = 1;
nodes = (
"488 -30 OFFCURVE",
"568 56 OFFCURVE",
"650 168 CURVE",
"698 56 OFFCURVE",
"814 -20 OFFCURVE",
"994 -20 CURVE SMOOTH",
"1116 -20 OFFCURVE",
"1224 16 OFFCURVE",
"1280 56 CURVE",
"1278 266 LINE",
"1218 222 OFFCURVE",
"1078 184 OFFCURVE",
"998 184 CURVE SMOOTH",
"908 184 OFFCURVE",
"804 260 OFFCURVE",
"770 446 CURVE",
"1300 446 LINE",
"1312 494 OFFCURVE",
"1318 536 OFFCURVE",
"1318 586 CURVE SMOOTH",
"1318 848 OFFCURVE",
"1172 1016 OFFCURVE",
"972 1016 CURVE SMOOTH",
"816 1016 OFFCURVE",
"702 924 OFFCURVE",
"684 838 CURVE",
"638 976 OFFCURVE",
"584 1016 OFFCURVE",
"430 1016 CURVE SMOOTH",
"316 1016 OFFCURVE",
"206 986 OFFCURVE",
"100 928 CURVE",
"122 726 LINE",
"220 778 OFFCURVE",
"288 802 OFFCURVE",
"368 802 CURVE SMOOTH",
"476 802 OFFCURVE",
"506 750 OFFCURVE",
"504 628 CURVE",
"350 618 OFFCURVE",
"34 562 OFFCURVE",
"34 254 CURVE SMOOTH",
"34 80 OFFCURVE",
"142 -30 OFFCURVE",
"326 -30 CURVE SMOOTH"
);
},
{
closed = 1;
nodes = (
"328 162 OFFCURVE",
"286 206 OFFCURVE",
"286 276 CURVE SMOOTH",
"286 408 OFFCURVE",
"422 458 OFFCURVE",
"518 460 CURVE",
"518 460 LINE",
"520 438 OFFCURVE",
"520 426 OFFCURVE",
"520 404 CURVE SMOOTH",
"520 244 OFFCURVE",
"438 162 OFFCURVE",
"376 162 CURVE SMOOTH"
);
},
{
closed = 1;
nodes = (
"784 730 OFFCURVE",
"864 812 OFFCURVE",
"964 812 CURVE SMOOTH",
"964 812 LINE SMOOTH",
"1084 812 OFFCURVE",
"1108 704 OFFCURVE",
"1108 614 CURVE",
"770 614 LINE"
);
}
);
visible = 1;
width = 1366;
}
);
leftKerningGroup = a;
leftMetricsKey = a;
rightKerningGroup = e;
rightMetricsKey = e;
unicode = 00E6;
},
{
glyphname = b;
layers = (
{
anchors = (
{
name = bottom;
position = "{594, 0}";
},
{
name = top;
position = "{210, 1500}";
}
);
layerId = UUID0;
paths = (
{
closed = 1;
nodes = (
"852 -20 OFFCURVE",
"1046 204 OFFCURVE",
"1046 490 CURVE SMOOTH",
"1046 758 OFFCURVE",
"878 1000 OFFCURVE",
"604 1000 CURVE SMOOTH",
"462 1000 OFFCURVE",
"328 924 OFFCURVE",
"262 816 CURVE",
"300 788 LINE",
"300 1500 LINE",
"120 1500 LINE",
"120 0 LINE",
"280 0 LINE",
"314 208 LINE",
"270 176 LINE",
"320 46 OFFCURVE",
"466 -20 OFFCURVE",
"604 -20 CURVE SMOOTH"
);
},
{
closed = 1;
nodes = (
"428 140 OFFCURVE",
"290 244 OFFCURVE",
"290 490 CURVE SMOOTH",
"290 726 OFFCURVE",
"428 840 OFFCURVE",
"582 840 CURVE SMOOTH",
"754 840 OFFCURVE",
"862 690 OFFCURVE",
"862 490 CURVE SMOOTH",
"862 298 OFFCURVE",
"754 140 OFFCURVE",
"582 140 CURVE SMOOTH"
);
}
);
width = 1110;
},
{
anchors = (
{
name = bottom;
position = "{618, 0}";
},
{
name = top;
position = "{238, 1500}";
}
);
layerId = "7C863538-AAB4-42AD-A9FE-7240E615272A";
paths = (
{
closed = 1;
nodes = (
"930 -20 OFFCURVE",
"1086 218 OFFCURVE",
"1086 498 CURVE SMOOTH",
"1086 778 OFFCURVE",
"930 1016 OFFCURVE",
"636 1016 CURVE SMOOTH",
"496 1016 OFFCURVE",
"390 962 OFFCURVE",
"302 872 CURVE",
"362 834 LINE",
"362 1500 LINE",
"114 1500 LINE",
"114 0 LINE",
"346 0 LINE",
"358 170 LINE",
"284 118 LINE",
"380 32 OFFCURVE",
"484 -20 OFFCURVE",
"636 -20 CURVE SMOOTH"
);
},
{
closed = 1;
nodes = (
"426 184 OFFCURVE",
"350 312 OFFCURVE",
"350 498 CURVE SMOOTH",
"350 684 OFFCURVE",
"426 812 OFFCURVE",
"600 812 CURVE SMOOTH",
"748 812 OFFCURVE",
"832 684 OFFCURVE",
"832 498 CURVE SMOOTH",
"832 312 OFFCURVE",
"748 184 OFFCURVE",
"600 184 CURVE SMOOTH"
);
}
);
width = 1142;
},
{
associatedMasterId = UUID0;
layerId = "A3D91B1D-814B-4AFB-844B-25A91C0F52B2";
name = "Regular Sep 7 16, 14:04";
paths = (
{
closed = 1;
nodes = (
"852 -20 OFFCURVE",
"1046 204 OFFCURVE",
"1046 490 CURVE SMOOTH",
"1046 758 OFFCURVE",
"878 1000 OFFCURVE",
"604 1000 CURVE SMOOTH",
"516 1000 OFFCURVE",
"384 976 OFFCURVE",
"300 874 CURVE",
"300 1500 LINE",
"120 1500 LINE",
"120 0 LINE",
"280 0 LINE",
"300 124 LINE",
"374 28 OFFCURVE",
"514 -20 OFFCURVE",
"602 -20 CURVE SMOOTH"
);
},
{
closed = 1;
nodes = (
"438 140 OFFCURVE",
"290 244 OFFCURVE",
"290 490 CURVE SMOOTH",
"290 726 OFFCURVE",
"438 840 OFFCURVE",
"582 840 CURVE SMOOTH",
"754 840 OFFCURVE",
"862 690 OFFCURVE",
"862 490 CURVE SMOOTH",
"862 298 OFFCURVE",
"754 140 OFFCURVE",
"582 140 CURVE SMOOTH"
);
}
);
width = 1110;
},
{
associatedMasterId = "7C863538-AAB4-42AD-A9FE-7240E615272A";
layerId = "5568EE20-7872-4EA6-A4D6-D8B3E18D13AF";
name = "Bold Sep 7 16, 14:04";
paths = (
{
closed = 1;
nodes = (
"916 -20 OFFCURVE",
"1086 218 OFFCURVE",
"1086 498 CURVE SMOOTH",
"1086 778 OFFCURVE",
"916 1016 OFFCURVE",
"596 1016 CURVE SMOOTH",
"492 1016 OFFCURVE",
"426 992 OFFCURVE",
"362 950 CURVE",
"362 1500 LINE",
"114 1500 LINE",
"114 0 LINE",
"346 0 LINE",
"350 56 LINE",
"420 8 OFFCURVE",
"486 -20 OFFCURVE",
"596 -20 CURVE SMOOTH"
);
},
{
closed = 1;
nodes = (
"420 184 OFFCURVE",
"350 312 OFFCURVE",
"350 498 CURVE SMOOTH",
"350 684 OFFCURVE",
"420 812 OFFCURVE",
"580 812 CURVE SMOOTH",
"740 812 OFFCURVE",
"832 684 OFFCURVE",
"832 498 CURVE SMOOTH",
"832 312 OFFCURVE",
"740 184 OFFCURVE",
"580 184 CURVE SMOOTH"
);
}
);
width = 1142;
},
{
anchors = (
{
name = bottom;
position = "{492, 0}";
},
{
name = top;
position = "{188, 1500}";
}
);
layerId = "A616F07E-65DE-4D07-A020-83605E49AA22";
paths = (
{
closed = 1;
nodes = (
"764 -20 OFFCURVE",
"916 204 OFFCURVE",
"916 490 CURVE SMOOTH",
"916 758 OFFCURVE",
"776 1000 OFFCURVE",
"532 1000 CURVE SMOOTH",
"396 1000 OFFCURVE",
"292 928 OFFCURVE",
"222 816 CURVE",
"276 788 LINE",
"276 1500 LINE",
"100 1500 LINE",
"100 0 LINE",
"260 0 LINE",
"276 210 LINE",
"222 174 LINE",
"272 46 OFFCURVE",
"396 -20 OFFCURVE",
"532 -20 CURVE SMOOTH"
);
},
{
closed = 1;
nodes = (
"364 136 OFFCURVE",
"260 242 OFFCURVE",
"260 490 CURVE SMOOTH",
"260 728 OFFCURVE",
"364 844 OFFCURVE",
"500 844 CURVE SMOOTH",
"646 844 OFFCURVE",
"736 692 OFFCURVE",
"736 490 CURVE SMOOTH",
"736 296 OFFCURVE",
"646 136 OFFCURVE",
"500 136 CURVE SMOOTH"
);
}
);
width = 984;
},
{
anchors = (
{
name = bottom;
position = "{494, 0}";
},
{
name = top;
position = "{220, 1500}";
}
);
layerId = "3AF73D1F-32CE-4CF3-BC01-E4A23F7DE30A";
paths = (
{
closed = 1;
nodes = (
"822 -20 OFFCURVE",
"956 218 OFFCURVE",
"956 498 CURVE SMOOTH",
"956 778 OFFCURVE",
"822 1016 OFFCURVE",
"570 1016 CURVE SMOOTH",
"446 1016 OFFCURVE",
"352 958 OFFCURVE",
"288 872 CURVE",
"340 834 LINE",
"340 1500 LINE",
"100 1500 LINE",
"100 0 LINE",
"324 0 LINE",
"336 170 LINE",
"276 128 LINE",
"348 36 OFFCURVE",
"444 -20 OFFCURVE",
"570 -20 CURVE SMOOTH"
);
},
{
closed = 1;
nodes = (
"388 176 OFFCURVE",
"328 308 OFFCURVE",
"328 498 CURVE SMOOTH",
"328 688 OFFCURVE",
"388 820 OFFCURVE",
"524 820 CURVE SMOOTH",
"644 820 OFFCURVE",
"712 688 OFFCURVE",
"712 498 CURVE SMOOTH",
"712 308 OFFCURVE",
"644 176 OFFCURVE",
"524 176 CURVE SMOOTH"
);
}
);
width = 986;
},
{
associatedMasterId = "A616F07E-65DE-4D07-A020-83605E49AA22";
layerId = "675073AB-B668-48B2-B861-8D69A0563793";
name = "Condensed Sep 19 16, 18:47";
paths = (
{
closed = 1;
nodes = (
"764 -20 OFFCURVE",
"916 204 OFFCURVE",
"916 490 CURVE SMOOTH",
"916 758 OFFCURVE",
"776 1000 OFFCURVE",
"532 1000 CURVE SMOOTH",
"402 1000 OFFCURVE",
"296 928 OFFCURVE",
"232 816 CURVE",
"280 788 LINE",
"280 1500 LINE",
"100 1500 LINE",
"100 0 LINE",
"264 0 LINE",
"280 210 LINE",
"232 174 LINE",
"280 46 OFFCURVE",
"400 -20 OFFCURVE",
"532 -20 CURVE SMOOTH"
);
},
{
closed = 1;
nodes = (
"370 140 OFFCURVE",
"270 244 OFFCURVE",
"270 490 CURVE SMOOTH",
"270 726 OFFCURVE",
"370 840 OFFCURVE",
"500 840 CURVE SMOOTH",
"642 840 OFFCURVE",
"730 690 OFFCURVE",
"730 490 CURVE SMOOTH",
"730 298 OFFCURVE",
"642 140 OFFCURVE",
"500 140 CURVE SMOOTH"
);
}
);
width = 984;
},
{
associatedMasterId = "3AF73D1F-32CE-4CF3-BC01-E4A23F7DE30A";
layerId = "6D6AFF2B-D360-4F75-A112-177122F6CBEB";
name = "Bold Condensed Sep 19 16, 18:47";
paths = (
{
closed = 1;
nodes = (
"826 -20 OFFCURVE",
"956 198 OFFCURVE",
"956 498 CURVE SMOOTH",
"956 798 OFFCURVE",
"826 1016 OFFCURVE",
"576 1016 CURVE SMOOTH",
"448 1016 OFFCURVE",
"348 970 OFFCURVE",
"270 876 CURVE",
"338 834 LINE",
"338 1500 LINE",
"100 1500 LINE",
"100 0 LINE",
"326 0 LINE",
"320 172 LINE",
"270 146 LINE",
"338 34 OFFCURVE",
"438 -20 OFFCURVE",
"576 -20 CURVE SMOOTH"
);
},
{
closed = 1;
nodes = (
"396 184 OFFCURVE",
"328 302 OFFCURVE",
"328 498 CURVE SMOOTH",
"328 694 OFFCURVE",
"396 812 OFFCURVE",
"518 812 CURVE SMOOTH",
"642 812 OFFCURVE",
"708 694 OFFCURVE",
"708 498 CURVE SMOOTH",
"708 302 OFFCURVE",
"642 184 OFFCURVE",
"518 184 CURVE SMOOTH"
);
}
);
visible = 1;
width = 986;
}
);
leftKerningGroup = h;
rightKerningGroup = b;
unicode = 0062;
},
{
glyphname = c;
layers = (
{
anchors = (
{
name = bottom;
position = "{530, 0}";
},
{
name = top;
position = "{544, 980}";
}
);
layerId = UUID0;
paths = (
{
closed = 1;
nodes = (
"686 -20 OFFCURVE",
"798 16 OFFCURVE",
"852 54 CURVE",
"828 198 LINE",
"752 160 OFFCURVE",
"668 138 OFFCURVE",
"578 138 CURVE SMOOTH",
"356 138 OFFCURVE",
"250 278 OFFCURVE",
"250 492 CURVE SMOOTH",
"250 710 OFFCURVE",
"366 840 OFFCURVE",
"582 840 CURVE SMOOTH",
"670 840 OFFCURVE",
"752 818 OFFCURVE",
"826 784 CURVE",
"854 942 LINE",
"782 978 OFFCURVE",
"688 1000 OFFCURVE",
"586 1000 CURVE SMOOTH",
"228 1000 OFFCURVE",
"66 776 OFFCURVE",
"66 484 CURVE SMOOTH",
"66 204 OFFCURVE",
"240 -20 OFFCURVE",
"572 -20 CURVE SMOOTH"
);
}
);
width = 908;
},
{
anchors = (
{
name = bottom;
position = "{546, 0}";
},
{
name = top;
position = "{542, 1000}";
}
);
layerId = "7C863538-AAB4-42AD-A9FE-7240E615272A";
paths = (
{
closed = 1;
nodes = (
"688 -20 OFFCURVE",
"790 4 OFFCURVE",
"860 40 CURVE",
"838 250 LINE",
"766 208 OFFCURVE",
"688 184 OFFCURVE",
"610 184 CURVE SMOOTH",
"426 184 OFFCURVE",
"310 320 OFFCURVE",
"310 498 CURVE SMOOTH",
"310 684 OFFCURVE",
"420 812 OFFCURVE",
"612 812 CURVE SMOOTH",
"696 812 OFFCURVE",
"774 788 OFFCURVE",
"836 756 CURVE",
"856 956 LINE",
"792 992 OFFCURVE",
"700 1020 OFFCURVE",
"588 1020 CURVE SMOOTH",
"232 1020 OFFCURVE",
"56 784 OFFCURVE",
"56 498 CURVE SMOOTH",
"56 214 OFFCURVE",
"236 -20 OFFCURVE",
"580 -20 CURVE SMOOTH"
);
}
);
width = 910;
},
{
associatedMasterId = UUID0;
layerId = "4217E9DC-BD9A-4C17-AB54-9CC835F9CAF7";
name = "Regular Sep 7 16, 14:04";
paths = (
{
closed = 1;
nodes = (
"712 -20 OFFCURVE",
"794 16 OFFCURVE",
"852 54 CURVE",
"828 198 LINE",
"750 160 OFFCURVE",
"664 138 OFFCURVE",
"572 138 CURVE SMOOTH",
"354 138 OFFCURVE",
"250 278 OFFCURVE",
"250 492 CURVE SMOOTH",
"250 710 OFFCURVE",
"354 840 OFFCURVE",
"572 840 CURVE SMOOTH",
"664 840 OFFCURVE",
"748 818 OFFCURVE",
"826 780 CURVE",
"854 942 LINE",
"796 974 OFFCURVE",
"700 1000 OFFCURVE",
"552 1000 CURVE SMOOTH",
"226 1000 OFFCURVE",
"66 778 OFFCURVE",
"66 492 CURVE SMOOTH",
"66 218 OFFCURVE",
"228 -20 OFFCURVE",
"554 -20 CURVE"
);
}
);
width = 908;
},
{
associatedMasterId = "7C863538-AAB4-42AD-A9FE-7240E615272A";
layerId = "5D6F1FAE-6F2E-4886-A768-B03801F9D6CA";
name = "Bold Sep 7 16, 14:04";
paths = (
{
closed = 1;
nodes = (
"702 -20 OFFCURVE",
"778 14 OFFCURVE",
"842 54 CURVE",
"820 266 LINE",
"738 212 OFFCURVE",
"658 184 OFFCURVE",
"562 184 CURVE SMOOTH",
"402 184 OFFCURVE",
"310 312 OFFCURVE",
"310 498 CURVE SMOOTH",
"310 684 OFFCURVE",
"402 812 OFFCURVE",
"562 812 CURVE SMOOTH",
"658 812 OFFCURVE",
"738 784 OFFCURVE",
"820 730 CURVE",
"842 942 LINE",
"778 982 OFFCURVE",
"702 1016 OFFCURVE",
"542 1016 CURVE SMOOTH",
"222 1016 OFFCURVE",
"56 778 OFFCURVE",
"56 498 CURVE SMOOTH",
"56 218 OFFCURVE",
"222 -20 OFFCURVE",
"542 -20 CURVE"
);
}
);
width = 896;
},
{
anchors = (
{
name = bottom;
position = "{462, 0}";
},
{
name = top;
position = "{466, 980}";
}
);
guideLines = (
{
angle = 90;
position = "{362, 471}";
}
);
layerId = "A616F07E-65DE-4D07-A020-83605E49AA22";
paths = (
{
closed = 1;
nodes = (
"588 -20 OFFCURVE",
"672 0 OFFCURVE",
"724 26 CURVE",
"700 182 LINE",
"644 150 OFFCURVE",
"584 136 OFFCURVE",
"518 136 CURVE SMOOTH",
"334 136 OFFCURVE",
"228 276 OFFCURVE",
"228 492 CURVE SMOOTH",
"228 712 OFFCURVE",
"334 844 OFFCURVE",
"512 844 CURVE SMOOTH",
"580 844 OFFCURVE",
"642 826 OFFCURVE",
"698 796 CURVE",
"726 950 LINE",
"668 980 OFFCURVE",
"590 1000 OFFCURVE",
"508 1000 CURVE SMOOTH",
"192 1000 OFFCURVE",
"48 776 OFFCURVE",
"48 484 CURVE SMOOTH",
"48 204 OFFCURVE",
"192 -20 OFFCURVE",
"504 -20 CURVE SMOOTH"
);
}
);
width = 770;
},
{
anchors = (
{
name = bottom;
position = "{486, 0}";
},
{
name = top;
position = "{470, 1000}";
}
);
guideLines = (
{
angle = 90;
position = "{362, 471}";
}
);
layerId = "3AF73D1F-32CE-4CF3-BC01-E4A23F7DE30A";
paths = (
{
closed = 1;
nodes = (
"598 -20 OFFCURVE",
"674 -4 OFFCURVE",
"724 20 CURVE",
"708 212 LINE",
"660 188 OFFCURVE",
"612 176 OFFCURVE",
"554 176 CURVE SMOOTH",
"384 176 OFFCURVE",
"292 316 OFFCURVE",
"292 498 CURVE SMOOTH",
"292 688 OFFCURVE",
"388 820 OFFCURVE",
"556 820 CURVE SMOOTH",
"612 820 OFFCURVE",
"660 806 OFFCURVE",
"702 786 CURVE",
"720 982 LINE",
"674 1002 OFFCURVE",
"608 1016 OFFCURVE",
"528 1016 CURVE SMOOTH",
"206 1016 OFFCURVE",
"48 782 OFFCURVE",
"48 498 CURVE SMOOTH",
"48 214 OFFCURVE",
"210 -20 OFFCURVE",
"520 -20 CURVE SMOOTH"
);
}
);
width = 770;
},
{
associatedMasterId = "A616F07E-65DE-4D07-A020-83605E49AA22";
layerId = "5DC6DF8D-F9EB-42F2-894F-D5E1B4957D5B";
name = "Condensed Sep 19 16, 18:47";
paths = (
{
closed = 1;
nodes = (
"604 -20 OFFCURVE",
"672 16 OFFCURVE",
"724 54 CURVE",
"704 198 LINE",
"636 160 OFFCURVE",
"564 138 OFFCURVE",
"484 138 CURVE SMOOTH",
"316 138 OFFCURVE",
"232 278 OFFCURVE",
"232 492 CURVE SMOOTH",
"232 710 OFFCURVE",
"316 840 OFFCURVE",
"484 840 CURVE SMOOTH",
"564 840 OFFCURVE",
"634 818 OFFCURVE",
"704 780 CURVE",
"724 942 LINE",
"672 974 OFFCURVE",
"598 1000 OFFCURVE",
"466 1000 CURVE SMOOTH",
"188 1000 OFFCURVE",
"48 778 OFFCURVE",
"48 492 CURVE SMOOTH",
"48 218 OFFCURVE",
"188 -20 OFFCURVE",
"466 -20 CURVE SMOOTH",
"466 -20 LINE"
);
}
);
width = 770;
},
{
associatedMasterId = "3AF73D1F-32CE-4CF3-BC01-E4A23F7DE30A";
layerId = "A94F3E00-B464-43B2-836D-43E79C739A5C";
name = "Bold Condensed Sep 19 16, 18:47";
paths = (
{
closed = 1;
nodes = (
"604 -20 OFFCURVE",
"666 14 OFFCURVE",
"724 54 CURVE",
"706 266 LINE",
"634 212 OFFCURVE",
"568 184 OFFCURVE",
"484 184 CURVE SMOOTH",
"368 184 OFFCURVE",
"292 312 OFFCURVE",
"292 498 CURVE SMOOTH",
"292 684 OFFCURVE",
"368 812 OFFCURVE",
"484 812 CURVE SMOOTH",
"568 812 OFFCURVE",
"634 784 OFFCURVE",
"706 730 CURVE",
"724 942 LINE",
"666 982 OFFCURVE",
"608 1016 OFFCURVE",
"466 1016 CURVE SMOOTH",
"192 1016 OFFCURVE",
"48 778 OFFCURVE",
"48 498 CURVE SMOOTH",
"48 218 OFFCURVE",
"192 -20 OFFCURVE",
"466 -20 CURVE SMOOTH",
"466 -20 LINE"
);
}
);
visible = 1;
width = 770;
}
);
leftKerningGroup = o;
rightKerningGroup = c;
unicode = 0063;
},
